<?xml version="1.0" standalone="no"?>
<!DOCTYPE svg PUBLIC "-//W3C//DTD SVG 20010904//EN"
 "http://www.w3.org/TR/2001/REC-SVG-20010904/DTD/svg10.dtd">
<svg version="1.0" xmlns="http://www.w3.org/2000/svg"
 width="226.000000pt" height="300.000000pt" viewBox="0 0 226.000000 300.000000"
 preserveAspectRatio="xMidYMid meet">

<g transform="translate(0.000000,300.000000) scale(0.100000,-0.100000)"
fill="#000000" stroke="none">
<path style="fill: #ffffffb3;" d="M1050 2954 c-44 -40 -50 -54 -21 -54 37 0 63 -33 68 -86 4 -40 1 -53
-17 -71 -28 -30 -46 -29 -81 6 -26 27 -29 36 -29 95 0 79 -12 116 -39 116 -39
0 -134 -43 -211 -96 -43 -29 -97 -59 -119 -66 -44 -14 -53 -33 -21 -43 21 -7
21 -7 1 -40 l-19 -34 21 -14 c20 -13 20 -16 7 -43 -8 -16 -16 -32 -18 -36 -2
-5 6 -8 17 -8 21 0 21 0 -2 -64 -49 -132 -131 -245 -208 -283 -71 -35 -158
-126 -197 -205 -32 -66 -62 -165 -62 -206 0 -20 -4 -23 -24 -18 -32 8 -52 -17
-68 -84 -18 -78 -18 -618 0 -680 14 -47 168 -259 327 -448 47 -57 85 -105 85
-107 0 -3 -26 -5 -57 -5 -72 0 -127 -25 -171 -74 -26 -30 -32 -45 -32 -82 0
-25 5 -55 12 -67 21 -40 169 -217 196 -235 42 -28 111 -21 168 16 147 93 344
142 578 142 227 0 385 -37 564 -131 52 -27 104 -49 116 -49 51 1 96 36 184
147 105 132 115 161 80 231 -32 65 -103 102 -194 102 -66 0 -76 7 -47 31 22
19 191 229 295 369 55 73 91 131 98 159 19 73 29 315 19 491 -11 217 -34 293
-82 274 -9 -3 -16 16 -24 67 -21 135 -111 276 -220 346 -29 18 -53 39 -53 46
0 6 -24 36 -54 67 -53 53 -166 204 -166 220 0 4 19 6 42 2 l42 -5 -22 30 c-11
16 -24 42 -28 58 -6 24 -4 27 10 22 30 -12 35 1 15 40 -17 33 -17 37 -2 48 13
10 1 23 -88 94 -133 104 -179 128 -219 111 -50 -21 -61 -49 -54 -139 6 -74 5
-80 -15 -90 -24 -14 -54 -2 -66 26 -4 10 -11 58 -15 107 -6 80 -9 92 -34 113
-20 17 -39 23 -77 23 -42 0 -54 -5 -89 -36z m-30 -497 c0 -8 9 -22 19 -32 20
-17 20 -17 -1 -45 -24 -33 -40 -170 -19 -170 6 0 11 -9 11 -19 0 -11 6 -21 13
-24 16 -5 -7 -33 -47 -58 l-29 -18 -91 80 c-100 88 -147 109 -245 112 l-61 1
37 38 c25 26 46 38 65 38 53 0 130 22 226 66 104 47 122 51 122 31z m365 -26
c10 -17 68 -41 98 -41 23 0 40 -11 74 -47 47 -52 52 -63 26 -63 -39 0 -124
-52 -193 -116 -68 -65 -73 -67 -86 -49 -8 10 -14 34 -14 52 0 28 4 33 23 33
28 0 94 23 109 38 7 7 20 12 29 12 23 0 49 10 49 19 0 4 -28 28 -62 53 -77 56
-112 93 -103 107 8 13 42 14 50 2z m-701 -176 c97 -21 145 -56 299 -220 122
-130 136 -149 142 -189 10 -64 4 -70 -74 -62 -98 10 -184 34 -203 58 -10 11
-18 34 -18 52 0 91 -50 163 -145 208 -76 36 -111 35 -186 -3 -128 -64 -186
-158 -196 -319 -5 -74 -3 -92 17 -137 58 -136 205 -188 344 -122 48 22 49 22
82 4 53 -28 136 -121 132 -148 -6 -41 -47 -50 -232 -51 l-171 -1 -74 39 c-181
97 -262 250 -248 470 8 119 42 189 140 289 80 82 149 121 237 136 77 12 77 12
154 -4z m1069 0 c95 -20 159 -58 234 -139 87 -94 112 -140 129 -236 34 -196
-36 -378 -186 -481 -113 -78 -208 -93 -433 -70 -83 9 -91 13 -102 50 -6 20 2
33 59 87 36 34 75 65 86 69 12 4 46 -4 84 -19 108 -44 185 -32 264 39 60 54
84 109 84 190 1 179 -64 290 -209 362 -66 32 -121 27 -197 -16 -76 -43 -106
-85 -116 -166 -5 -44 -15 -74 -27 -86 -22 -22 -114 -47 -204 -55 -62 -6 -67
-5 -73 14 -16 50 12 98 125 219 178 189 212 215 319 239 72 16 83 16 163 -1z
m-1048 -193 c22 -15 54 -47 73 -71 29 -39 32 -48 26 -87 -13 -86 5 -106 115
-129 69 -14 111 -16 301 -15 79 1 194 24 227 45 22 15 24 22 21 79 -2 56 1 68
26 104 29 43 82 84 130 102 60 22 173 -19 237 -87 65 -67 95 -161 87 -267 -10
-116 -67 -183 -175 -206 -57 -12 -121 -1 -143 25 -8 9 -30 15 -57 15 -41 0
-51 -5 -124 -71 -43 -39 -81 -80 -84 -90 -4 -12 -16 -19 -30 -19 -15 0 -31 -9
-39 -22 -19 -30 -44 -117 -57 -197 -12 -78 0 -101 60 -120 50 -14 80 -65 88
-147 10 -93 -44 -192 -127 -234 l-37 -19 -6 132 c-3 72 -3 234 0 359 l6 228
74 87 c58 70 82 91 118 105 25 9 94 52 153 97 60 44 147 102 195 129 68 37 84
51 77 62 -14 22 -130 -42 -286 -157 -75 -55 -139 -95 -159 -99 -28 -5 -51 -25
-118 -104 l-84 -98 -8 -157 c-8 -193 -8 -437 1 -522 7 -72 -1 -81 -62 -67
l-36 9 4 215 c1 118 3 280 3 360 l0 146 -66 84 c-82 105 -94 115 -146 129 -24
7 -116 61 -211 125 -202 136 -230 152 -246 136 -8 -8 -6 -14 9 -22 11 -7 101
-67 201 -134 102 -68 204 -129 233 -139 45 -15 61 -28 112 -92 32 -41 64 -83
70 -94 7 -14 8 -128 3 -364 -4 -190 -9 -345 -11 -345 -16 0 -84 44 -110 72
-80 83 -72 212 19 299 41 39 48 52 48 83 0 40 -43 175 -69 215 -9 14 -14 36
-12 49 2 20 -15 42 -83 108 -79 76 -90 84 -126 84 -22 0 -55 -9 -77 -22 -88
-52 -233 -9 -281 83 -32 64 -38 132 -18 223 27 118 103 202 213 232 62 17 108
10 158 -24z m479 -18 l77 -7 -63 -66 -63 -66 -50 55 c-86 94 -85 90 -28 90 28
0 85 -3 127 -6z m-962 -632 c7 -113 25 -155 82 -190 29 -17 46 -34 46 -47 0
-11 7 -51 15 -89 8 -38 13 -72 11 -74 -9 -8 -78 53 -105 92 -43 62 -62 134
-71 268 -12 163 -13 153 4 139 8 -7 15 -42 18 -99z m131 -92 c-8 -60 -10 -62
-36 -45 -31 20 -47 56 -47 106 l0 40 44 -33 c40 -30 43 -36 39 -68z m1027 30
c31 -22 45 -49 126 -246 54 -132 57 -144 58 -229 1 -82 -2 -96 -31 -157 -57
-121 -144 -192 -288 -233 -221 -65 -474 97 -524 333 -28 135 -4 242 92 412 35
61 48 76 70 78 25 3 30 -2 51 -50 13 -29 28 -75 34 -103 l11 -50 -44 -45 c-81
-85 -103 -166 -70 -261 24 -67 59 -105 128 -137 176 -83 312 -53 384 84 39 74
48 130 33 195 -12 50 -26 68 -120 151 -34 31 -34 34 -3 173 25 113 38 124 93
85z m-725 -98 c16 -26 42 -63 58 -84 l29 -36 -26 -75 c-19 -56 -26 -96 -26
-154 l0 -78 -29 50 c-19 33 -43 110 -70 225 -23 96 -44 181 -46 188 -3 8 9 12
38 12 39 0 44 -3 72 -48z m155 44 c0 -5 -42 -100 -46 -105 -7 -8 -73 83 -74
102 0 4 27 7 60 7 33 0 60 -2 60 -4z m770 -1 c0 -9 -73 -115 -79 -115 -3 0
-15 24 -26 53 -11 28 -21 55 -23 60 -2 4 26 7 62 7 36 0 66 -2 66 -5z m124
-57 c-44 -189 -78 -316 -91 -342 l-16 -30 -18 74 c-11 41 -28 98 -39 128 -16
43 -18 56 -8 66 7 7 36 47 63 89 47 72 52 77 87 77 l36 0 -14 -62z m-865 -659
c38 -37 89 -76 120 -91 l53 -25 -68 -7 c-38 -3 -90 -9 -116 -13 l-48 -6 -1 59
c0 33 -8 91 -18 129 -16 59 -16 66 -3 45 9 -14 45 -55 81 -91z m644 -63 l-6
-77 -36 5 c-20 3 -62 8 -94 12 l-57 6 59 28 c33 16 77 46 98 68 21 21 39 38
41 37 1 -1 -1 -36 -5 -79z"/>
<path d="M611 2190 c73 -9 151 -52 200 -111 54 -65 69 -97 69 -150 0 -26 6
-51 13 -57 6 -5 48 -13 92 -16 l80 -7 -36 33 c-20 18 -74 80 -121 138 -126
156 -167 181 -287 179 l-66 -2 56 -7z"/>
<path d="M206 1827 c-11 -43 -6 -158 9 -194 20 -47 89 -132 142 -172 79 -61
132 -75 280 -76 72 0 135 3 139 8 8 8 -40 63 -68 78 -13 7 -26 4 -46 -11 -24
-18 -44 -21 -123 -22 -78 -1 -101 2 -136 20 -50 26 -100 85 -143 172 -29 57
-33 74 -31 137 1 71 -11 104 -23 60z"/>
<path d="M1535 2181 c-45 -21 -133 -109 -219 -218 -31 -40 -65 -77 -76 -83
-41 -22 -21 -32 48 -25 100 10 102 11 102 53 0 67 19 110 77 173 67 72 114 98
197 108 l61 8 -75 2 c-54 0 -86 -5 -115 -18z"/>
<path d="M2047 1817 c-3 -20 -3 -53 0 -72 7 -43 -45 -156 -102 -223 -59 -69
-103 -86 -214 -84 -80 1 -99 4 -123 22 -32 24 -35 23 -91 -32 -36 -35 -25 -41
86 -46 162 -8 271 29 363 124 74 76 108 150 107 233 0 36 -5 77 -10 90 -9 24
-10 23 -16 -12z"/>
<path d="M517 1936 c-4 -10 23 -36 81 -79 129 -95 141 -102 233 -148 93 -46
156 -88 240 -160 31 -27 61 -49 67 -49 5 0 42 29 82 65 40 36 80 65 89 65 9 0
50 19 93 43 109 60 377 231 378 240 1 29 -49 7 -207 -94 -98 -62 -206 -125
-241 -139 -39 -15 -89 -47 -128 -82 l-65 -56 -87 70 c-50 40 -136 94 -202 128
-63 33 -160 93 -215 135 -55 41 -103 75 -106 75 -4 0 -9 -6 -12 -14z"/>
<path d="M1346 1268 c-2 -7 -11 -40 -21 -73 -20 -67 -24 -58 55 -108 82 -53
132 -218 96 -323 -20 -58 -20 -64 -3 -39 22 32 47 116 47 157 0 42 -51 176
-105 273 -18 33 -36 75 -40 93 -7 32 -23 43 -29 20z"/>
<path d="M862 1198 c-17 -22 -54 -100 -73 -157 -13 -37 -19 -81 -19 -140 0
-72 5 -97 30 -154 37 -87 70 -130 123 -161 38 -22 127 -50 135 -42 5 6 -62 42
-90 49 -33 9 -104 87 -143 158 -24 44 -30 66 -30 119 0 56 6 77 38 143 21 42
44 77 51 77 28 0 34 21 17 71 -17 52 -22 57 -39 37z"/>
</g>
</svg>
