<svg id="Layer_1" enable-background="new 0 0 496.602 496.602" height="512" viewBox="0 0 496.602 496.602" width="512" xmlns="http://www.w3.org/2000/svg"><g><path d="m157.902 241.578h30v-60h30l-45-181.578-45 181.578h30z"/><path d="m336.81 255.486v60h30v-60h30l-45-194.578-45 194.578z"/><circle cx="217.902" cy="361.578" r="15"/><path d="m475.376 249.613c-13.609-32.143-35.963-53.821-63.418-61.769l22.582 97.642h-37.73v60h-90v-60h-37.729l38.006-164.34c-23.846-13.763-50.971-21.785-79.085-23.531l28.243 113.963h-38.343v59.999h-90v-59.999h-38.343l20.713-83.58c-19.413 12.01-37.055 27.217-51.976 44.95-34.671 41.21-52.5 92.458-50.201 144.301 2.32 52.315 24.804 98.967 63.309 131.364 47.282 39.778 112.671 51.844 174.92 32.262 24.757-7.788 51.464-5.428 75.199 6.641 6.757 3.435 13.913 5.93 21.268 7.417 5.522 1.117 11.081 1.669 16.646 1.669 25.197-.001 50.48-11.327 72.631-32.857 25.531-24.816 44.074-60.645 52.212-100.885 8.139-40.242 4.977-80.46-8.904-113.247zm-257.474 156.965c-24.813 0-45-20.186-45-45s20.187-45 45-45c24.814 0 45 20.186 45 45s-20.186 45-45 45z"/></g></svg>