<?xml version="1.0" standalone="no"?>
<!DOCTYPE svg PUBLIC "-//W3C//DTD SVG 20010904//EN"
 "http://www.w3.org/TR/2001/REC-SVG-20010904/DTD/svg10.dtd">
<svg version="1.0" xmlns="http://www.w3.org/2000/svg"
 width="200.000000pt" height="200.000000pt" viewBox="0 0 200.000000 200.000000"
 preserveAspectRatio="xMidYMid meet">

<g transform="translate(0.000000,200.000000) scale(0.100000,-0.100000)"
fill="#000000" stroke="none">
<path d="M713 1340 c-36 -14 -32 -107 7 -209 51 -132 98 -188 295 -351 140
-116 215 -191 215 -215 0 -12 13 -15 65 -15 58 0 65 2 65 20 0 32 -50 80 -235
225 -242 190 -325 284 -325 368 0 18 6 42 14 52 13 19 16 19 67 3 29 -10 55
-15 57 -13 3 2 -14 29 -36 59 -32 42 -51 57 -88 70 -53 18 -69 19 -101 6z"/>
<path d="M596 1315 c-23 -22 -26 -31 -26 -95 0 -57 7 -88 36 -163 52 -135 73
-166 220 -319 99 -102 134 -145 134 -163 0 -24 2 -25 70 -25 48 0 70 4 70 12
0 25 -53 87 -138 161 -120 104 -213 202 -246 259 -67 116 -109 273 -87 331 13
34 2 35 -33 2z"/>
<path d="M510 1238 c-10 -17 -22 -60 -26 -95 -16 -152 22 -257 175 -477 25
-35 41 -70 41 -87 0 -29 1 -29 58 -29 31 0 63 4 71 9 21 13 -3 53 -95 160 -99
114 -146 191 -179 292 -23 68 -26 93 -23 169 1 50 2 90 0 90 -1 0 -11 -14 -22
-32z"/>
<path d="M968 1228 c27 -43 28 -52 4 -39 -11 6 -32 7 -48 2 -51 -13 -42 -74
23 -151 15 -18 131 -111 258 -205 221 -165 264 -205 285 -260 9 -23 14 -25 75
-25 57 0 65 2 65 18 0 11 -13 37 -28 58 -51 71 -117 123 -439 349 -120 84
-153 119 -153 165 0 11 7 23 15 26 12 5 7 15 -22 48 -47 52 -62 59 -35 14z"/>
<path d="M415 1220 c-3 -5 -2 -10 4 -10 5 0 13 5 16 10 3 6 2 10 -4 10 -5 0
-13 -4 -16 -10z"/>
<path d="M1051 1219 l-25 -10 23 -16 c16 -11 19 -18 11 -23 -16 -10 102 -32
126 -24 22 8 84 64 84 76 0 15 -50 8 -82 -12 -35 -21 -93 -26 -118 -10 -11 7
-7 10 17 10 17 0 35 5 38 10 8 13 -42 12 -74 -1z"/>
<path d="M1314 1173 c-42 -73 -40 -72 -86 -61 -54 12 -69 -3 -31 -30 15 -11
60 -35 98 -55 43 -22 91 -57 125 -92 30 -31 87 -78 125 -105 113 -77 188 -170
219 -272 4 -15 17 -18 71 -18 73 0 73 1 50 68 -11 31 -14 62 -9 107 l7 64 -59
76 c-51 68 -59 74 -66 56 -11 -30 -34 -26 -129 18 -46 22 -119 51 -162 66 -57
21 -83 36 -99 58 l-21 29 31 64 c18 36 32 67 32 69 0 3 -16 5 -35 5 -30 0 -37
-5 -61 -47z"/>
<path d="M1473 1203 c-23 -66 -46 -120 -55 -130 -15 -19 38 -28 68 -12 23 12
46 67 56 134 4 28 -59 35 -69 8z"/>
<path d="M404 1167 c-56 -41 -125 -117 -106 -117 4 0 24 16 43 36 18 20 43 41
54 46 22 12 -121 -143 -161 -174 -22 -18 -99 -113 -119 -148 -5 -8 7 -3 26 11
31 24 82 80 163 179 36 45 26 25 -42 -78 -29 -45 -78 -109 -108 -141 -48 -52
-54 -64 -54 -101 0 -35 2 -40 14 -31 29 24 116 161 181 284 37 70 69 127 71
127 2 0 -6 -24 -17 -52 -61 -153 -117 -307 -123 -340 -3 -20 -18 -52 -31 -72
l-24 -36 69 0 c91 0 96 8 92 149 -1 56 2 131 8 165 14 78 56 209 81 256 11 19
17 26 14 15 -54 -168 -58 -269 -14 -415 20 -68 29 -115 26 -137 l-6 -34 67 3
c56 3 67 6 70 22 2 10 -21 69 -52 131 -31 62 -63 139 -71 171 -20 76 -18 172
4 257 9 37 15 67 11 67 -3 0 -33 -19 -66 -43z"/>
<path d="M1596 1097 c-8 -43 -21 -54 -66 -59 -34 -3 -34 -3 27 -27 77 -29 113
-24 113 17 -1 16 -14 43 -34 66 l-33 39 -7 -36z"/>
</g>
</svg>
