<?xml version="1.0" encoding="utf-8"?>
<!-- Generator: Adobe Illustrator 22.0.1, SVG Export Plug-In . SVG Version: 6.00 Build 0)  -->
<svg version="1.1" id="Layer_1" xmlns="http://www.w3.org/2000/svg" xmlns:xlink="http://www.w3.org/1999/xlink" x="0px" y="0px"
	 viewBox="0 0 841.9 230.4" style="enable-background:new 0 0 841.9 230.4;" xml:space="preserve">
<style type="text/css">
	.st0{fill:#010202;}
</style>
<polygon class="st0" points="109.3,1 106.9,3.9 115,7.5 "/>
<polygon class="st0" points="109.3,10 109.8,10.2 109.5,9.9 "/>
<polygon class="st0" points="43.6,222.5 47.2,230.2 69.6,230.2 73.2,222.5 49.8,212.3 "/>
<polygon class="st0" points="35.5,205.5 39.7,214.4 49.3,199.2 85.7,215.6 79.1,230.2 88.2,230.2 96.6,211.5 46.1,188.6 "/>
<polygon class="st0" points="28.3,190.3 32.1,198.2 48.9,174 106.9,201.6 94.5,230.2 102.8,230.2 116.8,197.9 46.3,164.4 "/>
<polygon class="st0" points="21.4,175.7 24.8,182.8 48.6,150.9 128.1,187.7 108.6,230.2 116.3,230.2 137.2,184.3 46.4,142.3 "/>
<polygon class="st0" points="14.4,160.9 17.4,167.2 48.3,127.9 149.2,173.7 122.6,230.2 129.5,230.2 157.6,170.7 46.4,120.2 "/>
<polygon class="st0" points="7.3,145.8 10,151.4 48.1,104.9 170.4,159.8 136.5,230.2 142.7,230.2 177.9,157 46.5,98.1 "/>
<polygon class="st0" points="0.1,130.7 0,130.4 0.1,130.7 2.5,135.6 47.8,82 191.6,145.8 150.3,230.2 155.7,230.2 198.3,143.4 
	46.5,76 "/>
<polygon class="st0" points="72.3,44.9 192.8,99.3 187.4,92.9 74.7,42.1 "/>
<polygon class="st0" points="84.8,30.2 164.4,66 159,59.6 87.2,27.4 "/>
<polygon class="st0" points="97.2,15.4 136.7,33.1 131.2,26.7 99.6,12.5 "/>
<polygon class="st0" points="58.1,61.8 213.4,132.5 164.9,230.2 169.8,230.2 202,165.2 219.2,130.4 219.1,130.4 61,58.3 "/>
<g>
	<path class="st0" d="M282.4,132.3l-10.8-15.5c-0.7,0.1-1.4,0.1-2,0.1h-11.9v15.4h-9.8V79.5h21.7c13.9,0,22.5,7.1,22.5,18.8
		c0,8-4.1,13.9-11.2,16.7l12.2,17.4H282.4z M269.1,87.8h-11.5v21.1h11.5c8.6,0,13.1-3.9,13.1-10.6S277.7,87.8,269.1,87.8z"/>
	<path class="st0" d="M298.8,112.2c0-12.1,9.1-20.6,21.4-20.6c12.5,0,21.5,8.5,21.5,20.6c0,12.1-9,20.7-21.5,20.7
		C307.8,132.9,298.8,124.2,298.8,112.2z M332.2,112.2c0-7.7-5.1-12.6-12-12.6c-6.8,0-11.9,4.9-11.9,12.6s5.1,12.6,11.9,12.6
		C327.1,124.8,332.2,119.9,332.2,112.2z"/>
</g>
<g>
	<path class="st0" d="M387.4,92l-18.9,43.5c-3.7,9.1-8.8,11.9-15.5,11.9c-4,0-8.2-1.4-10.8-3.7l3.8-6.9c1.8,1.7,4.4,2.8,6.9,2.8
		c3.3,0,5.3-1.6,7.1-5.6l0.7-1.6L343.1,92h9.8l12.7,29.8L378.3,92H387.4z"/>
	<path class="st0" d="M427,108.7v23.6h-8.9v-4.9c-2.3,3.5-6.6,5.4-12.7,5.4c-9.2,0-15-5.1-15-12.1c0-6.7,4.5-12,16.8-12h10.4v-0.6
		c0-5.5-3.3-8.8-10-8.8c-4.5,0-9.2,1.5-12.2,4l-3.7-6.9c4.3-3.3,10.6-5,17.1-5C420.3,91.6,427,97.1,427,108.7z M417.6,119.7V115
		h-9.7c-6.4,0-8.2,2.4-8.2,5.4c0,3.4,2.9,5.6,7.7,5.6C412,126,416,123.9,417.6,119.7z"/>
</g>
<g>
	<path class="st0" d="M437.8,76.3h9.4v56h-9.4V76.3z"/>
	<path class="st0" d="M515.6,120.1h-26.4l-5.2,12.2h-10.1l23.8-52.8h9.7l23.8,52.8h-10.3L515.6,120.1z M512.4,112.4l-10-23.1
		l-9.9,23.1H512.4z"/>
	<path class="st0" d="M533.7,112.2c0-12.1,9.1-20.6,21.8-20.6c7.8,0,14.1,3.2,17.2,9.4l-7.2,4.2c-2.4-3.8-6-5.6-10-5.6
		c-6.9,0-12.2,4.8-12.2,12.6c0,7.8,5.3,12.6,12.2,12.6c4,0,7.6-1.7,10-5.6l7.2,4.2c-3.1,6-9.4,9.4-17.2,9.4
		C542.7,132.9,533.7,124.2,533.7,112.2z"/>
	<path class="st0" d="M614.6,108.7v23.6h-8.9v-4.9c-2.3,3.5-6.6,5.4-12.7,5.4c-9.2,0-15-5.1-15-12.1c0-6.7,4.5-12,16.8-12h10.4v-0.6
		c0-5.5-3.3-8.8-10-8.8c-4.5,0-9.2,1.5-12.2,4l-3.7-6.9c4.3-3.3,10.6-5,17.1-5C607.9,91.6,614.6,97.1,614.6,108.7z M605.1,119.7V115
		h-9.7c-6.4,0-8.2,2.4-8.2,5.4c0,3.4,2.9,5.6,7.7,5.6C599.5,126,603.5,123.9,605.1,119.7z"/>
	<path class="st0" d="M666.1,76.3v56h-9.1v-5.2c-3.2,3.8-7.8,5.7-13.4,5.7c-11.7,0-20.4-8.1-20.4-20.7s8.7-20.6,20.4-20.6
		c5.2,0,9.8,1.7,13,5.4V76.3H666.1z M656.8,112.2c0-7.7-5.2-12.6-12-12.6c-6.8,0-12,4.9-12,12.6s5.2,12.6,12,12.6
		C651.6,124.8,656.8,119.9,656.8,112.2z"/>
	<path class="st0" d="M716.2,115.2h-31.6c1.1,5.9,6,9.7,13.1,9.7c4.5,0,8.1-1.4,10.9-4.4l5.1,5.8c-3.6,4.3-9.3,6.6-16.2,6.6
		c-13.5,0-22.3-8.7-22.3-20.7c0-12,8.8-20.6,20.8-20.6c11.8,0,20.4,8.2,20.4,20.8C716.4,113.2,716.3,114.3,716.2,115.2z
		 M684.5,108.9h22.9c-0.8-5.8-5.2-9.8-11.4-9.8C689.9,99.1,685.4,103,684.5,108.9z"/>
	<path class="st0" d="M792.8,109.2v23.1h-9.4v-21.9c0-7.2-3.3-10.6-9.1-10.6c-6.2,0-10.5,4.1-10.5,12.1v20.5h-9.4v-21.9
		c0-7.2-3.3-10.6-9.1-10.6c-6.3,0-10.5,4.1-10.5,12.1v20.5h-9.4V92h9v5.1c3-3.6,7.7-5.6,13.2-5.6c5.9,0,10.8,2.2,13.6,6.7
		c3.2-4.2,8.7-6.7,15.1-6.7C786,91.6,792.8,97.1,792.8,109.2z"/>
</g>
<g>
	<path class="st0" d="M841.9,92L823,135.6c-3.7,9.1-8.8,11.9-15.5,11.9c-4,0-8.2-1.4-10.8-3.7l3.8-6.9c1.8,1.7,4.4,2.8,6.9,2.8
		c3.3,0,5.3-1.6,7.1-5.6l0.7-1.6L797.6,92h9.8l12.7,29.8L832.8,92H841.9z"/>
</g>
<g>
	<path class="st0" d="M243.6,195.3c0-12.1,9.1-20.6,21.4-20.6c12.5,0,21.5,8.5,21.5,20.6c0,12.1-9,20.7-21.5,20.7
		C252.7,216,243.6,207.3,243.6,195.3z M277,195.3c0-7.7-5.1-12.6-12-12.6c-6.8,0-11.9,4.9-11.9,12.6c0,7.7,5.1,12.6,11.9,12.6
		C271.9,207.9,277,203,277,195.3z"/>
	<path class="st0" d="M306,173v2.4h11.1v7.5h-10.8v32.5h-9.4V183h-6.6v-7.5h6.6v-2.6c0-8.5,5.1-14,14.4-14c3.2,0,6.4,0.7,8.5,2.2
		l-2.6,7.1c-1.4-1-3.2-1.7-5.2-1.7C308.1,166.5,306,168.7,306,173z"/>
	<path class="st0" d="M384.8,207.2v8.2h-39.6v-52.8h38.6v8.2H355v13.7h25.5v8.1H355v14.6H384.8z"/>
	<path class="st0" d="M434.6,192.3v23.1h-9.4v-21.9c0-7.2-3.5-10.6-9.6-10.6c-6.7,0-11.2,4.1-11.2,12.2v20.4h-9.4v-40.3h9v5.2
		c3.1-3.7,8-5.7,13.9-5.7C427.4,174.7,434.6,180.2,434.6,192.3z"/>
	<path class="st0" d="M486.6,175.1v34.2c0,14.6-7.6,21.3-21.7,21.3c-7.5,0-15-2-19.6-5.7l4.2-7.1c3.5,2.9,9.3,4.8,14.9,4.8
		c8.9,0,12.8-4.1,12.8-12.2v-2.1c-3.3,3.6-8.1,5.4-13.5,5.4c-11.5,0-20.4-7.8-20.4-19.5c0-11.7,8.8-19.4,20.4-19.4
		c5.7,0,10.6,1.8,14,5.8v-5.4H486.6z M477.3,194.1c0-6.8-5.1-11.4-12.2-11.4c-7.2,0-12.3,4.6-12.3,11.4c0,6.9,5.1,11.5,12.3,11.5
		C472.1,205.6,477.3,200.9,477.3,194.1z"/>
	<path class="st0" d="M497.7,162.8c0-3.2,2.6-5.7,6-5.7s6,2.3,6,5.4c0,3.3-2.5,5.9-6,5.9C500.2,168.5,497.7,166,497.7,162.8z
		 M498.9,175.1h9.4v40.3h-9.4V175.1z"/>
	<path class="st0" d="M560.4,192.3v23.1H551v-21.9c0-7.2-3.5-10.6-9.6-10.6c-6.7,0-11.2,4.1-11.2,12.2v20.4h-9.4v-40.3h9v5.2
		c3.1-3.7,8-5.7,13.9-5.7C553.3,174.7,560.4,180.2,560.4,192.3z"/>
	<path class="st0" d="M610.2,198.3h-31.6c1.1,5.9,6,9.7,13.1,9.7c4.5,0,8.1-1.4,10.9-4.4l5.1,5.8c-3.6,4.3-9.3,6.6-16.2,6.6
		c-13.5,0-22.3-8.7-22.3-20.7c0-12,8.8-20.6,20.8-20.6c11.8,0,20.4,8.2,20.4,20.8C610.3,196.3,610.3,197.4,610.2,198.3z M578.5,192
		h22.9c-0.8-5.8-5.2-9.8-11.4-9.8C583.8,182.2,579.4,186.1,578.5,192z"/>
	<path class="st0" d="M657.1,198.3h-31.6c1.1,5.9,6,9.7,13.1,9.7c4.5,0,8.1-1.4,10.9-4.4l5.1,5.8c-3.6,4.3-9.3,6.6-16.2,6.6
		c-13.5,0-22.3-8.7-22.3-20.7c0-12,8.8-20.6,20.8-20.6c11.8,0,20.4,8.2,20.4,20.8C657.3,196.3,657.2,197.4,657.1,198.3z M625.4,192
		h22.9c-0.8-5.8-5.2-9.8-11.4-9.8C630.8,182.2,626.3,186.1,625.4,192z"/>
	<path class="st0" d="M689.7,174.7v9c-0.8-0.2-1.5-0.2-2.2-0.2c-7.2,0-11.7,4.2-11.7,12.5v19.5h-9.4v-40.3h9v5.9
		C678,176.8,682.9,174.7,689.7,174.7z"/>
	<path class="st0" d="M696.7,162.8c0-3.2,2.6-5.7,6-5.7s6,2.3,6,5.4c0,3.3-2.5,5.9-6,5.9C699.3,168.5,696.7,166,696.7,162.8z
		 M698,175.1h9.4v40.3H698V175.1z"/>
	<path class="st0" d="M759.5,192.3v23.1h-9.4v-21.9c0-7.2-3.5-10.6-9.6-10.6c-6.7,0-11.2,4.1-11.2,12.2v20.4h-9.4v-40.3h9v5.2
		c3.1-3.7,8-5.7,13.9-5.7C752.4,174.7,759.5,180.2,759.5,192.3z"/>
</g>
<g>
	<path class="st0" d="M812.3,175.1v34.2c0,14.6-7.6,21.3-21.7,21.3c-7.5,0-15-2-19.6-5.7l4.2-7.1c3.5,2.9,9.3,4.8,14.9,4.8
		c8.9,0,12.8-4.1,12.8-12.2v-2.1c-3.3,3.6-8.1,5.4-13.5,5.4c-11.5,0-20.4-7.8-20.4-19.5c0-11.7,8.8-19.4,20.4-19.4
		c5.7,0,10.6,1.8,14,5.8v-5.4H812.3z M803,194.1c0-6.8-5.1-11.4-12.2-11.4c-7.2,0-12.3,4.6-12.3,11.4c0,6.9,5.1,11.5,12.3,11.5
		C797.9,205.6,803,200.9,803,194.1z"/>
</g>
</svg>
