<?xml version="1.0" standalone="no"?>
<!DOCTYPE svg PUBLIC "-//W3C//DTD SVG 20010904//EN"
 "http://www.w3.org/TR/2001/REC-SVG-20010904/DTD/svg10.dtd">
<svg version="1.0" xmlns="http://www.w3.org/2000/svg"
 width="400.000000pt" height="400.000000pt" viewBox="0 0 400.000000 400.000000"
 preserveAspectRatio="xMidYMid meet">

<g transform="translate(0.000000,400.000000) scale(0.100000,-0.100000)"
fill="#000000" stroke="none">
<path d="M1851 3889 c-13 -5 -32 -20 -42 -33 -13 -16 -33 -25 -67 -30 -58 -7
-60 -9 -55 -40 4 -19 11 -23 46 -23 23 0 61 -9 84 -21 57 -30 86 -73 91 -140
5 -54 5 -54 -18 -42 -14 8 -40 10 -67 6 -46 -6 -119 -39 -125 -55 -7 -22 -53
15 -66 54 -19 54 -31 203 -17 209 19 8 -19 26 -56 26 -36 0 -390 -140 -417
-164 -18 -17 -4 -46 21 -46 18 0 16 -5 -17 -39 -42 -43 -43 -66 -1 -77 30 -8
31 -15 4 -40 -39 -35 -43 -53 -18 -80 27 -29 25 -34 -66 -157 -36 -49 -65 -95
-65 -102 0 -22 30 -45 58 -45 39 0 62 19 137 116 37 47 69 84 71 81 2 -2 -6
-31 -18 -64 -21 -58 -21 -61 -5 -87 10 -14 26 -26 36 -26 23 0 65 48 93 106
11 24 27 49 36 56 14 12 15 9 8 -22 -20 -93 -20 -103 -1 -116 40 -30 64 -14
79 51 7 29 7 29 -8 10 -15 -20 -15 -20 -16 1 0 26 19 50 45 58 17 5 23 0 33
-28 16 -43 49 -57 69 -30 8 11 12 27 10 36 -3 10 1 22 7 28 10 7 16 3 25 -16
17 -38 34 -25 50 39 7 31 17 57 21 57 5 0 16 -23 25 -51 10 -28 27 -61 38 -72
16 -16 18 -23 8 -36 -40 -56 -54 -203 -27 -275 l17 -45 -41 -41 c-43 -43 -42
-42 -107 -27 -6 2 -37 25 -69 52 -32 28 -87 69 -123 93 -36 24 -68 47 -71 51
-21 33 -163 71 -266 71 -145 0 -251 -35 -389 -131 -157 -108 -268 -256 -296
-396 -12 -58 -11 -67 8 -113 l22 -51 -22 7 c-12 3 -29 13 -38 21 -11 9 -33 13
-60 11 -64 -4 -70 -22 -63 -193 3 -77 9 -287 13 -467 l8 -328 27 -39 c54 -78
539 -591 579 -612 9 -5 17 -18 17 -28 0 -16 -12 -19 -102 -24 -130 -8 -202
-29 -245 -72 -30 -30 -33 -38 -33 -97 1 -104 61 -202 181 -292 108 -81 173
-109 254 -110 67 -1 76 2 210 67 77 37 149 73 159 79 23 12 158 46 236 58 30
5 100 17 155 26 196 33 557 21 700 -23 191 -58 206 -64 350 -133 91 -44 197
-80 238 -80 74 0 324 205 377 310 34 67 32 131 -6 171 -52 56 -209 109 -322
109 -36 0 -52 4 -56 16 -11 28 -6 44 13 44 44 0 519 537 562 635 31 70 39 185
39 572 l1 378 -26 23 c-30 25 -72 29 -101 7 -29 -22 -34 -18 -34 23 0 41 -26
153 -38 162 -4 3 -8 12 -10 20 -9 44 -51 104 -126 183 -46 49 -88 89 -93 90
-4 1 -18 13 -30 28 -34 40 -177 107 -267 125 -125 25 -230 16 -341 -30 -144
-60 -274 -141 -305 -192 -11 -18 -33 -37 -49 -42 -25 -9 -32 -7 -55 17 -14 15
-26 36 -25 47 0 10 3 13 6 6 8 -21 23 -2 24 31 1 66 8 71 95 73 55 2 102 10
154 29 41 14 86 29 100 32 14 3 32 11 40 18 8 7 26 16 39 20 12 4 19 11 15 15
-10 10 -247 105 -314 126 -25 7 -56 14 -69 14 -21 0 -23 3 -17 32 9 47 20 53
54 28 20 -15 38 -21 53 -17 17 5 33 -4 66 -34 33 -30 51 -39 71 -37 21 2 26 8
25 26 -4 32 7 28 48 -20 34 -40 40 -43 90 -44 33 0 72 -9 99 -22 48 -23 124
-29 135 -11 4 5 -10 27 -32 48 -33 32 -62 64 -164 181 -19 22 -49 80 -49 95 0
11 31 4 78 -20 56 -28 62 -29 62 -15 0 6 -20 23 -45 38 -45 27 -60 46 -49 63
7 12 55 11 74 0 31 -21 29 3 -5 40 -19 21 -35 46 -35 54 0 21 24 29 49 15 41
-21 21 10 -44 72 -75 71 -104 92 -112 84 -7 -7 -59 20 -69 35 -4 8 1 8 17 -1
l24 -11 -24 21 c-13 11 -30 19 -36 16 -16 -6 -40 10 -40 26 0 7 -25 26 -55 41
-46 24 -64 28 -109 24 -46 -3 -59 -9 -83 -36 -23 -26 -28 -40 -28 -84 0 -30 5
-79 11 -110 14 -70 5 -127 -22 -134 -10 -3 -19 -9 -19 -13 0 -5 -9 -6 -20 -3
-50 13 -85 121 -81 254 2 68 -1 88 -14 99 -12 10 -13 15 -3 21 19 12 -54 39
-104 38 -24 0 -54 -5 -67 -10z m44 -349 c8 -13 -5 -13 -25 0 -13 8 -13 10 2
10 9 0 20 -4 23 -10z m-188 -232 c-3 -7 -5 -2 -5 12 0 14 2 19 5 13 2 -7 2
-19 0 -25z m-77 -50 c0 -7 -5 -20 -10 -28 -8 -11 -9 -9 -8 13 2 26 18 40 18
15z m-260 -48 c0 -6 -9 -20 -20 -32 -17 -19 -20 -19 -20 -5 0 9 5 17 10 17 6
0 10 7 10 15 0 8 5 15 10 15 6 0 10 -5 10 -10z m-96 -261 c115 -31 188 -82
434 -304 96 -87 176 -155 194 -166 12 -8 16 -65 4 -76 -10 -10 -94 -12 -151
-3 -27 4 -72 11 -100 15 -94 12 -129 47 -142 141 -6 52 -26 85 -83 141 -81 79
-205 119 -333 109 -68 -6 -87 -12 -144 -46 -36 -22 -68 -40 -72 -40 -4 0 -32
-26 -63 -57 -64 -67 -115 -158 -123 -223 -3 -25 -8 -60 -11 -78 -7 -38 10
-108 42 -172 29 -57 117 -144 169 -166 115 -48 192 -54 310 -24 135 35 157 28
283 -78 72 -60 69 -81 -13 -98 -171 -35 -350 -27 -510 23 -141 44 -223 90
-300 168 -83 82 -118 146 -140 253 -29 136 9 300 97 420 49 67 135 147 186
173 15 7 56 32 92 54 95 59 233 71 374 34z m1579 0 c115 -18 268 -100 376
-203 131 -125 191 -254 197 -421 3 -85 0 -110 -20 -166 -53 -150 -158 -242
-378 -330 -76 -30 -323 -52 -438 -39 -93 10 -140 25 -147 45 -7 22 141 155
185 167 17 5 53 0 97 -12 143 -40 239 -36 353 16 164 75 228 266 155 463 -23
61 -40 86 -103 150 -61 63 -93 87 -170 125 l-95 48 -95 -5 c-140 -8 -219 -39
-291 -115 -54 -57 -56 -62 -62 -125 -10 -109 -29 -131 -122 -142 -11 -2 -55
-10 -97 -19 -130 -27 -188 -17 -188 32 0 18 4 23 107 119 248 233 358 329 401
352 32 17 161 59 197 64 55 7 66 7 138 -4z m-844 -76 c5 -21 11 -54 14 -73 5
-33 3 -36 -28 -46 -55 -17 -95 15 -95 75 0 27 3 32 12 23 16 -16 28 -15 28 2
0 12 44 56 56 56 2 0 7 -17 13 -37z m-755 -157 c96 -29 152 -94 186 -218 22
-81 32 -92 125 -138 74 -37 278 -84 314 -73 15 4 100 8 191 8 194 1 288 19
337 64 26 23 32 38 38 92 13 113 86 214 177 241 70 21 214 16 271 -9 70 -32
160 -106 195 -160 55 -86 66 -121 66 -218 0 -138 -46 -223 -144 -268 -67 -30
-222 -29 -305 3 -33 12 -66 27 -72 32 -7 6 -23 8 -35 5 -24 -6 -235 -149 -276
-186 -30 -28 -19 -49 58 -105 81 -60 131 -70 296 -62 73 4 134 3 137 -1 3 -5
-8 -73 -24 -153 -23 -116 -38 -163 -74 -235 -42 -85 -57 -126 -85 -232 -8 -31
-16 -43 -29 -43 -17 0 -19 12 -23 128 -4 116 -8 135 -40 217 -65 166 -193 351
-255 369 -12 4 -38 0 -58 -8 -44 -19 -59 -51 -80 -172 -28 -164 -21 -192 73
-268 103 -82 122 -158 70 -279 -37 -85 -145 -152 -194 -119 -8 5 -11 81 -11
238 0 134 -5 239 -11 250 -11 21 -7 113 8 187 6 26 7 85 4 131 -7 82 -6 83 20
102 62 43 90 70 127 121 22 29 50 60 63 68 23 15 96 36 167 49 20 4 45 16 55
28 31 34 158 125 200 143 21 9 55 31 74 49 25 25 59 41 123 60 71 22 87 30 87
47 0 12 -10 23 -27 30 -53 20 -93 58 -93 88 0 55 -44 47 -150 -29 -30 -22
-106 -65 -168 -96 -78 -39 -121 -67 -141 -93 -28 -34 -72 -54 -206 -89 -32 -8
-91 -48 -150 -102 -62 -56 -107 -66 -140 -30 -10 11 -27 22 -38 26 -23 7 -54
34 -40 34 15 1 -48 32 -106 51 -108 38 -250 102 -256 117 -5 13 -3 13 11 1 16
-13 16 -12 6 8 -15 27 -69 61 -113 70 -39 8 -145 69 -153 88 -2 7 -31 23 -63
34 -32 12 -72 29 -90 38 -30 16 -33 16 -51 0 -10 -9 -23 -17 -29 -17 -19 0
-55 -49 -55 -75 0 -38 34 -69 113 -100 43 -17 95 -48 132 -79 85 -71 115 -91
162 -106 47 -15 100 -47 148 -90 19 -17 64 -44 100 -60 53 -24 70 -38 94 -77
17 -26 46 -67 65 -90 39 -47 52 -89 69 -228 22 -175 22 -229 1 -307 -11 -40
-25 -131 -32 -203 -18 -207 -14 -200 -95 -165 -62 27 -148 123 -128 144 4 3 2
6 -4 6 -19 0 -4 92 25 150 32 64 86 111 139 119 38 6 38 7 41 58 4 66 -42 274
-63 286 -8 4 -15 17 -15 27 0 28 -36 34 -93 16 -72 -22 -122 -61 -171 -135
-56 -86 -56 -85 -105 -227 l-41 -122 20 -63 c22 -72 26 -113 8 -107 -30 10
-191 326 -210 413 -48 218 -48 243 4 212 17 -10 65 -13 188 -12 l165 1 63 33
c82 44 151 121 109 121 -19 0 -59 45 -50 55 5 4 2 5 -5 1 -15 -9 -55 22 -46
35 3 5 -2 6 -10 3 -11 -4 -16 0 -16 11 0 9 -4 13 -10 10 -5 -3 -10 -1 -10 5 0
6 -4 8 -10 5 -5 -3 -10 -1 -10 4 0 6 -6 11 -13 11 -7 0 -20 8 -29 18 -71 73
-93 80 -160 54 -148 -59 -240 -64 -336 -21 -26 11 -55 22 -64 24 -57 12 -153
144 -146 200 1 11 -2 26 -6 34 -6 10 -5 12 2 7 9 -5 12 8 12 45 0 39 9 70 34
123 58 119 103 157 241 204 101 35 175 40 249 18z m778 -82 c4 -3 -8 -28 -24
-55 -27 -43 -34 -48 -57 -43 -30 7 -101 53 -101 65 0 5 -7 9 -15 9 -8 0 -15 7
-15 15 0 12 18 15 103 15 57 0 106 -3 109 -6z m-922 -124 c0 -5 -4 -10 -9 -10
-6 0 -13 5 -16 10 -3 6 1 10 9 10 9 0 16 -4 16 -10z m47 -16 c-3 -3 -12 -4
-19 -1 -8 3 -5 6 6 6 11 1 17 -2 13 -5z m1165 -806 c49 -41 155 -205 199 -309
28 -68 31 -83 30 -180 -1 -83 -6 -120 -24 -169 -12 -35 -28 -65 -35 -68 -8 -2
-4 13 10 40 20 37 23 58 23 154 0 69 -5 120 -12 135 -7 13 -19 40 -26 59 -23
64 -114 234 -140 263 -34 36 -50 35 -45 -3 4 -24 1 -30 -14 -30 -24 0 -23 -22
3 -46 l20 -18 -22 -8 -22 -8 23 -25 c20 -21 21 -25 7 -25 -26 0 -20 -14 15
-35 48 -28 77 -63 108 -130 37 -80 43 -124 29 -195 -10 -52 -20 -69 -72 -125
-33 -36 -77 -75 -99 -86 -46 -23 -49 -52 -6 -57 31 -4 113 46 162 97 37 38 53
41 23 4 -75 -91 -140 -131 -297 -178 -135 -42 -212 -43 -354 -6 -66 17 -149
46 -185 63 -83 40 -169 121 -207 195 -25 50 -29 72 -32 153 -4 108 22 235 60
300 13 21 39 64 58 96 44 75 113 147 136 142 40 -8 74 -99 74 -202 0 -45 -15
-64 -108 -135 -112 -86 -116 -236 -11 -355 88 -98 222 -149 394 -148 157 0
284 49 357 137 118 144 97 265 -72 422 l-45 42 0 78 c1 127 46 202 97 161z
m-795 -928 c12 -15 36 -33 53 -40 38 -16 34 -31 -9 -42 -17 -5 -29 -13 -26
-18 9 -15 -19 -22 -46 -11 -17 6 -29 22 -37 49 -13 44 -16 85 -5 95 12 12 47
-4 70 -33z m911 -22 c8 -30 8 -44 0 -49 -6 -4 -7 -12 -4 -18 8 -12 -16 -16
-74 -11 -52 3 -70 16 -70 50 0 27 3 29 28 24 19 -3 35 2 57 20 41 35 51 32 63
-16z"/>
<path d="M1060 2907 c-38 -19 -32 -43 10 -39 147 11 162 9 255 -37 132 -63
200 -137 228 -244 20 -77 40 -107 67 -100 12 3 29 -2 39 -12 11 -9 28 -15 39
-13 10 2 26 -3 35 -11 16 -12 127 -26 127 -15 0 13 -31 64 -39 64 -5 0 -62 50
-127 111 -139 130 -222 194 -284 222 -25 11 -52 25 -60 32 -53 43 -235 70
-290 42z"/>
<path d="M2675 2896 c-16 -7 -45 -16 -63 -19 -30 -6 -97 -49 -212 -136 -69
-52 -300 -287 -300 -305 0 -19 21 -21 38 -4 8 8 18 9 36 0 18 -8 28 -7 45 5
12 8 28 12 36 9 7 -2 25 4 40 16 14 11 32 18 39 15 26 -10 43 18 55 91 7 40
18 78 25 85 7 6 26 30 42 53 87 120 235 185 366 162 33 -6 61 -8 64 -6 10 10
-8 36 -29 42 -39 10 -151 6 -182 -8z"/>
<path d="M1602 1638 c-5 -7 -28 -51 -50 -98 -22 -47 -50 -95 -62 -108 -37 -39
-82 -152 -90 -222 -13 -124 28 -213 146 -317 81 -72 103 -84 126 -72 29 16 21
35 -33 75 -96 70 -148 157 -164 274 -14 98 54 202 163 250 42 19 57 50 25 50
-17 1 -17 1 0 14 22 17 22 33 -2 41 -18 5 -18 8 -5 33 12 24 12 28 -2 39 -8 6
-14 19 -12 29 4 22 -24 30 -40 12z"/>
<path d="M2062 3794 c-1 -12 -5 -37 -8 -55 -4 -28 -3 -31 6 -16 6 9 9 34 7 55
-2 20 -4 27 -5 16z"/>
<path d="M2450 3796 c0 -2 7 -7 16 -10 8 -3 12 -2 9 4 -6 10 -25 14 -25 6z"/>
<path d="M1631 3734 c0 -11 3 -14 6 -6 3 7 2 16 -1 19 -3 4 -6 -2 -5 -13z"/>
</g>
</svg>
