<?xml version="1.0" encoding="iso-8859-1"?>
<!-- Generator: Adobe Illustrator 19.0.0, SVG Export Plug-In . SVG Version: 6.00 Build 0)  -->
<svg version="1.1" id="Capa_1" xmlns="http://www.w3.org/2000/svg" xmlns:xlink="http://www.w3.org/1999/xlink" x="0px" y="0px"
	 viewBox="0 0 480 480" style="enable-background:new 0 0 480 480;" xml:space="preserve">
<g>
	<g>
		<path d="M240,0C107.452,0,0,107.452,0,240s107.452,240,240,240s240-107.452,240-240C479.85,107.514,372.486,0.15,240,0z
			 M353.023,82.977c2.125-10.902,4.267-22.053,5.61-32.854c42.724,26.77,75.225,67.105,92.298,114.544h0
			c-49.148,10.432-81.035,9.021-94.79-4.269C340.796,145.563,346.734,115.164,353.023,82.977z M326.821,33.517
			c5.663,2.39,11.181,5.051,16.597,7.883c-1.363,12.933-3.398,25.785-6.098,38.506c-6.828,34.969-13.89,71.125,7.703,92
			c10.852,10.492,27.555,15.711,51.109,15.711c20.085-0.507,40.063-3.086,59.618-7.696c1.349,4.836,2.592,9.716,3.617,14.677
			c-71.281,15.374-117.565,13.26-137.47-6.388c-21.922-21.648-12.648-65-3.68-106.922C321.653,65.243,325.084,48.821,326.821,33.517
			z M311.3,27.702c-1.928,16.901-4.843,33.675-8.73,50.235c-9.867,46.141-20.07,93.844,8.086,121.656
			c14.43,14.242,37,21.328,69.086,21.328c27.703-0.659,55.264-4.179,82.244-10.504c0.698,5.265,1.235,10.578,1.56,15.95
			c-119.493,40.091-192.206,47.998-215.952,23.406c-22.727-23.547-1.648-79.086,18.734-132.805
			c12.343-32.52,24.982-65.993,28.57-94.14C300.458,24.235,305.914,25.889,311.3,27.702z M240,464
			C116.309,464.021,16.02,363.765,16,240.074C15.985,147.738,72.638,64.857,158.678,31.345
			c-5.38,37.253-28.468,83.103-50.936,127.623C71.492,230.828,34,305.133,68.438,350.391
			c20.211,26.555,63.367,39.805,132.156,39.797c57.281,0,132.376-9.211,226.709-27.543C385.956,425.854,315.532,463.963,240,464z
			 M438.198,344.202c-206.971,41.358-323.766,40.227-357.026-3.506c-28.375-37.289,6.82-107.055,40.859-174.523
			c24.595-48.743,49.93-99.059,53.405-140.646c11.575-3.48,23.414-6.01,35.4-7.565c6.12,29.27-23.198,78.722-51.618,126.649
			c-38.742,65.336-78.805,132.898-48.758,175.305c17.359,24.5,56.5,36.719,119.844,36.719c53.667,0,124.74-8.794,214.606-26.303
			C442.826,335.041,440.588,339.664,438.198,344.202z M451.835,312.666c-190.088,37.806-300.572,37.146-328.32-2.002
			c-24.047-33.93,13.328-96.953,49.469-157.891c30.743-51.852,59.816-101.037,53.712-136.345C231.102,16.169,235.53,16,240,16
			c2.542,0,5.059,0.108,7.582,0.192c-3.159,34.073-24.82,78.056-45.847,120.698c-32.297,65.508-62.797,127.375-33.492,162.445
			c13.656,16.352,38.766,24.578,77.141,24.578c48.757,0,119.001-13.332,214.292-40.136
			C457.715,293.573,455.096,303.224,451.835,312.666z M180.523,289.078c-22.633-27.078,6.953-87.086,35.563-145.109
			c21.722-44.06,44.088-89.488,47.45-126.725c5.266,0.553,10.459,1.339,15.612,2.252c-3.062,26.434-15.551,59.579-27.78,91.802
			c-23.172,61.063-45.063,118.742-15.281,149.586c12.078,12.508,31.805,18.797,59.953,18.797c39.067,0,94.392-12.143,167.881-36.543
			c-0.107,7.766-0.616,15.522-1.525,23.235C301.171,312.22,206.272,319.905,180.523,289.078z"/>
	</g>
</g>
<g>
</g>
<g>
</g>
<g>
</g>
<g>
</g>
<g>
</g>
<g>
</g>
<g>
</g>
<g>
</g>
<g>
</g>
<g>
</g>
<g>
</g>
<g>
</g>
<g>
</g>
<g>
</g>
<g>
</g>
</svg>
