<?xml version="1.0"?>
<svg xmlns="http://www.w3.org/2000/svg" viewBox="0 0 64 64" width="512" height="512"><circle cx="32" cy="32" fill="#eeeeed" r="29"/><path d="m17.29 42.41639a6.27466 6.27466 0 0 1 -1.8-4.64c0-9.19 13.97-24.03 13.97-32.26a5.45813 5.45813 0 0 0 -.39-2.13 28.39476 28.39476 0 0 0 -6.09 1.27c-.35 10.31-13.14 25.88-13.14 35.83a7.65586 7.65586 0 0 0 2 5.5c4.42 4.71 16.97 5.87006 45.16.23l2-4c-26.02 5.2-37.65 4.26994-41.71.2z" fill="#5eb8ab"/><path d="m32 3a29.33571 29.33571 0 0 0 -2.9444.14813c5.52698 13.16327-49.76086 54.79309 29.9444 38.85187h.22906a29.01792 29.01792 0 0 0 -27.22906-39z" fill="#db735c"/><path d="m60.70831 36.00616a28.97232 28.97232 0 0 0 -26.711-33.00616c-.11584 16.70624-38.7738 51.78571 26.711 33.00616z" fill="#d3ac5c"/><path d="m37.27891 3.53627v.37494c0 14.12842-26.99018 43.98932 22.97491 27.00836a29.00392 29.00392 0 0 0 -22.97491-27.3833z" fill="#60a867"/><path d="m41.6911 4.66486c-.48962 11.03686-12.46631 29.49139 18.37427 22.33514l.48382-.06976a29.03223 29.03223 0 0 0 -18.85809-22.26538z" fill="#5eb8ab"/><path d="m59.36 23.73c-7.99 1.84-12.02 1.28-13.9-.61a5.91 5.91 0 0 1 -1.46-4.38c0-3.53 1.49-8.01 1.67-11.74a29.05229 29.05229 0 0 1 13.69 16.73z" fill="#eeeeed"/><path d="m32 2a30 30 0 1 0 30 30 30.03406 30.03406 0 0 0 -30-30zm26.36633 20.58344c-6.14349 1.304-10.12933 1.12762-11.84875-.53364-1.918-1.85449-1.17578-5.65429-.38965-9.67773.26562-1.36279.53339-2.75659.70123-4.10669a28.14222 28.14222 0 0 1 11.53717 14.31806zm1.43305 12.71307c-20.153 5.731-32.01544 6.69159-35.23395 2.83826-2.8291-3.38477.86914-10.88575 4.44531-18.13868 2.71521-5.50744 5.511-11.186 5.93122-15.84069.65826.06909 1.30743.16741 1.95147.28149-.38275 3.30426-1.94391 7.44733-3.47253 11.47522-2.89649 7.63281-5.63281 14.84277-1.91016 18.69824 1.50977 1.56348 3.97559 2.34965 7.49414 2.34965 4.88336 0 11.79895-1.51788 20.98517-4.56787a28.12584 28.12584 0 0 1 -.19067 2.90438zm.14386-5.00055c-14.93659 5.01135-24.0257 5.99976-26.994 2.92572-2.84082-2.94336-.20606-9.88574 2.3418-16.60059 1.5429-4.065 3.1228-8.24908 3.57122-11.76745.69489.17572 1.377.38244 2.05024.60913a54.53714 54.53714 0 0 1 -1.09119 6.27942c-1.2334 5.76758-2.5088 11.73047 1.01074 15.207 1.80371 1.78027 4.625 2.666 8.63574 2.666a50.27991 50.27991 0 0 0 10.28052-1.313c.08726.65808.1544 1.32226.19493 1.99381zm-17.70594-4.76959c-2.74023-2.70606-1.581-8.125-.46-13.36524.42926-2.00567.85816-4.05847 1.07532-5.97149.70789.29876 1.39765.63134 2.07459.98535a46.81194 46.81194 0 0 1 -.76221 4.81329c-.85352 4.3711-1.73633 8.89063.96289 11.5 1.35645 1.31152 3.44434 1.96387 6.38867 1.96387a36.48451 36.48451 0 0 0 7.45227-.962c.16858.60456.324 1.21448.45215 1.83466-8.91012 1.92171-14.69564 1.65749-17.18368-.79844zm-9.28961-21.50232c-.39489 4.25909-3.10254 9.757-5.73089 15.08728-4.03711 8.18847-7.84961 15.92187-4.18653 20.30567 1.707 2.044 4.84571 3.07227 9.64258 3.07227 6.09461 0 14.87518-1.66645 26.78656-5.017a27.72913 27.72913 0 0 1 -.98 3.611c-23.76097 4.72581-37.57151 4.64329-41.03996-.25027-3.00586-4.24121 1.666-12.11914 6.1836-19.73633 3.84289-6.48144 7.47695-12.62967 6.71395-17.04308.5507-.03241 1.10428-.05359 1.663-.05359.31781 0 .63239.01349.94769.02405zm23.82709 41.00116c-25.87134 5.1698-40.4707 5.02838-44.6283-.4383-3.54687-4.66113.85254-13.38183 5.10743-21.81543 3.0744-6.09283 6.24127-12.38232 6.67559-17.58081a27.78783 27.78783 0 0 1 4.425-.94561c.765 3.65869-2.89972 9.84021-6.45221 15.83111-4.84277 8.167-9.85058 16.61231-6.09472 21.91309 2.16992 3.0625 7.0625 4.58984 14.98047 4.58984 6.70831 0 15.59246-1.09924 26.82574-3.28784q-.39088.88322-.839 1.73395zm-24.77478 14.97479a27.99538 27.99538 0 0 1 -10.16522-54.08185c-.67249 4.65662-3.55853 10.38788-6.367 15.95294-4.53126 8.98243-9.21778 18.27051-4.91309 23.92774 2.52636 3.31933 7.9209 4.97558 16.51953 4.97461 7.16009 0 16.54706-1.15143 28.33868-3.44293a27.99315 27.99315 0 0 1 -23.4129 12.66949z"/></svg>
