<svg width="288" height="141" viewBox="0 0 288 141" fill="none" xmlns="http://www.w3.org/2000/svg">
<path d="M3.145 5.19C1.845 5.19 0.805 6.23 0.805 7.53V46.66C0.805 47.96 1.845 49 3.145 49H4.965C6.2 49 7.305 47.96 7.305 46.66V30.28H14.585C15.885 30.28 16.925 29.24 16.925 27.94V26.185C16.925 24.885 15.885 23.845 14.585 23.845H7.305V11.625H17.185C18.485 11.625 19.525 10.585 19.525 9.285V7.53C19.525 6.23 18.485 5.19 17.185 5.19H3.145ZM29.9509 7.53C29.9509 6.23 28.8459 5.19 27.6109 5.19H25.7909C24.4909 5.19 23.4509 6.23 23.4509 7.53V46.66C23.4509 47.96 24.4909 49 25.7909 49H27.6109C28.8459 49 29.9509 47.96 29.9509 46.66V7.53ZM36 5.19C34.7 5.19 33.66 6.23 33.66 7.53V46.66C33.66 47.96 34.7 49 36 49H50.04C51.34 49 52.38 47.96 52.38 46.66V44.905C52.38 43.605 51.34 42.565 50.04 42.565H40.095V30.28H48.285C49.585 30.28 50.625 29.24 50.625 27.94V26.185C50.625 24.885 49.585 23.845 48.285 23.845H40.095V11.625H50.04C51.34 11.625 52.38 10.585 52.38 9.285V7.53C52.38 6.23 51.34 5.19 50.04 5.19H36ZM74.06 44.905C74.06 43.605 73.02 42.565 71.72 42.565H62.035V7.53C62.035 6.23 60.995 5.19 59.76 5.19H57.875C56.575 5.19 55.535 6.23 55.535 7.53V46.66C55.535 47.96 56.575 49 57.875 49H71.72C73.02 49 74.06 47.96 74.06 46.66V44.905ZM86.2125 49C94.0125 49 97.6525 44.58 97.6525 36.13V18.06C97.6525 9.61 94.0125 5.19 86.2125 5.19H79.5825C78.2825 5.19 77.2425 6.23 77.2425 7.53V46.66C77.2425 47.96 78.2825 49 79.5825 49H86.2125ZM86.2125 11.625C89.6575 11.625 91.0875 13.705 91.0875 18.06V36.13C91.0875 40.485 89.6575 42.565 86.2125 42.565H83.6775V11.625H86.2125ZM122.336 36.22C122.336 44.32 118.736 49 111.116 49H102.296V46.9H111.116C114.176 46.9 116.456 46 118.076 44.14C119.516 42.34 120.236 39.7 120.236 36.22V17.62C120.236 10.66 117.296 6.94 111.116 6.94H102.296V4.78H111.116C114.896 4.78 117.776 5.98 119.696 8.38C121.436 10.48 122.336 13.6 122.336 17.62V36.22ZM102.296 8.32H104.396V45.46H102.296V8.32ZM105.836 45.46V8.32H111.116C113.816 8.32 115.796 9.1 116.936 10.6C118.196 12.1 118.796 14.44 118.796 17.62V36.22C118.796 39.4 118.196 41.74 116.936 43.24C115.736 44.74 113.816 45.46 111.116 45.46H105.836ZM107.936 10.48V43.36H111.116C112.556 43.36 113.936 43.24 114.956 42.28C115.916 41.32 116.636 39.52 116.636 36.22V17.62C116.636 14.32 115.916 12.52 114.956 11.56C113.936 10.6 112.556 10.48 111.116 10.48H107.936ZM128.492 6.94V46.9H144.692V49H126.392V4.78H144.692V6.94H128.492ZM129.932 8.32H144.692V10.48H132.032V24.04H144.692V26.2H129.932V8.32ZM129.932 27.58H144.692V29.74H132.032V43.36H144.692V45.46H129.932V27.58ZM161.916 46.66H163.116L173.616 4.78H175.836L164.736 49H160.296L149.316 4.78H151.416L161.916 46.66ZM162.516 34.48L170.016 4.78H172.116L162.516 43.24L152.916 4.78H155.136L162.516 34.48ZM13.675 75.03C9.84 75.03 10.035 81.53 13.675 81.53H15.95V84.325C15.95 88.55 14.585 90.565 11.79 90.565C8.93 90.565 7.565 88.55 7.565 84.325C7.565 82.635 7.565 76.135 7.565 65.8C7.565 62.81 8.15 61.25 9.06 60.47C9.775 59.755 10.88 59.625 11.79 59.625C12.7 59.625 13.74 59.755 14.52 60.47C15.3 61.185 15.95 62.745 15.95 65.8V66.71C15.95 68.01 16.99 69.05 18.29 69.05H20.175C21.41 69.05 22.45 68.01 22.45 66.71V65.8C22.45 57.545 18.94 53.19 11.79 53.19C4.64 53.19 1.065 57.545 1.065 65.8V84.325C1.065 92.515 4.64 97 11.79 97C18.94 97 22.45 92.58 22.45 84.325V77.37C22.45 76.07 21.41 75.03 20.175 75.03H13.675ZM47.4973 83.74C47.4973 80.36 46.5873 77.695 44.7023 75.68C44.8973 75.485 45.0273 75.355 45.2223 75.16C47.2373 73.145 47.9523 69.895 47.9523 65.865C47.9523 57.155 45.1573 53.125 37.1623 53.125H28.9723C27.6723 53.125 26.6323 54.165 26.6323 55.465V94.595C26.6323 95.895 27.6723 96.935 28.9723 96.935H30.7923C32.0273 96.935 33.0673 95.895 33.0673 94.595V78.67H35.9923C39.1773 78.67 40.9973 80.49 40.9973 83.74V94.595C40.9973 95.895 42.0373 96.935 43.3373 96.935H45.1573C46.4573 96.935 47.4973 95.895 47.4973 94.595V83.74ZM33.0673 59.625H37.1623C40.5423 59.625 41.5173 61.445 41.5173 65.865C41.5173 70.285 39.6323 72.105 35.9923 72.105H33.0673V59.625ZM51.8158 84.26C51.8158 89.395 53.2458 92.385 55.2608 94.4C57.4058 96.48 60.1358 97 62.4758 97C64.8808 97 67.6108 96.48 69.7558 94.4C71.7708 92.385 73.1358 89.395 73.1358 84.26V65.865C73.1358 57.61 69.6258 53.19 62.4758 53.19C55.3908 53.19 51.8158 57.675 51.8158 65.865V84.26ZM58.3158 65.865C58.3158 61.64 59.6158 59.625 62.4758 59.625C65.2708 59.625 66.6358 61.51 66.6358 65.865V84.26C66.6358 88.68 65.2058 90.565 62.4758 90.565C59.6808 90.565 58.3158 88.55 58.3158 84.26V65.865ZM77.117 85.04C77.117 91.93 79.977 96.935 87.777 96.935C95.317 96.935 98.437 92.32 98.437 85.04V55.465C98.437 54.165 97.397 53.125 96.097 53.125H94.277C93.042 53.125 92.002 54.165 92.002 55.465V85.04C92.002 88.16 91.092 90.5 87.777 90.5C84.592 90.5 83.552 88.485 83.552 85.04V55.465C83.552 54.165 82.512 53.125 81.212 53.125H79.392C78.157 53.125 77.117 54.165 77.117 55.465V85.04ZM112.944 78.28C120.874 78.28 124.384 74.12 124.384 65.735C124.384 57.35 120.874 53.19 112.944 53.19H105.924C104.624 53.19 103.584 54.23 103.584 55.53V94.66C103.584 95.96 104.624 97 105.924 97H107.744C108.979 97 110.019 95.96 110.019 94.66V78.28H112.944ZM112.944 59.625C116.454 59.625 117.884 61.38 117.884 65.735C117.884 69.96 116.454 71.845 112.944 71.845H110.019V59.625H112.944Z" fill="white"/>
<path d="M12.84 130C13.64 130 14.28 129.36 14.28 128.56V104.48C14.28 103.68 13.64 103.04 12.84 103.04H11.72C10.92 103.04 10.28 103.68 10.28 104.48V117.68L4.72 103.92C4.56 103.48 3.92 103.04 3.4 103.04H2.44C1.68 103.04 1 103.68 1 104.48V128.56C1 129.36 1.68 130 2.44 130H3.6C4.36 130 5.04 129.36 5.04 128.56V115.36L10.6 129.12C10.76 129.56 11.44 130 11.92 130H12.84ZM20.8863 104.48C20.8863 103.68 20.2063 103.04 19.4463 103.04H18.3263C17.5263 103.04 16.8863 103.68 16.8863 104.48V128.56C16.8863 129.36 17.5263 130 18.3263 130H19.4463C20.2063 130 20.8863 129.36 20.8863 128.56V104.48ZM30.9688 116.48C28.6088 116.48 28.7288 120.48 30.9688 120.48H32.3688V122.2C32.3688 124.8 31.5288 126.04 29.8088 126.04C28.0488 126.04 27.2088 124.8 27.2088 122.2C27.2088 121.16 27.2088 117.16 27.2088 110.8C27.2088 108.96 27.5688 108 28.1288 107.52C28.5688 107.08 29.2488 107 29.8088 107C30.3688 107 31.0088 107.08 31.4888 107.52C31.9688 107.96 32.3688 108.92 32.3688 110.8V111.36C32.3688 112.16 33.0088 112.8 33.8088 112.8H34.9688C35.7288 112.8 36.3688 112.16 36.3688 111.36V110.8C36.3688 105.72 34.2088 103.04 29.8088 103.04C25.4088 103.04 23.2088 105.72 23.2088 110.8V122.2C23.2088 127.24 25.4088 130 29.8088 130C34.2088 130 36.3688 127.28 36.3688 122.2V117.92C36.3688 117.12 35.7288 116.48 34.9688 116.48H30.9688ZM40.3025 103.04C39.5025 103.04 38.8625 103.68 38.8625 104.48V128.56C38.8625 129.36 39.5025 130 40.3025 130H48.9425C49.7425 130 50.3825 129.36 50.3825 128.56V127.48C50.3825 126.68 49.7425 126.04 48.9425 126.04H42.8225V118.48H47.8625C48.6625 118.48 49.3025 117.84 49.3025 117.04V115.96C49.3025 115.16 48.6625 114.52 47.8625 114.52H42.8225V107H48.9425C49.7425 107 50.3825 106.36 50.3825 105.56V104.48C50.3825 103.68 49.7425 103.04 48.9425 103.04H40.3025ZM65.4841 121.84C65.4841 119.76 64.9241 118.12 63.7641 116.88C63.8841 116.76 63.9641 116.68 64.0841 116.56C65.3241 115.32 65.7641 113.32 65.7641 110.84C65.7641 105.48 64.0441 103 59.1241 103H54.0841C53.2841 103 52.6441 103.64 52.6441 104.44V128.52C52.6441 129.32 53.2841 129.96 54.0841 129.96H55.2041C55.9641 129.96 56.6041 129.32 56.6041 128.52V118.72H58.4041C60.3641 118.72 61.4841 119.84 61.4841 121.84V128.52C61.4841 129.32 62.1241 129.96 62.9241 129.96H64.0441C64.8441 129.96 65.4841 129.32 65.4841 128.52V121.84ZM56.6041 107H59.1241C61.2041 107 61.8041 108.12 61.8041 110.84C61.8041 113.56 60.6441 114.68 58.4041 114.68H56.6041V107ZM71.9816 104.48C71.9816 103.68 71.3016 103.04 70.5416 103.04H69.4216C68.6216 103.04 67.9816 103.68 67.9816 104.48V128.56C67.9816 129.36 68.6216 130 69.4216 130H70.5416C71.3016 130 71.9816 129.36 71.9816 128.56V104.48ZM85.1841 128.88C85.3441 129.48 85.9841 130 86.5841 130H87.7441C88.7041 130 89.3441 129.16 89.1441 128.24L83.6241 104.16C83.5041 103.56 82.8241 103.04 82.2241 103.04H81.3441C80.7441 103.04 80.1041 103.56 79.9441 104.16L76.3041 119.8L74.3841 128.28C74.1841 129.2 74.8241 130 75.7841 130H76.9441C77.5441 130 78.1841 129.48 78.3441 128.88L79.7441 122.64H83.8241L85.1841 128.88ZM81.7841 112.28C82.5441 115.68 82.4641 116.76 82.9041 118.68H80.6641L81.7841 112.28Z" fill="white"/>
<path d="M169.3 51.8774C165.7 53.2774 166.1 62.5774 170 72.7774C175.1 85.9774 179.8 91.5774 199.5 107.877C213.5 119.477 221 126.977 221 129.377C221 130.577 222.3 130.877 227.5 130.877C233.3 130.877 234 130.677 234 128.877C234 125.677 229 120.877 210.5 106.377C186.3 87.3774 178 77.9774 178 69.5774C178 67.7774 178.6 65.3774 179.4 64.3774C180.7 62.4774 181 62.4774 186.1 64.0774C189 65.0774 191.6 65.5774 191.8 65.3774C192.1 65.1774 190.4 62.4774 188.2 59.4774C185 55.2774 183.1 53.7774 179.4 52.4774C174.1 50.6774 172.5 50.5774 169.3 51.8774Z" fill="white"/>
<path d="M157.6 54.3774C155.3 56.5774 155 57.4774 155 63.8774C155 69.5774 155.7 72.6774 158.6 80.1774C163.8 93.6774 165.9 96.7774 180.6 112.077C190.5 122.277 194 126.577 194 128.377C194 130.777 194.2 130.877 201 130.877C205.8 130.877 208 130.477 208 129.677C208 127.177 202.7 120.977 194.2 113.577C182.2 103.177 172.9 93.3774 169.6 87.6774C162.9 76.0774 158.7 60.3774 160.9 54.5774C162.2 51.1774 161.1 51.0774 157.6 54.3774Z" fill="white"/>
<path d="M149 62.0774C148 63.7774 146.8 68.0774 146.4 71.5774C144.8 86.7774 148.6 97.2774 163.9 119.277C166.4 122.777 168 126.277 168 127.977C168 130.877 168.1 130.877 173.8 130.877C176.9 130.877 180.1 130.477 180.9 129.977C183 128.677 180.6 124.677 171.4 113.977C161.5 102.577 156.8 94.8774 153.5 84.7774C151.2 77.9774 150.9 75.4774 151.2 67.8774C151.3 62.8774 151.4 58.8774 151.2 58.8774C151.1 58.8774 150.1 60.2774 149 62.0774Z" fill="white"/>
<path d="M194.8 63.0774C197.5 67.3774 197.6 68.2774 195.2 66.9774C194.1 66.3774 192 66.2774 190.4 66.7774C185.3 68.0774 186.2 74.1774 192.7 81.8774C194.2 83.6774 205.8 92.9774 218.5 102.377C240.6 118.877 244.9 122.877 247 128.377C247.9 130.677 248.4 130.877 254.5 130.877C260.2 130.877 261 130.677 261 129.077C261 127.977 259.7 125.377 258.2 123.277C253.1 116.177 246.5 110.977 214.3 88.3774C202.3 79.9774 199 76.4774 199 71.8774C199 70.7774 199.7 69.5774 200.5 69.2774C201.7 68.7774 201.2 67.7774 198.3 64.4774C193.6 59.2774 192.1 58.5774 194.8 63.0774Z" fill="white"/>
<path d="M139.5 63.8774C139.2 64.3774 139.3 64.8774 139.9 64.8774C140.4 64.8774 141.2 64.3774 141.5 63.8774C141.8 63.2774 141.7 62.8774 141.1 62.8774C140.6 62.8774 139.8 63.2774 139.5 63.8774Z" fill="white"/>
<path d="M203.1 63.9774L200.6 64.9774L202.9 66.5774C204.5 67.6774 204.8 68.3774 204 68.8774C202.4 69.8774 214.2 72.0774 216.6 71.2774C218.8 70.4774 225 64.8774 225 63.6774C225 62.1774 220 62.8774 216.8 64.8774C213.3 66.9774 207.5 67.4774 205 65.8774C203.9 65.1774 204.3 64.8774 206.7 64.8774C208.4 64.8774 210.2 64.3774 210.5 63.8774C211.3 62.5774 206.3 62.6774 203.1 63.9774Z" fill="white"/>
<path d="M229.4 68.5774C225.2 75.8774 225.4 75.7774 220.8 74.6774C215.4 73.4774 213.9 74.9774 217.7 77.6774C219.2 78.7774 223.7 81.1774 227.5 83.1774C231.8 85.3774 236.6 88.8774 240 92.3774C243 95.4774 248.7 100.177 252.5 102.877C263.8 110.577 271.3 119.877 274.4 130.077C274.8 131.577 276.1 131.877 281.5 131.877C288.8 131.877 288.8 131.777 286.5 125.077C285.4 121.977 285.1 118.877 285.6 114.377L286.3 107.977L280.4 100.377C275.3 93.5774 274.5 92.9774 273.8 94.7774C272.7 97.7774 270.4 97.3774 260.9 92.9774C256.3 90.7774 249 87.8774 244.7 86.3774C239 84.2774 236.4 82.7774 234.8 80.5774L232.7 77.6774L235.8 71.2774C237.6 67.6774 239 64.5774 239 64.3774C239 64.0774 237.4 63.8774 235.5 63.8774C232.5 63.8774 231.8 64.3774 229.4 68.5774Z" fill="#FFA500"/>
<path d="M245.3 65.5774C243 72.1774 240.7 77.5774 239.8 78.5774C238.3 80.4774 243.6 81.3774 246.6 79.7774C248.9 78.5774 251.2 73.0774 252.2 66.3774C252.6 63.5774 246.3 62.8774 245.3 65.5774Z" fill="white"/>
<path d="M138.4 69.1774C132.8 73.2774 125.9 80.8774 127.8 80.8774C128.2 80.8774 130.2 79.2774 132.1 77.2774C133.9 75.2774 136.4 73.1774 137.5 72.6774C139.7 71.4774 125.4 86.9774 121.4 90.0774C119.2 91.8774 111.5 101.377 109.5 104.877C109 105.677 110.2 105.177 112.1 103.777C115.2 101.377 120.3 95.7774 128.4 85.8774C132 81.3774 131 83.3774 124.2 93.6774C121.3 98.1774 116.4 104.577 113.4 107.777C108.6 112.977 108 114.177 108 117.877C108 121.377 108.2 121.877 109.4 120.977C112.3 118.577 121 104.877 127.5 92.5774C131.2 85.5774 134.4 79.8774 134.6 79.8774C134.8 79.8774 134 82.2774 132.9 85.0774C126.8 100.377 121.2 115.777 120.6 119.077C120.3 121.077 118.8 124.277 117.5 126.277L115.1 129.877H122C131.1 129.877 131.6 129.077 131.2 114.977C131.1 109.377 131.4 101.877 132 98.4774C133.4 90.6774 137.6 77.5774 140.1 72.8774C141.2 70.9774 141.8 70.2774 141.5 71.3774C136.1 88.1774 135.7 98.2774 140.1 112.877C142.1 119.677 143 124.377 142.7 126.577L142.1 129.977L148.8 129.677C154.4 129.377 155.5 129.077 155.8 127.477C156 126.477 153.7 120.577 150.6 114.377C147.5 108.177 144.3 100.477 143.5 97.2774C141.5 89.6774 141.7 80.0774 143.9 71.5774C144.8 67.8774 145.4 64.8774 145 64.8774C144.7 64.8774 141.7 66.7774 138.4 69.1774Z" fill="white"/>
<path d="M257.6 76.1774C256.8 80.4774 255.5 81.5774 251 82.0774C247.6 82.3774 247.6 82.3774 253.7 84.7774C261.4 87.6774 265 87.1774 265 83.0774C264.9 81.4774 263.6 78.7774 261.6 76.4774L258.3 72.5774L257.6 76.1774Z" fill="white"/>
<path d="M268.385 69.835C272.025 69.835 275 67.035 275 62.94C275 58.845 272.025 56.045 268.385 56.045C264.78 56.045 261.805 58.845 261.805 62.94C261.805 67.035 264.78 69.835 268.385 69.835ZM268.385 68.54C265.445 68.54 263.205 66.265 263.205 62.94C263.205 59.65 265.445 57.305 268.385 57.305C271.325 57.305 273.6 59.65 273.6 62.94C273.6 66.265 271.325 68.54 268.385 68.54ZM265.865 66.405H267.3V63.955H268.735L269.96 66.405H271.57L269.96 63.5C270.73 63.22 271.255 62.415 271.255 61.575C271.255 59.895 269.995 59.3 268.525 59.3H265.865V66.405ZM267.3 62.835V60.49H268.28C269.33 60.49 269.715 60.945 269.715 61.645C269.715 62.415 269.155 62.835 268.21 62.835H267.3Z" fill="white"/>
</svg>
