<?xml version="1.0" encoding="iso-8859-1"?>
<!-- Generator: Adobe Illustrator 16.0.0, SVG Export Plug-In . SVG Version: 6.00 Build 0)  -->
<!DOCTYPE svg PUBLIC "-//W3C//DTD SVG 1.1//EN" "http://www.w3.org/Graphics/SVG/1.1/DTD/svg11.dtd">
<svg version="1.1" id="Capa_1" xmlns="http://www.w3.org/2000/svg" xmlns:xlink="http://www.w3.org/1999/xlink" x="0px" y="0px"
	 width="93.419px" height="93.418px" viewBox="0 0 93.419 93.418" style="enable-background:new 0 0 93.419 93.418;"
	 xml:space="preserve">
<g>
	<g>
		<path d="M46.753,4.856c-4.946,3.732-9.637,7.884-13.949,12.351c-2.197,2.275-4.327,4.665-6.331,7.103L25.9,25.008l-0.752-0.5
			C17.382,19.355,8.927,15.468,0,12.945v17.802c5.409,1.929,10.588,4.503,15.401,7.656l0.795,0.521l-0.479,0.82
			C6.918,54.786,1.66,71.204,0.083,88.563h17.109c1.39-13.046,5.242-25.512,11.455-37.066l0.682-1.268l0.95,1.08
			c9.286,10.557,15.271,23.422,17.34,37.254h17.115C62.372,69.04,53.492,50.586,39.656,36.491l-0.629-0.641l0.57-0.694
			c2.02-2.461,4.188-4.862,6.446-7.137l0.71-0.715l0.71,0.715C63.656,44.331,73.88,65.801,76.314,88.562h17.104
			c-2.437-26.7-14.028-52.003-32.717-71.357C56.391,12.741,51.701,8.589,46.753,4.856z"/>
	</g>
</g>
<g>
</g>
<g>
</g>
<g>
</g>
<g>
</g>
<g>
</g>
<g>
</g>
<g>
</g>
<g>
</g>
<g>
</g>
<g>
</g>
<g>
</g>
<g>
</g>
<g>
</g>
<g>
</g>
<g>
</g>
</svg>
