<svg width="600" height="603" viewBox="0 0 600 603" fill="none" xmlns="http://www.w3.org/2000/svg">
<path d="M193.27 232.879C190.609 232.879 189.193 231.772 188.479 230.825C187.362 229.356 187.149 227.333 187.841 224.831L188.341 223.022C191.609 211.173 193.1 205.765 209.952 195.662C214.497 192.927 219.32 191.479 223.876 191.479C230.199 191.479 235.277 194.396 236.8 198.899C237.566 201.166 238.407 207.181 229.667 213.856C219.639 221.51 201.68 232.879 193.27 232.879ZM192.812 227.546C192.908 227.546 193.057 227.557 193.27 227.557C198.593 227.557 213.475 219.509 226.442 209.619C230.615 206.436 232.605 203.072 231.764 200.602C230.998 198.335 227.825 196.802 223.887 196.802C221.385 196.802 217.403 197.398 212.698 200.219C197.677 209.225 196.623 213.057 193.483 224.427L192.972 226.258C192.78 226.929 192.759 227.344 192.759 227.546C192.78 227.546 192.791 227.546 192.812 227.546Z" fill="black"/>
<path d="M158.256 257.013C154.818 257.013 152.38 256.002 151.017 254.011C149.495 251.786 149.538 248.72 151.124 244.654C158.725 225.257 178.302 200.677 179.122 199.634C193.642 184.251 218.266 168.516 234.606 168.516C244.975 168.516 257.494 172.881 261.391 181.206C262.924 184.496 263.669 189.701 258.516 195.854C257.164 197.462 255.685 199.282 254.088 201.252C242.548 215.506 225.089 237.042 204.543 243.142C199.455 244.654 193.578 246.772 187.894 248.816C176.226 253.032 165.197 257.013 158.256 257.013ZM234.617 173.839C219.916 173.839 196.453 189.041 183.146 203.125C183.093 203.2 163.388 227.961 156.085 246.591C155.095 249.125 155.105 250.551 155.414 251.009C155.638 251.339 156.51 251.69 158.256 251.69C164.26 251.69 175.364 247.688 186.105 243.813C191.864 241.737 197.805 239.597 203.042 238.043C222.013 232.422 238.833 211.652 249.968 197.898C251.576 195.908 253.077 194.066 254.439 192.426C257.175 189.169 257.867 186.22 256.568 183.452C254.099 178.151 244.241 173.839 234.617 173.839Z" fill="black"/>
<path d="M131.685 293.112C127.427 293.112 124.233 291.782 122.168 289.173C119.273 285.501 118.857 279.539 120.912 270.938L121.093 270.192C130.227 232.007 134.006 216.209 167.816 188.37C207.556 155.646 229.028 145.139 259.72 143.436C271.547 142.744 280.17 147.641 284.119 156.902C291.337 173.85 280.585 200.868 256.728 225.726C219.831 264.167 212.198 266.36 191.822 272.204C189.8 272.79 187.638 273.407 185.318 274.099C179.388 275.877 172.341 278.986 164.878 282.286C152.796 287.598 140.308 293.112 131.685 293.112ZM261.764 148.694C261.189 148.694 260.603 148.705 260.007 148.737C230.657 150.366 209.898 160.586 171.191 192.458C138.765 219.158 135.358 233.391 126.267 271.417L126.086 272.162C124.052 280.646 125.106 284.308 126.341 285.873C127.353 287.161 129.098 287.79 131.675 287.79C139.19 287.79 151.156 282.509 162.728 277.41C170.339 274.046 177.536 270.874 183.785 269C186.137 268.298 188.309 267.669 190.353 267.084C209.728 261.527 216.978 259.44 252.896 222.032C280.095 193.704 284.077 170.369 279.233 158.989C276.359 152.25 270.323 148.694 261.764 148.694Z" fill="black"/>
<path d="M91.8811 345.296C89.0175 345.296 86.718 344.328 85.0254 342.433C81.8423 338.856 81.0333 332.117 82.364 320.567C87.8039 273.95 113.886 224.533 137.338 196.237C158.576 170.602 184.945 144.35 233.67 126.019C257.037 117.226 283.416 108.241 301.908 108.241C312.074 108.241 319.186 111.03 323.05 116.523C327.702 123.123 327.542 133.077 322.56 146.927C300.854 207.351 253.641 279.73 186.212 301.671C160.322 310.091 138.562 322.526 122.679 331.606C108.797 339.558 98.7688 345.296 91.8811 345.296ZM301.918 113.563C284.279 113.563 258.474 122.378 235.554 131.001C188 148.896 162.227 174.563 141.447 199.633C118.506 227.322 92.9776 275.642 87.6761 321.184C86.569 330.68 87.0161 336.631 89.0175 338.877C89.4646 339.388 90.1885 339.963 91.8918 339.963C97.3529 339.963 107.37 334.236 120.06 326.986C136.145 317.788 158.182 305.194 184.593 296.604C250.255 275.238 297.266 201.645 317.578 145.128C321.858 133.183 322.241 124.592 318.717 119.578C315.896 115.597 310.254 113.563 301.918 113.563Z" fill="black"/>
<path d="M28.0929 429.11C27.4435 429.11 26.7941 428.875 26.2831 428.407C25.2079 427.406 25.144 425.724 26.1341 424.638C50.406 398.408 78.819 377.053 110.596 361.17C133.952 349.491 153.413 340.783 170.595 333.097C203.415 318.417 227.144 307.814 250.607 288.396C287.185 258.099 328.767 207.085 339.189 161.373C342.191 148.215 344.213 137.591 345.98 128.212C350.601 103.845 353.134 90.4311 365.611 74.2072C372.02 65.8824 381.473 51.3618 391.501 35.979C395.472 29.8684 399.549 23.6301 403.552 17.5728C404.382 16.3485 406.032 16.0185 407.246 16.8169C408.47 17.626 408.811 19.2761 408.002 20.5003C403.988 26.5576 399.932 32.7853 395.961 38.8852C385.891 54.3533 376.363 68.959 369.837 77.4542C358.138 92.6773 355.679 105.644 351.229 129.202C349.44 138.624 347.418 149.312 344.394 162.566C332.961 212.696 288.558 263.901 254.013 292.495C229.986 312.381 205.991 323.112 172.777 337.962C155.659 345.616 136.241 354.292 112.991 365.928C81.7892 381.524 53.8871 402.496 30.0516 428.247C29.5194 428.822 28.8168 429.11 28.0929 429.11Z" fill="black"/>
<path d="M19.7472 405.103C19.183 405.103 18.6294 404.922 18.1397 404.561C16.9687 403.677 16.7345 402.006 17.6287 400.835C21.9721 395.086 25.0913 390.987 27.4439 387.921C34.4807 378.702 34.4807 378.702 39.6544 370.431L45.4243 361.276C57.3048 342.518 64.8951 315.021 72.2405 288.439C77.8082 268.276 83.0671 249.231 89.8802 235.243C107.296 199.495 132.782 154.815 175.556 126.296C197.986 111.349 219.959 107.123 241.207 103.046C262.275 99.0004 282.182 95.1787 302.696 81.6801C329.225 64.2213 353.646 33.6579 373.266 9.09853C374.202 7.95945 375.874 7.76783 377.013 8.68335C378.152 9.59887 378.344 11.2809 377.428 12.4306C357.574 37.2774 332.855 68.2134 305.624 86.1406C284.226 100.214 262.871 104.323 242.208 108.294C221.481 112.275 200.041 116.395 178.505 130.746C136.795 158.552 111.789 202.454 94.6601 237.595C88.0598 251.136 82.8648 269.958 77.361 289.876C69.9198 316.841 62.2124 344.711 49.9167 364.15L44.1575 373.284C38.8453 381.758 38.8453 381.758 31.6596 391.168C29.3176 394.245 26.1984 398.333 21.855 404.06C21.344 404.741 20.5562 405.103 19.7472 405.103Z" fill="black"/>
<path d="M42.1241 457.863C41.5493 457.863 40.9638 457.671 40.4741 457.288C39.3243 456.383 39.1221 454.712 40.027 453.551C60.392 427.64 79.373 409.074 96.4379 398.354C114.173 387.219 144.141 374.061 175.875 360.115C230.849 335.971 293.147 308.612 313.224 282.999C349.409 236.797 370.136 140.518 377.353 101.257C381.857 76.9003 396.1 51.9577 420.915 24.9924C421.916 23.9279 423.598 23.8533 424.673 24.8327C425.759 25.8334 425.823 27.5154 424.833 28.6013C400.72 54.8 386.913 78.891 382.602 102.226C373.532 151.462 353.007 240.842 317.419 286.288C296.511 312.955 233.564 340.613 178.015 365.002C146.461 378.862 116.664 391.946 99.259 402.879C82.7157 413.279 64.1924 431.43 44.2 456.841C43.6784 457.512 42.9013 457.863 42.1241 457.863Z" fill="black"/>
<path d="M57.6239 482.635C57.049 482.635 56.4742 482.443 55.9845 482.071C54.8241 481.166 54.6218 479.495 55.5267 478.324C77.2969 450.496 95.0218 432.015 109.723 421.849C125.968 410.586 152.944 399.568 184.168 386.793C236.768 365.278 296.394 340.9 321.634 308.048C360.704 257.204 378.216 185.517 394.131 110.349C399.23 86.1405 414.315 60.0269 438.938 32.7423C439.939 31.6564 441.621 31.5712 442.706 32.5506C443.792 33.53 443.877 35.212 442.898 36.3085C418.903 62.8905 404.255 88.1631 399.336 111.445C383.304 187.242 365.611 259.557 325.871 311.284C299.747 345.275 239.418 369.952 186.191 391.722C156.543 403.847 128.534 415.302 112.757 426.214C98.5135 436.082 81.1719 454.201 59.7317 481.602C59.1888 482.284 58.4117 482.635 57.6239 482.635Z" fill="black"/>
<path d="M9.54838 374.987C8.98416 374.987 8.41993 374.806 7.94088 374.444C6.76987 373.55 6.54632 371.889 7.44055 370.708L10.2084 367.067C35.8643 333.374 36.8649 332.064 49.5758 288.353C51.1619 282.913 52.663 277.665 54.1214 272.587C69.1956 219.913 79.1598 185.113 120.284 137.921C166.379 85.0441 231.69 77.7093 259.57 74.5688C280.021 72.28 329.565 18.7328 345.842 1.13565C346.854 0.0604451 348.536 -0.00342773 349.611 0.986611C350.697 1.9873 350.75 3.66928 349.76 4.75513C303.302 54.9597 275.677 78.1245 260.167 79.8597C232.893 82.9256 169.019 90.1007 124.297 141.412C83.9503 187.721 74.1245 222.063 59.2419 274.046C57.7835 279.134 56.2825 284.393 54.6963 289.833C41.698 334.491 40.676 335.833 14.4453 370.282L11.6775 373.923C11.1452 374.625 10.3468 374.987 9.54838 374.987Z" fill="black"/>
<path d="M74.3694 501.361C73.8052 501.361 73.241 501.18 72.7513 500.807C71.5803 499.924 71.3567 498.252 72.251 497.081C91.6898 471.628 108.563 454.456 125.351 443.034C147.973 427.651 177.195 416.931 208.142 405.572C252.513 389.305 298.395 372.475 321.602 341.038C325.083 336.333 328.469 331.798 331.737 327.401C365.909 281.615 388.478 251.36 398.538 183.878C403.861 148.3 428.612 99.341 466.436 49.541C467.34 48.37 469.001 48.1571 470.172 49.03C471.332 49.9136 471.567 51.5956 470.683 52.7666C433.381 101.875 409.003 149.95 403.808 184.676C393.545 253.489 370.657 284.17 336.016 330.595C332.738 334.981 329.363 339.505 325.893 344.211C301.727 376.924 255.089 394.032 209.973 410.575C179.356 421.817 150.432 432.42 128.353 447.441C112.055 458.534 95.5754 475.332 76.4879 500.307C75.9556 500.999 75.1679 501.361 74.3694 501.361Z" fill="black"/>
<path d="M277.253 602.281C276.582 602.281 275.901 602.026 275.379 601.515C274.336 600.482 274.325 598.8 275.358 597.746C292.508 580.383 358.638 521.066 376.651 527.496C378.269 528.081 381.058 529.753 381.463 534.394C382.921 550.969 377.534 574.241 367.762 593.679C367.102 594.989 365.494 595.489 364.185 594.861C362.875 594.201 362.343 592.594 363.003 591.284C372.371 572.665 377.534 550.512 376.161 534.841C375.991 532.893 375.214 532.616 374.841 532.478C363.621 528.496 308.913 571.313 279.137 601.461C278.626 602.015 277.945 602.281 277.253 602.281Z" fill="black"/>
<path d="M339.774 600.705C339.391 600.705 339.008 600.62 338.635 600.45C337.304 599.822 336.74 598.235 337.379 596.905C341.786 587.622 341.829 582.533 340.402 580.872C339.199 579.467 336.208 580.191 334.994 580.553C326.478 583.108 320.783 586.93 305.985 600.013C304.878 600.982 303.196 600.886 302.227 599.79C301.248 598.683 301.354 597.001 302.451 596.021C316.684 583.427 323.508 578.435 333.451 575.454C339.87 573.538 343.085 575.848 344.416 577.402C347.822 581.373 347.045 588.91 342.159 599.194C341.722 600.141 340.775 600.705 339.774 600.705Z" fill="black"/>
<path d="M259.794 599.428C259.134 599.428 258.474 599.194 257.963 598.704C256.899 597.682 256.856 596 257.867 594.935C296.83 553.961 322.741 528.156 353.997 515.264C362.151 511.921 370.923 508.845 379.418 505.896C414.123 493.813 450.009 481.304 465.648 443.119C473.855 423.041 484.224 384.664 495.189 344.008C511.189 284.766 529.319 217.603 547.129 181.983C551.228 173.796 556.167 164.513 562.235 153.602C562.948 152.324 564.588 151.845 565.854 152.569C567.143 153.282 567.6 154.9 566.898 156.189C560.872 167.036 555.965 176.255 551.898 184.357C534.322 219.508 516.267 286.384 500.331 345.392C489.323 386.197 478.912 424.734 470.577 445.12C454.023 485.541 416.997 498.444 381.175 510.921C372.371 513.986 364.046 516.882 356.051 520.182C325.754 532.669 300.215 558.134 261.742 598.587C261.199 599.151 260.497 599.428 259.794 599.428Z" fill="black"/>
<path d="M230.04 593.807C229.38 593.807 228.709 593.563 228.198 593.073C227.133 592.051 227.101 590.369 228.123 589.304C267.32 548.478 298.374 518.767 322.518 506.439C333.61 500.776 346.47 497.348 360.086 493.739C381.59 488.033 403.818 482.125 420.585 466.71C448.327 441.16 471.396 371.538 481.084 317.65C488.919 274.131 517.13 187.785 546.628 128.596C547.289 127.275 548.917 126.743 550.195 127.403C551.515 128.063 552.047 129.649 551.387 130.969C522.09 189.754 494.082 275.441 486.321 318.587C476.485 373.327 452.841 444.248 424.183 470.617C406.469 486.926 383.591 493.015 361.459 498.881C348.12 502.426 335.516 505.768 324.924 511.176C301.45 523.174 270.78 552.556 231.956 592.988C231.434 593.531 230.732 593.807 230.04 593.807Z" fill="black"/>
<path d="M96.0226 524.206C95.4477 524.206 94.8622 524.015 94.3725 523.632C93.2228 522.727 93.0205 521.055 93.9254 519.895C118.016 489.321 137.338 470.159 151.348 462.93C162.153 457.373 175.109 451.54 188.831 445.355C225.452 428.854 271.036 408.319 314.587 376.18C371.253 334.364 387.839 287.821 403.882 242.801L406.48 235.509C410.482 224.395 414.208 213.121 418.147 201.188C430.475 163.864 443.218 125.263 464.2 93.5821C469.651 85.3317 477.017 75.2823 486.098 63.7425C487.003 62.5821 488.674 62.3905 489.834 63.2954C490.984 64.2003 491.197 65.8823 490.282 67.032C481.297 78.4653 474.026 88.387 468.65 96.5309C448.061 127.616 435.425 165.876 423.204 202.87C419.425 214.314 415.518 226.141 411.494 237.319L408.896 244.6C393.354 288.236 375.735 337.696 317.749 380.47C273.729 412.96 227.868 433.613 191.013 450.22C177.355 456.373 164.463 462.185 153.785 467.689C140.457 474.566 121.721 493.228 98.1091 523.195C97.5875 523.855 96.8103 524.206 96.0226 524.206Z" fill="black"/>
<path d="M197.73 584.013C197.028 584.013 196.325 583.736 195.793 583.183C194.781 582.108 194.835 580.426 195.899 579.414L198.752 576.71C243.485 534.33 278.807 500.85 300.939 491.833C314.118 486.457 332.088 481.528 349.462 476.77C371.072 470.851 393.417 464.719 401.881 458.683C416.071 448.548 453.128 379.607 458.792 342.241C464.008 307.76 474.089 257.045 492.4 211.194C502.098 186.922 518.183 148.907 534.226 114.98C534.854 113.649 536.462 113.095 537.761 113.713C539.091 114.341 539.666 115.927 539.028 117.258C523.049 151.068 507.016 188.966 497.35 213.164C479.21 258.535 469.225 308.825 464.051 343.018C458.483 379.82 421.586 451.135 404.978 463.005C395.738 469.605 373.947 475.588 350.867 481.901C333.653 486.617 315.843 491.503 302.951 496.762C281.745 505.406 246.743 538.578 202.425 580.575L199.572 583.279C199.04 583.768 198.38 584.013 197.73 584.013Z" fill="black"/>
<path d="M125.138 546.477C124.478 546.477 123.829 546.243 123.318 545.764C122.243 544.752 122.189 543.07 123.201 541.995C151.997 511.272 181.602 488.427 211.197 474.066L223.748 467.998C268.885 446.196 311.51 425.618 347.013 394.16C381.835 363.33 408.939 310.039 427.6 235.764C429.655 227.546 431.507 220.03 433.2 213.111C445.166 164.354 450.116 144.18 474.845 109.359C481.669 99.7458 490.431 87.876 499.543 75.9423C500.427 74.7713 502.098 74.5477 503.269 75.442C504.44 76.3362 504.664 78.0075 503.769 79.1786C494.699 91.059 485.97 102.876 479.189 112.446C455.034 146.437 450.51 164.939 438.363 214.388C436.67 221.318 434.818 228.834 432.753 237.074C413.836 312.413 386.168 366.599 350.537 398.163C314.48 430.089 271.536 450.826 226.058 472.799L213.518 478.856C184.509 492.93 155.425 515.402 127.065 545.636C126.565 546.2 125.851 546.477 125.138 546.477Z" fill="black"/>
<path d="M159.385 567.289C158.81 567.289 158.235 567.098 157.745 566.714C156.585 565.809 156.393 564.138 157.298 562.978C172.468 543.677 184.966 529.391 219.107 507.674C269.109 475.854 293.828 464.889 340.615 445.014C384.677 426.31 404.031 394.267 424.353 341.677C436.393 310.528 445.698 273.61 454.693 237.904C459.856 217.38 464.743 197.994 470.002 180.173C476.719 157.424 492.847 125.774 515.426 91.0592C516.235 89.8243 517.875 89.4943 519.12 90.282C520.345 91.0805 520.696 92.7305 519.897 93.9654C497.584 128.265 481.69 159.414 475.122 181.685C469.884 199.41 465.019 218.732 459.856 239.214C450.818 275.068 441.471 312.147 429.325 343.594C411.738 389.114 393.077 428.535 342.691 449.922C296.17 469.669 271.611 480.57 221.96 512.166C188.532 533.426 176.311 547.393 161.482 566.267C160.96 566.927 160.173 567.289 159.385 567.289Z" fill="black"/>
<path d="M393.705 589.165C393.46 589.165 393.205 589.134 392.949 589.048C391.544 588.633 390.735 587.153 391.161 585.738C392.449 581.362 393.556 577.104 394.631 572.952C398.421 558.357 402.008 544.56 412.441 530.881C422.373 517.851 435.223 509.856 447.646 502.127C463.732 492.12 478.923 482.667 486.832 463.196C492.166 450.049 499.011 425.117 506.931 396.257C520.526 346.712 537.452 285.053 557.157 243.908C565.397 226.641 572.721 209.374 579.396 193.278C579.949 191.915 581.525 191.276 582.866 191.841C584.229 192.405 584.868 193.959 584.303 195.322C577.607 211.492 570.273 228.834 561.958 246.218C542.466 286.937 525.614 348.331 512.062 397.673C504.1 426.703 497.212 451.774 491.761 465.208C483.202 486.287 466.563 496.645 450.467 506.673C438.448 514.146 426.025 521.885 416.689 534.128C406.895 546.966 403.605 559.635 399.794 574.315C398.698 578.531 397.58 582.831 396.271 587.281C395.919 588.42 394.865 589.165 393.705 589.165Z" fill="black"/>
<path d="M411.94 584.151C411.717 584.151 411.504 584.119 411.28 584.066C409.854 583.704 409.002 582.246 409.364 580.819C413.25 565.734 417.231 554.833 436.436 541.196C448.402 532.701 460.08 527.314 470.374 522.567C490.154 513.443 505.771 506.236 513.51 482.326C516.821 472.128 520.919 454.009 526.136 431.068C539.794 370.888 560.436 279.922 589.136 238.511C589.967 237.297 591.617 237.02 592.841 237.84C594.044 238.681 594.352 240.331 593.501 241.545C565.386 282.104 544.893 372.464 531.32 432.249C526.093 455.318 521.952 473.544 518.588 483.966C510.135 510.09 492.74 518.106 472.61 527.4C462.528 532.062 451.095 537.332 439.523 545.54C421.756 558.155 418.232 567.778 414.527 582.139C414.208 583.342 413.133 584.151 411.94 584.151Z" fill="black"/>
<path d="M542.807 479.122C542.583 479.122 542.349 479.091 542.125 479.027C540.699 478.643 539.858 477.185 540.241 475.769C542.21 468.445 544.968 454.893 548.459 437.732C558.977 386.133 574.871 308.165 594.97 268.659C595.63 267.339 597.237 266.839 598.547 267.499C599.856 268.159 600.378 269.766 599.707 271.076C579.949 309.932 563.502 390.615 553.676 438.808C550.163 456.043 547.384 469.669 545.372 477.153C545.053 478.345 543.988 479.122 542.807 479.122Z" fill="black"/>
<path d="M3.38448 332.788C2.93736 332.788 2.4796 332.671 2.06442 332.437C0.78695 331.713 0.339852 330.084 1.0744 328.807C21.7268 292.697 31.6272 263.241 42.1025 232.049C44.8597 223.863 47.6594 215.506 50.736 206.808C71.0478 149.28 108.424 86.1087 146.152 74.6754C159.097 70.7472 174.193 68.9055 190.172 66.936C220.107 63.2633 251.064 59.4522 272.356 41.7273C283.683 32.2847 293.977 22.4056 305.889 10.9616C309.328 7.6508 312.873 4.25487 316.577 0.74183C317.642 -0.2695 319.324 -0.22693 320.346 0.837628C321.357 1.90219 321.315 3.58419 320.239 4.60616C316.545 8.11921 313.011 11.5045 309.583 14.8046C297.596 26.3231 287.238 36.2661 275.773 45.8259C253.279 64.5621 221.534 68.4584 190.832 72.2269C175.087 74.1644 160.215 75.9954 147.717 79.7746C111.767 90.665 75.636 152.314 55.7714 208.586C52.7054 217.252 49.9163 225.587 47.1698 233.752C36.6093 265.199 26.6238 294.9 5.70522 331.457C5.20488 332.309 4.3 332.788 3.38448 332.788Z" fill="black"/>
<path d="M127.948 57.5786C126.639 57.5786 125.5 56.6205 125.319 55.2791C125.117 53.8207 126.139 52.4793 127.587 52.2771L137.327 50.9464C176.152 45.6768 229.337 38.4698 253.439 19.3716C261.817 12.7287 264.904 10.046 273.686 0.826976C274.708 -0.248227 276.39 -0.269506 277.455 0.731178C278.52 1.74251 278.562 3.42451 277.551 4.49971C268.534 13.9636 265.362 16.7315 256.749 23.5446C231.498 43.5477 177.493 50.8718 138.051 56.2266L128.321 57.5573C128.204 57.5679 128.076 57.5786 127.948 57.5786Z" fill="black"/>
<path d="M2.66071 269.681C2.26682 269.681 1.87294 269.596 1.50035 269.415C0.180297 268.777 -0.373265 267.19 0.26547 265.86C23.5686 217.667 51.4175 154.635 59.6678 122.261C60.0298 120.835 61.5095 119.973 62.904 120.335C64.3306 120.696 65.1928 122.144 64.8309 123.571C56.4848 156.327 28.4869 219.743 5.06663 268.17C4.60887 269.138 3.65075 269.681 2.66071 269.681Z" fill="black"/>
</svg>
