<?xml version="1.0" encoding="iso-8859-1"?>
<!-- Generator: Adobe Illustrator 19.0.0, SVG Export Plug-In . SVG Version: 6.00 Build 0)  -->
<svg xmlns="http://www.w3.org/2000/svg" xmlns:xlink="http://www.w3.org/1999/xlink" version="1.1" id="Layer_1" x="0px" y="0px" viewBox="0 0 505.01 505.01" style="enable-background:new 0 0 505.01 505.01;" xml:space="preserve" width="512" height="512">
<g>
	<g>
		<g>
			<path style="fill:#B2C9D8;" d="M426.408,314.629l-82.62,13.66l66.36,114.95c6.4,11.08,2.6,25.26-8.48,31.66l-30.18,17.42     l-3.59,2.07c-11.08,6.4-25.25,2.6-31.65-8.48l-66.37-114.95l-22.95,27.95l-30.19,36.77c-10.16,12.38-30.23,5.65-30.88-10.35     l-10.8-263.94c-0.75-18.2,19.25-29.75,34.64-20.01l223.19,141.33C446.408,291.279,442.198,312.019,426.408,314.629z"/>
			<path style="fill:#789EBC;" d="M298.818,335.729L298.818,335.729l-112.49-194.82c-6.83,3.94-11.64,11.38-11.27,20.48l10.8,263.94     c0.65,16,20.72,22.73,30.88,10.35l53.14-64.71l0.003-0.004l66.367,114.944c6.4,11.08,20.57,14.88,31.65,8.48l3.59-2.07     l-74.88-129.69C291.671,354.077,292.551,343.36,298.818,335.729z"/>
		</g>
	</g>
	<g>
		<path d="M436.898,276.373L213.712,135.046c-9.482-6.005-21.413-6.249-31.135-0.636c-9.721,5.612-15.475,16.066-15.016,27.281    l10.798,263.949c0.428,10.425,7.096,19.303,16.989,22.618c9.892,3.315,20.563,0.246,27.184-7.817l46.27-56.346l60.949,105.565    c4.096,7.096,10.71,12.171,18.624,14.292c2.644,0.708,5.325,1.059,7.989,1.059c5.315,0,10.561-1.394,15.287-4.123l33.768-19.496    c14.647-8.456,19.684-27.252,11.228-41.9l-21.871-37.882c-2.071-3.588-6.66-4.816-10.245-2.745    c-3.587,2.071-4.816,6.658-2.745,10.245l21.871,37.882c4.32,7.485,1.747,17.089-5.737,21.41l-33.768,19.496    c-3.625,2.093-7.849,2.649-11.894,1.566c-4.044-1.083-7.424-3.677-9.517-7.303l-66.365-114.947    c-1.23-2.131-3.429-3.523-5.881-3.725c-2.461-0.201-4.849,0.813-6.41,2.715l-53.145,64.719c-4.029,4.905-9.307,3.623-10.826,3.113    c-1.522-0.51-6.507-2.666-6.767-9.008L182.55,161.077c-0.234-5.708,2.58-10.821,7.527-13.677    c4.947-2.857,10.785-2.737,15.609,0.319l223.187,141.326c5.363,3.396,4.738,8.791,4.419,10.364    c-0.319,1.573-1.848,6.784-8.109,7.82l-82.62,13.665c-2.429,0.402-4.505,1.969-5.557,4.194c-1.052,2.225-0.945,4.824,0.285,6.956    l29.383,50.892c2.072,3.588,6.659,4.816,10.245,2.745c3.587-2.071,4.816-6.658,2.745-10.245l-23.966-41.51l71.932-11.897    c10.294-1.703,18.286-9.409,20.362-19.634C450.067,292.168,445.713,281.955,436.898,276.373z"/>
		<path d="M292.281,339.422c1.39,2.406,3.91,3.751,6.502,3.751c1.272,0,2.563-0.324,3.743-1.006    c3.587-2.071,4.816-6.658,2.745-10.245l-60.055-104.016c-2.071-3.588-6.66-4.816-10.245-2.745    c-3.587,2.071-4.816,6.658-2.745,10.245L292.281,339.422z"/>
		<path d="M218.306,181.295c-2.072-3.587-6.66-4.816-10.245-2.745c-3.587,2.071-4.816,6.658-2.745,10.245l12.421,21.513    c1.39,2.406,3.91,3.751,6.502,3.751c1.272,0,2.563-0.324,3.743-1.006c3.587-2.071,4.816-6.658,2.745-10.245L218.306,181.295z"/>
		<path d="M185.232,65.865c4.143,0,7.5-3.358,7.5-7.5V7.5c0-4.142-3.357-7.5-7.5-7.5s-7.5,3.358-7.5,7.5v50.865    C177.732,62.507,181.09,65.865,185.232,65.865z"/>
		<path d="M104.816,37.703c-2.93-2.929-7.678-2.929-10.607,0c-2.929,2.929-2.929,7.678,0,10.606l35.967,35.967    c1.465,1.465,3.385,2.197,5.304,2.197s3.839-0.732,5.304-2.197c2.929-2.929,2.929-7.678,0-10.606L104.816,37.703z"/>
		<path d="M122.371,128.726c0-4.142-3.357-7.5-7.5-7.5H64.007c-4.143,0-7.5,3.358-7.5,7.5s3.357,7.5,7.5,7.5h50.864    C119.013,136.226,122.371,132.868,122.371,128.726z"/>
		<path d="M248.094,128.726c0,4.142,3.357,7.5,7.5,7.5h50.864c4.143,0,7.5-3.358,7.5-7.5s-3.357-7.5-7.5-7.5h-50.864    C251.451,121.226,248.094,124.583,248.094,128.726z"/>
		<path d="M130.176,173.175l-35.967,35.967c-2.929,2.929-2.929,7.677,0,10.606c1.465,1.465,3.384,2.197,5.304,2.197    c1.919,0,3.839-0.732,5.304-2.197l35.967-35.967c2.929-2.929,2.929-7.677,0-10.606    C137.853,170.247,133.105,170.246,130.176,173.175z"/>
		<path d="M234.985,86.473c1.919,0,3.839-0.732,5.304-2.197l35.966-35.967c2.929-2.929,2.929-7.678,0-10.607    c-2.93-2.929-7.678-2.929-10.607,0L229.681,73.67c-2.929,2.929-2.929,7.678,0,10.607    C231.146,85.741,233.066,86.473,234.985,86.473z"/>
	</g>
</g>















</svg>
