<?xml version="1.0" encoding="utf-8"?>
<!-- Generator: Adobe Illustrator 16.0.0, SVG Export Plug-In . SVG Version: 6.00 Build 0)  -->
<!DOCTYPE svg PUBLIC "-//W3C//DTD SVG 1.1//EN" "http://www.w3.org/Graphics/SVG/1.1/DTD/svg11.dtd">
<svg version="1.1" id="Layer_1" xmlns="http://www.w3.org/2000/svg" xmlns:xlink="http://www.w3.org/1999/xlink" x="0px" y="0px"
	 width="1400px" height="980px" viewBox="0 0 1400 980" enable-background="new 0 0 1400 980" xml:space="preserve">
<path fill="#EAEFE8" d="M140,433.762c0,0,609.427-297.314,1127,10.108v394.681l-1127-3.82V433.762z"/>
<path fill="#DEE5DC" d="M140,752.246c0,0,609.427-63.391,1127,2.155v84.149l-1127-0.814V752.246z"/>
<text transform="matrix(1 0 0 1 448.2529 910.7764)" font-family="'Futura-Medium'" font-size="21.4322" letter-spacing="15">FRUITS AND VEGETABLES</text>
<g>
	<g>
		<path fill="none" stroke="#161616" stroke-width="5" stroke-linecap="round" stroke-linejoin="round" stroke-miterlimit="10" d="
			M463.393,88.142"/>
	</g>
	<g>
		<path fill="#161616" d="M428.952,538.071c-0.852,0-1.695-0.144-2.514-0.433c-7.001-2.477-10.878-11.839-12.82-18.645
			c-2.929,5.32-7.643,11.782-13.296,11.869c-11.893,0.135-19.106-12.072-22.275-19.168c-6.024,7.653-15.58,9.162-16.052,9.232
			c-0.721,0.108-1.451-0.105-2.002-0.581c-18.17-15.71-5.854-108.253-4.39-118.754c0.19-1.367,1.452-2.324,2.82-2.13
			c1.368,0.19,2.322,1.453,2.131,2.82c-3.791,27.198-10.64,99.339,1.868,113.446c2.923-0.737,10.575-3.319,13.824-10.673
			c0.422-0.952,1.393-1.554,2.428-1.485c1.04,0.059,1.935,0.756,2.245,1.75c0.064,0.204,6.611,20.544,19.146,20.544
			c0.061,0,0.119-0.001,0.18-0.002c4.104-0.062,9.416-9.051,11.876-15.412c0.408-1.054,1.463-1.704,2.598-1.584
			c1.124,0.12,2.028,0.979,2.204,2.097c0.836,5.304,4.474,19.588,11.183,21.961c0.462,0.163,1.21,0.316,2.348-0.243
			c5.005-2.459,10.609-14.752,12.966-21.923c0.354-1.073,1.375-1.78,2.511-1.716c1.128,0.061,2.075,0.872,2.31,1.978
			c0.094,0.427,2.469,10.679,12.904,11.71c7.391,0.759,9.481-7.376,12.554-21.769c0.752-3.526,1.53-7.173,2.493-10.929
			c1.098-4.282,2.988-12.665,5.382-23.278c8.028-35.595,21.464-95.172,31.181-117.005c12.369-27.79,94.994-243.846,95.827-246.024
			c0.493-1.29,1.939-1.934,3.228-1.442c1.29,0.493,1.936,1.938,1.442,3.228c-0.833,2.181-83.506,218.361-95.929,246.272
			c-9.516,21.382-22.884,80.656-30.871,116.072c-2.402,10.652-4.3,19.066-5.416,23.42c-0.938,3.656-1.705,7.253-2.447,10.73
			c-3.08,14.438-5.736,26.897-17.936,25.701c-7.396-0.731-12.077-5.104-14.721-9.416c-2.669,6.447-7.456,16.021-13.272,18.878
			C431.437,537.77,430.185,538.071,428.952,538.071z"/>
	</g>
	<g>
		<path fill="#161616" d="M298.917,419.548c-11.28,0.001-18.824-3.197-22.535-9.582c-3.599-6.191,7.925-15.905,30.329-33.968
			c13.333-10.75,27.121-21.865,32.459-29.558c11.953-17.227,55.584-59.071,60.78-64.034c30.402-88.324,66.459-213.555,66.82-214.812
			c0.38-1.327,1.763-2.097,3.093-1.712c1.327,0.381,2.094,1.766,1.712,3.093c-0.362,1.262-36.61,127.158-67.096,215.634
			c-0.13,0.378-0.35,0.72-0.64,0.996c-0.482,0.46-48.405,46.165-60.562,63.686c-5.748,8.283-19.819,19.628-33.428,30.6
			c-7.968,6.424-15.494,12.491-21.047,17.677c-7.778,7.265-8.078,9.569-8.062,9.946c6.021,10.211,26.574,7.461,42.771,3.354
			c21.375-5.421,42.889-15.022,48.974-17.836c7.03-3.249,16.813-2.448,28.139-1.518c19.257,1.582,43.221,3.548,64.884-13.365
			c1.086-0.85,2.659-0.656,3.509,0.433c0.85,1.088,0.656,2.659-0.433,3.509c-23.202,18.115-48.244,16.061-68.369,14.407
			c-10.624-0.872-19.796-1.625-25.632,1.073c-6.183,2.858-28.051,12.617-49.842,18.144
			C314.662,418.271,306.043,419.547,298.917,419.548z"/>
	</g>
	<g>
		<path fill="#EAEFE8" d="M378.534,506.067c0,0-0.008-45.197,6.095-65.609"/>
		<path fill="#161616" d="M378.534,508.567c-1.38,0-2.5-1.119-2.5-2.5c0-1.86,0.062-45.799,6.199-66.325
			c0.396-1.323,1.791-2.077,3.111-1.68c1.323,0.396,2.075,1.789,1.68,3.111c-5.928,19.826-5.99,64.444-5.99,64.894
			C381.034,507.447,379.915,508.567,378.534,508.567z"/>
	</g>
	<g>
		<path fill="#EAEFE8" d="M414.454,511.352c0,0,0.219-52.035,6.448-66.135"/>
		<path fill="#161616" d="M414.454,514c-0.003,0-0.007,0-0.011,0c-1.381,0-2.495-1.204-2.489-2.585
			c0.009-2.146,0.294-52.76,6.661-67.172c0.559-1.263,2.033-1.851,3.298-1.295c1.263,0.559,1.834,2.024,1.276,3.288
			c-5.95,13.467-6.233,64.689-6.235,65.205C416.948,512.818,415.83,514,414.454,514z"/>
	</g>
	<g>
		<path fill="#EAEFE8" d="M445.795,511.539c0,0,1.627-47.316,7.458-63.261"/>
		<path fill="#161616" d="M445.797,514.039c-0.029,0-0.059,0-0.088-0.002c-1.38-0.047-2.46-1.204-2.412-2.584
			c0.066-1.948,1.708-47.9,7.608-64.033c0.474-1.297,1.911-1.961,3.206-1.489c1.297,0.474,1.964,1.909,1.489,3.206
			c-5.627,15.389-7.291,62.02-7.308,62.488C448.247,512.976,447.138,514.039,445.797,514.039z"/>
	</g>
	<g>
		<g>
			<line fill="#EAEFE8" x1="470.045" y1="230.127" x2="479.521" y2="254.85"/>
			<path fill="#161616" d="M479.522,257.351c-1.006,0-1.954-0.611-2.335-1.606l-9.477-24.723c-0.494-1.289,0.15-2.734,1.439-3.229
				c1.29-0.497,2.736,0.151,3.229,1.439l9.477,24.723c0.494,1.289-0.15,2.734-1.439,3.229
				C480.122,257.297,479.819,257.351,479.522,257.351z"/>
		</g>
		<g>
			<line fill="#EAEFE8" x1="481.062" y1="232.699" x2="488.955" y2="254.873"/>
			<path fill="#161616" d="M488.955,257.374c-1.027,0-1.991-0.639-2.355-1.662l-7.894-22.174c-0.463-1.301,0.216-2.731,1.517-3.194
				c1.301-0.462,2.731,0.216,3.194,1.517l7.894,22.174c0.463,1.301-0.216,2.731-1.517,3.194
				C489.517,257.327,489.233,257.374,488.955,257.374z"/>
		</g>
	</g>
</g>
<g>
	<g>
		<path fill="none" stroke="#161616" stroke-width="5" stroke-linecap="round" stroke-linejoin="round" stroke-miterlimit="10" d="
			M977.766,88.142"/>
	</g>
	<g>
		<path fill="#161616" d="M1012.206,538.071c-1.233,0-2.484-0.302-3.707-0.902c-5.816-2.857-10.604-12.431-13.272-18.878
			c-2.644,4.312-7.324,8.685-14.721,9.416c-12.178,1.197-14.854-11.263-17.936-25.701c-0.742-3.478-1.51-7.074-2.447-10.73
			c-1.116-4.354-3.014-12.768-5.416-23.42c-7.987-35.416-21.355-94.69-30.871-116.072c-12.423-27.911-95.096-244.092-95.929-246.272
			c-0.493-1.289,0.152-2.734,1.442-3.228c1.29-0.491,2.734,0.152,3.228,1.442c0.833,2.179,83.458,218.234,95.827,246.024
			c9.717,21.833,23.152,81.41,31.181,117.005c2.394,10.613,4.284,18.996,5.382,23.278c0.963,3.756,1.741,7.402,2.493,10.929
			c4.586,21.487,7.604,22.26,12.554,21.769c10.436-1.031,12.811-11.283,12.906-11.72c0.242-1.1,1.191-1.906,2.315-1.964
			c1.136-0.043,2.15,0.641,2.503,1.711c1.699,5.161,7.34,19.161,12.967,21.925c1.137,0.558,1.886,0.405,2.347,0.242
			c6.726-2.379,10.353-16.658,11.183-21.96c0.175-1.117,1.078-1.978,2.203-2.099c1.133-0.118,2.191,0.531,2.599,1.585
			c2.46,6.361,7.771,15.35,11.876,15.412c0.06,0.001,0.12,0.002,0.179,0.002c12.538,0,19.083-20.34,19.147-20.546
			c0.312-0.993,1.207-1.689,2.246-1.747c1.046-0.067,2.006,0.533,2.427,1.484c3.271,7.401,10.898,9.953,13.82,10.678
			c12.511-14.101,5.663-86.251,1.872-113.451c-0.191-1.367,0.763-2.63,2.131-2.82c1.367-0.196,2.63,0.764,2.82,2.13
			c1.465,10.501,13.78,103.044-4.39,118.754c-0.55,0.476-1.276,0.694-2.002,0.581c-0.473-0.07-10.027-1.578-16.052-9.233
			c-3.145,7.043-10.268,19.169-22.012,19.171c-0.089,0-0.175-0.001-0.264-0.002c-5.653-0.087-10.367-6.549-13.296-11.869
			c-1.942,6.806-5.819,16.168-12.82,18.645C1013.901,537.928,1013.058,538.071,1012.206,538.071z"/>
	</g>
	<g>
		<path fill="#161616" d="M1142.241,419.548c-7.127,0-15.743-1.277-25.824-3.834c-21.791-5.526-43.659-15.285-49.842-18.144
			c-5.835-2.699-15.009-1.945-25.632-1.073c-20.121,1.653-45.167,3.709-68.369-14.407c-1.089-0.85-1.282-2.421-0.433-3.509
			c0.85-1.089,2.423-1.281,3.509-0.433c21.664,16.913,45.625,14.946,64.884,13.365c11.328-0.931,21.11-1.733,28.139,1.518
			c6.085,2.813,27.599,12.415,48.974,17.836c16.197,4.109,36.751,6.854,42.771-3.353c0.016-0.378-0.284-2.683-8.062-9.947
			c-5.553-5.186-13.079-11.253-21.047-17.677c-13.608-10.972-27.68-22.316-33.428-30.599c-12.158-17.523-60.08-63.228-60.562-63.687
			c-0.29-0.276-0.51-0.618-0.64-0.996c-30.485-88.476-66.733-214.372-67.096-215.634c-0.382-1.327,0.385-2.712,1.712-3.093
			c1.329-0.379,2.713,0.385,3.093,1.712c0.361,1.257,36.418,126.489,66.82,214.812c5.196,4.963,48.827,46.808,60.78,64.035
			c5.338,7.691,19.126,18.807,32.459,29.557c22.404,18.062,33.928,27.776,30.329,33.968
			C1161.066,416.35,1153.52,419.548,1142.241,419.548z"/>
	</g>
	<g>
		<path fill="#EAEFE8" d="M1062.624,506.067c0,0,0.008-45.197-6.095-65.609"/>
		<path fill="#161616" d="M1062.624,508.567L1062.624,508.567c-1.381,0-2.5-1.12-2.5-2.5c0-0.449-0.062-45.067-5.99-64.894
			c-0.396-1.322,0.356-2.716,1.68-3.111c1.317-0.396,2.716,0.356,3.111,1.68c6.137,20.526,6.199,64.465,6.199,66.325
			C1065.124,507.448,1064.005,508.567,1062.624,508.567z"/>
	</g>
	<g>
		<path fill="#EAEFE8" d="M1026.704,511.352c0,0-0.219-52.035-6.448-66.135"/>
		<path fill="#161616" d="M1026.704,514c-1.376,0-2.494-1.187-2.5-2.563c-0.002-0.516-0.287-51.709-6.235-65.172
			c-0.558-1.264,0.014-2.758,1.276-3.316c1.263-0.556,2.739,0.005,3.298,1.267c6.367,14.412,6.652,65.06,6.661,67.205
			c0.006,1.381-1.108,2.58-2.489,2.58C1026.711,514,1026.707,514,1026.704,514z"/>
	</g>
	<g>
		<path fill="#EAEFE8" d="M995.363,511.539c0,0-1.627-47.316-7.458-63.261"/>
		<path fill="#161616" d="M995.361,514.039c-1.341,0-2.45-1.063-2.496-2.414c-0.017-0.469-1.681-47.1-7.308-62.488
			c-0.475-1.297,0.192-2.732,1.489-3.206c1.297-0.472,2.732,0.192,3.206,1.489c5.9,16.133,7.542,62.085,7.608,64.033
			c0.048,1.38-1.032,2.537-2.412,2.584C995.42,514.039,995.391,514.039,995.361,514.039z"/>
	</g>
	<g>
		<g>
			<line fill="#EAEFE8" x1="913" y1="150" x2="908" y2="176"/>
			<path fill="#161616" d="M908.003,178.5c-0.157,0-0.315-0.015-0.475-0.045c-1.356-0.261-2.244-1.571-1.983-2.927l5-26
				c0.261-1.357,1.583-2.235,2.927-1.983c1.356,0.261,2.244,1.571,1.983,2.927l-5,26C910.225,177.669,909.178,178.5,908.003,178.5z"
				/>
		</g>
		<g>
			<line fill="#EAEFE8" x1="921" y1="158" x2="916" y2="181"/>
			<path fill="#161616" d="M916.002,183.501c-0.176,0-0.354-0.02-0.533-0.058c-1.349-0.294-2.205-1.625-1.912-2.975l5-23
				c0.294-1.349,1.629-2.194,2.975-1.912c1.349,0.294,2.205,1.625,1.912,2.975l-5,23
				C918.188,182.701,917.153,183.501,916.002,183.501z"/>
		</g>
	</g>
	<g>
		<g>
			<line fill="#EAEFE8" x1="965.689" y1="211.646" x2="982.329" y2="232.24"/>
			<path fill="#161616" d="M982.331,234.74c-0.729,0-1.452-0.317-1.946-0.929l-16.64-20.594c-0.868-1.074-0.701-2.648,0.373-3.516
				c1.076-0.869,2.648-0.7,3.516,0.373l16.64,20.594c0.868,1.074,0.701,2.648-0.373,3.516
				C983.438,234.559,982.882,234.74,982.331,234.74z"/>
		</g>
		<g>
			<line fill="#EAEFE8" x1="976.963" y1="210.695" x2="991.311" y2="229.354"/>
			<path fill="#161616" d="M991.312,231.854c-0.75,0-1.491-0.336-1.983-0.976l-14.348-18.658c-0.842-1.095-0.637-2.665,0.457-3.506
				c1.099-0.843,2.666-0.636,3.506,0.457l14.348,18.658c0.842,1.095,0.637,2.665-0.457,3.506
				C992.38,231.685,991.844,231.854,991.312,231.854z"/>
		</g>
	</g>
</g>
<g>
	<g>
		<path fill="#EAEFE8" d="M614.616,612.28c0,0-18.352-13.63-38.606-6.613c0,0,29.693-20.067,50.821-0.098L614.616,612.28z"/>
		<path fill="#161616" d="M614.616,614.78c-0.525,0-1.049-0.166-1.488-0.491c-0.159-0.117-11.202-8.13-25.06-8.13
			c-3.877,0-7.659,0.63-11.24,1.87c-1.183,0.414-2.492-0.12-3.054-1.244c-0.562-1.122-0.204-2.486,0.836-3.189
			c0.566-0.383,14.055-9.377,29.729-9.377c9.371,0,17.517,3.208,24.209,9.534c0.581,0.549,0.864,1.342,0.763,2.134
			c-0.102,0.793-0.575,1.489-1.275,1.874l-12.215,6.711C615.443,614.678,615.029,614.78,614.616,614.78z M591.457,601.296
			c11.186,0.892,20.029,5.938,23.3,8.055l7.689-4.225c-5.189-3.923-11.265-5.907-18.107-5.907
			C599.763,599.219,595.345,600.101,591.457,601.296z"/>
	</g>
	<g>
		<path fill="#EAEFE8" d="M710.346,589.328c0,0,10.176-20.469,31.41-23.4c0,0-35.564-4.422-45.34,22.957L710.346,589.328z"/>
		<path fill="#161616" d="M710.346,592c-0.026,0-0.053,0-0.079,0l-13.93-0.529c-0.799-0.025-1.537-0.476-1.987-1.136
			c-0.449-0.66-0.557-1.517-0.288-2.27c8.018-22.455,32.202-24.891,42.228-24.891c3.462,0,5.683,0.267,5.775,0.278
			c1.245,0.154,2.183,1.206,2.191,2.461s-0.915,2.32-2.158,2.492c-19.698,2.719-29.417,21.929-29.514,22.122
			C712.161,591.38,711.293,592,710.346,592z M700.137,586.502l8.753,0.278c1.965-3.397,7.592-11.979,17.211-17.829
			C710.594,571.513,703.428,579.835,700.137,586.502z"/>
	</g>
	<g>
		<path fill="#EAEFE8" d="M653.729,538.804c0,0,7.713,30.028,23.219,31.796c15.508,1.766,30.332,12.927,33.858,21.52
			c0,0-38.514,56.709-92.521,24.246c0,0,5.011-25.963,22.257-36.952c0,0,7.68-12.79,1.506-38.796c0,0-6.499-30.815,18.314-37.31
			C660.362,503.308,648.991,517.357,653.729,538.804z"/>
		<path fill="#161616" d="M651.784,628.897c-11.614,0-23.317-3.495-34.787-10.39c-0.899-0.541-1.365-1.586-1.167-2.616
			c0.211-1.092,5.312-26.601,22.802-38.218c1.174-2.426,6.181-14.586,0.983-36.479c-2.432-11.526-1.337-34.691,20.114-40.306
			c1.047-0.271,2.148,0.155,2.733,1.063c0.586,0.907,0.522,2.089-0.157,2.929c-0.102,0.127-10.538,13.457-6.136,33.384
			c2.013,7.806,9.763,28.563,21.061,29.851c16.337,1.86,32.025,13.644,35.888,23.055c0.318,0.776,0.227,1.66-0.244,2.354
			C711.893,594.968,688.429,628.897,651.784,628.897z M621.132,615.137c10.175,5.814,20.479,8.761,30.652,8.761
			c30.396,0,51.757-26.219,56.128-32.047c-3.856-7.14-16.737-17.115-31.248-18.767c-17.021-1.94-25.024-32.364-25.357-33.658
			c-3.024-13.688,0.1-24.47,3.111-30.938c-5.375,3.33-8.747,8.8-10.055,16.338c-1.379,7.95,0.115,15.204,0.131,15.276
			c6.322,26.628-1.474,40.041-1.809,40.599c-0.199,0.332-0.474,0.613-0.8,0.821C628.24,590.217,622.577,609.33,621.132,615.137z"/>
	</g>
	<path fill="#F4CD00" d="M836.123,681.299c17.649,73.611,1.728,92.935-22.25,98.684c-23.977,5.749-46.93-4.254-64.578-77.865
		c-11.689-48.752-1.729-92.934,22.25-98.683C795.521,597.686,824.434,632.547,836.123,681.299z"/>
	<path fill="#F4CD00" d="M800.701,689.792c23.806,99.29,2.33,125.353-30.012,133.106s-63.301-5.736-87.106-105.025
		c-15.767-65.759-2.331-125.353,30.012-133.106C745.936,577.012,784.935,624.033,800.701,689.792z"/>
	<path fill="#F4CD00" d="M538.689,752.613c17.649,73.61,40.603,83.613,64.578,77.864c23.979-5.749,39.899-25.071,22.25-98.683
		c-11.688-48.753-40.601-83.614-64.578-77.865C536.963,659.679,527,703.861,538.689,752.613z"/>
	<path fill="#F4CD00" d="M574.111,744.119c23.806,99.29,54.766,112.78,87.106,105.026c32.342-7.755,53.817-33.817,30.012-133.106
		c-15.767-65.758-54.764-112.779-87.106-105.025C571.782,618.768,558.345,678.361,574.111,744.119z"/>
	<path fill="#F4CD00" d="M759.646,699.636c26.091,108.821,2.553,137.385-32.894,145.884c-35.446,8.498-69.378-6.287-95.47-115.107
		c-17.279-72.072-2.553-137.386,32.895-145.885C699.624,576.029,742.365,627.563,759.646,699.636z"/>
	<g>
		<path fill="#161616" d="M809.165,783.401c-0.147,0-0.296-0.013-0.446-0.039c-1.358-0.245-2.262-1.545-2.018-2.904
			c3.801-21.105,1.043-50.572-8.431-90.083c-8.096-33.769-22.924-64.194-40.683-83.478c-0.936-1.016-0.87-2.597,0.146-3.532
			s2.597-0.869,3.532,0.146c18.318,19.891,33.578,51.127,41.866,85.698c9.639,40.197,12.416,70.335,8.49,92.136
			C811.405,782.554,810.352,783.401,809.165,783.401z"/>
	</g>
	<g>
		<path fill="#161616" d="M701.495,593.178c-0.745,0-1.483-0.332-1.976-0.966c-0.848-1.09-0.65-2.661,0.439-3.508
			c4.001-3.11,8.394-5.253,13.054-6.369c1.343-0.323,2.691,0.506,3.014,1.85c0.321,1.343-0.507,2.691-1.85,3.014
			c-3.963,0.949-7.714,2.783-11.149,5.453C702.571,593.006,702.031,593.178,701.495,593.178z"/>
	</g>
	<g>
		<path fill="#161616" d="M637.229,622.428c-0.512,0-1.028-0.156-1.473-0.481c-7.276-5.317-14.466-8.38-21.369-9.104
			c-1.373-0.144-2.37-1.374-2.226-2.747c0.144-1.372,1.369-2.366,2.747-2.226c7.792,0.817,15.799,4.195,23.797,10.04
			c1.115,0.814,1.358,2.379,0.544,3.493C638.76,622.072,637.999,622.428,637.229,622.428z"/>
	</g>
	<g>
		<path fill="#161616" d="M610.759,835.24c-0.707,0-1.41-0.299-1.905-0.88c-14.687-17.258-26.847-46.585-37.173-89.658
			c-8.027-33.48-8.807-67.438-2.14-93.165c0.347-1.336,1.719-2.138,3.047-1.793c1.337,0.347,2.14,1.711,1.793,3.047
			c-6.468,24.961-5.681,58.036,2.161,90.745c10.14,42.29,21.954,70.939,36.12,87.584c0.895,1.052,0.768,2.629-0.284,3.524
			C611.907,835.045,611.332,835.24,610.759,835.24z"/>
	</g>
	<g>
		<path fill="#161616" d="M685.911,842.871c-0.454,0-0.914-0.123-1.326-0.382c-22.969-14.407-41.199-50.877-55.732-111.494
			c-11.59-48.346-10.213-92.944,3.685-119.301c8.333-15.807,18.955-25.418,31.57-28.567c17.219-4.295,31.752,5.071,32.901,5.838
			c27.975,17.182,52.905,59.358,65.068,110.088c15.851,66.113,14.975,107.404-2.758,129.945c-0.854,1.085-2.426,1.271-3.511,0.419
			c-1.085-0.854-1.272-2.426-0.419-3.511c16.482-20.951,17.079-62.064,1.826-125.688c-11.693-48.766-36.369-90.773-62.865-107.02
			c-0.033-0.02-0.065-0.041-0.098-0.062c-0.13-0.087-13.612-9.008-28.987-5.146c-11.153,2.805-20.677,11.564-28.306,26.035
			c-13.348,25.313-14.561,68.604-3.246,115.803c14.214,59.281,31.724,94.747,53.527,108.424c1.17,0.734,1.523,2.277,0.79,3.446
			C687.557,842.456,686.742,842.871,685.911,842.871z"/>
	</g>
	<g>
		<path fill="#161616" d="M703.498,836.052c-0.386,0-0.776-0.09-1.143-0.278c-23.861-12.282-43.824-68.266-44.662-70.643
			c-0.459-1.302,0.224-2.729,1.526-3.188c1.3-0.457,2.729,0.224,3.188,1.526c0.199,0.563,20.134,56.482,42.236,67.859
			c1.228,0.632,1.71,2.14,1.078,3.367C705.279,835.557,704.404,836.052,703.498,836.052z"/>
	</g>
</g>
<g>
	<path fill="#FF3A1E" d="M1255.625,544.277c0,0-20.906-7.688-31.268,20.491c-5.682,15.452-52.415,80.817-64.834,106.175
		s-9.038,59.639,23.243,71.488c30.015,11.02,50.302-21.746,56.171-43.321c5.869-21.574,27.233-118.968,27.233-118.968
		S1277.681,554.451,1255.625,544.277z"/>
	<g>
		<polygon fill="#EAEFE8" points="1251.307,538.319 1276.012,490.938 1264.29,544.132 1276.821,570.51 1252.798,554.073 
			1225.191,547.379 		"/>
		<path fill="#161616" d="M1276.821,573c-0.491,0-0.984-0.14-1.412-0.432l-23.646-16.176l-27.161-6.585
			c-1.078-0.262-1.855-1.202-1.908-2.31c-0.054-1.107,0.63-2.117,1.678-2.481l25.177-8.733l24.246-46.502
			c0.58-1.109,1.892-1.619,3.071-1.193c1.178,0.429,1.856,1.663,1.587,2.888l-11.537,52.357l12.037,25.338
			c0.246,0.388,0.388,0.842,0.388,1.334c0,1.381-1.119,2.495-2.5,2.495C1276.834,573,1276.827,573,1276.821,573z M1234.046,546.953
			l19.341,4.69c0.294,0.071,0.573,0.195,0.823,0.366l16.379,11.207l-8.557-18.012c-0.238-0.502-0.303-1.069-0.184-1.611
			l7.666-34.787l-15.991,30.669c-0.295,0.565-0.795,0.997-1.397,1.206L1234.046,546.953z"/>
	</g>
	<g>
		<path fill="#F3F4F2" d="M1167.958,711.336c-0.987,0-1.922-0.589-2.317-1.56c-0.241-0.595-5.852-14.728-0.185-29.743
			c3.671-9.729,27.925-48.588,28.955-50.237c0.733-1.171,2.276-1.526,3.445-0.795c1.171,0.731,1.526,2.274,0.795,3.445
			c-0.25,0.399-25.02,40.083-28.518,49.353c-4.982,13.202,0.088,25.967,0.14,26.095c0.52,1.279-0.096,2.737-1.375,3.258
			C1168.59,711.276,1168.271,711.336,1167.958,711.336z"/>
	</g>
</g>
<g>
	<g>
		<path fill="#161616" d="M229.547,544.421c-0.369,0-0.744-0.083-1.099-0.256c-21.942-10.76-40.657-27.882-55.624-50.89
			c-11.913-18.314-21.488-40.38-28.458-65.582c-11.84-42.811-12.064-80.463-12.065-80.838c-0.003-1.381,1.113-2.502,2.494-2.506
			c1.406,0.026,2.502,1.113,2.506,2.494c0.001,0.369,0.232,37.451,11.916,79.63c10.713,38.68,33.538,89.717,81.433,113.201
			c1.24,0.608,1.752,2.106,1.145,3.346C231.359,543.906,230.471,544.421,229.547,544.421z"/>
	</g>
	
		<ellipse transform="matrix(0.9997 -0.0253 0.0253 0.9997 -8.2357 3.5215)" fill="#F4CD00" cx="135.147" cy="327.464" rx="4.21" ry="10.779"/>
	
		<ellipse transform="matrix(0.856 0.517 -0.517 0.856 200.3666 -26.4201)" fill="#F4CD00" cx="147.604" cy="346.426" rx="4.212" ry="10.777"/>
	<path fill="#F4CD00" d="M154.957,371.35c-3.834,6.35-8.955,10.283-11.438,8.782c-2.48-1.499-1.382-7.86,2.452-14.209
		c3.836-6.353,8.957-10.285,11.438-8.788C159.892,358.633,158.794,364.999,154.957,371.35z"/>
	<path fill="#F4CD00" d="M164.433,393.398c-4.972,8.226-11.604,13.323-14.818,11.38c-3.218-1.944-1.796-10.187,3.174-18.413
		c4.969-8.227,11.603-13.32,14.815-11.379C170.821,376.928,169.4,385.171,164.433,393.398z"/>
	
		<ellipse transform="matrix(0.7514 0.6599 -0.6599 0.7514 315.9161 -7.826)" fill="#F4CD00" cx="168.343" cy="415.313" rx="8.316" ry="21.28"/>
	<path fill="#F4CD00" d="M188.719,447.863c-13.136,6.291-25.78,7.23-28.241,2.092c-2.458-5.132,6.199-14.392,19.336-20.685
		c13.139-6.291,25.781-7.229,28.239-2.096C210.512,432.311,201.855,441.571,188.719,447.863z"/>
	<path fill="#F4CD00" d="M203.979,474.268c-17.398,4.419-32.638,3.524-34.04-1.994c-1.399-5.519,11.57-13.568,28.967-17.984
		c17.399-4.42,32.64-3.526,34.036,1.992C234.345,461.802,221.376,469.854,203.979,474.268z"/>
	
		<ellipse transform="matrix(0.073 0.9973 -0.9973 0.073 694.6029 239.752)" fill="#F4CD00" cx="218.324" cy="493.545" rx="10.307" ry="32.5"/>
	
		<ellipse transform="matrix(-0.3162 0.9487 -0.9487 -0.3162 486.0602 344.5691)" fill="#F4CD00" cx="118.85" cy="347.458" rx="4.213" ry="10.778"/>
	
		<ellipse transform="matrix(-0.3161 0.9487 -0.9487 -0.3161 498.7975 380.0466)" fill="#F4CD00" cx="112.417" cy="369.808" rx="5.251" ry="13.433"/>
	<path fill="#F4CD00" d="M110.642,401.021c9.118,3.035,17.474,2.608,18.659-0.955c1.187-3.562-5.241-8.912-14.359-11.952
		c-9.119-3.037-17.473-2.61-18.658,0.952C95.094,392.631,101.524,397.98,110.642,401.021z"/>
	
		<ellipse transform="matrix(-0.1436 0.9896 -0.9896 -0.1436 556.4384 370.612)" fill="#F4CD00" cx="117.862" cy="426.066" rx="8.317" ry="21.279"/>
	<path fill="#F4CD00" d="M121.48,467.752c14.08-3.734,24.311-11.222,22.851-16.728c-1.459-5.501-14.055-6.932-28.137-3.2
		c-14.078,3.736-24.308,11.225-22.848,16.724C94.807,470.054,107.402,471.487,121.48,467.752z"/>
	<path fill="#F4CD00" d="M129.262,504.98c16.107-7.925,27.122-18.49,24.61-23.6c-2.513-5.105-17.604-2.82-33.714,5.104
		c-16.104,7.925-27.121,18.491-24.606,23.598C98.066,515.197,113.158,512.907,129.262,504.98z"/>
	<path fill="#F4CD00" d="M154.126,536.839c14.475-10.617,23.476-22.945,20.107-27.537c-3.365-4.591-17.826,0.299-32.302,10.914
		c-14.472,10.617-23.477,22.946-20.107,27.534C125.191,552.344,139.654,547.459,154.126,536.839z"/>
</g>
<g>
	<path fill="#F4CD00" d="M1117.415,784.895c-5.915,31.464-36.217,52.178-67.681,46.263c-31.465-5.915-52.177-36.218-46.262-67.683
		c5.914-31.465,34.779-44.533,66.244-38.618C1101.181,730.771,1123.33,753.43,1117.415,784.895z"/>
	<g>
		<path fill="#161616" d="M1060.509,834.666c-3.745,0-7.525-0.354-11.236-1.052c-15.874-2.984-29.636-11.972-38.75-25.307
			c-9.115-13.335-12.491-29.421-9.507-45.295c4.874-25.932,25.652-42.041,54.228-42.041c4.871,0,9.896,0.48,14.936,1.428
			c16.358,3.075,30.32,10.633,39.314,21.281c9.746,11.539,13.335,25.95,10.379,41.676
			C1114.501,813.928,1089.535,834.666,1060.509,834.666z M1055.243,725.972c-26.41,0-44.846,14.192-49.313,37.965
			c-2.737,14.562,0.359,29.317,8.721,41.55c8.36,12.232,20.984,20.477,35.546,23.214c3.407,0.641,6.877,0.966,10.312,0.966
			c26.623,0,49.522-19.023,54.449-45.233c2.669-14.197-0.542-27.174-9.285-37.525c-8.254-9.772-21.188-16.731-36.418-19.594
			C1064.52,726.423,1059.806,725.972,1055.243,725.972z"/>
	</g>
	<g>
		
			<ellipse transform="matrix(-0.9826 0.1858 -0.1858 -0.9826 2285.769 1278.594)" fill="#161616" cx="1082.968" cy="746.412" rx="2.126" ry="2.295"/>
	</g>
	<g>
		<path fill="#161616" d="M1095.076,751.634c0.236,1.245,1.363,2.079,2.517,1.859c1.153-0.218,1.897-1.404,1.664-2.649
			c-0.238-1.245-1.364-2.076-2.518-1.858S1094.842,750.39,1095.076,751.634z"/>
	</g>
	<g>
		
			<ellipse transform="matrix(-0.9826 0.1856 -0.1856 -0.9826 2291.6948 1304.9302)" fill="#161616" cx="1084.785" cy="759.702" rx="2.126" ry="2.294"/>
	</g>
	<g>
		
			<ellipse transform="matrix(-0.9826 0.1856 -0.1856 -0.9826 2324.5569 1316.4601)" fill="#161616" cx="1100.676" cy="767.005" rx="2.126" ry="2.295"/>
	</g>
	<g>
		
			<ellipse transform="matrix(-0.9826 0.1855 -0.1855 -0.9826 2276.0676 1336.0488)" fill="#161616" cx="1075.529" cy="774.506" rx="2.127" ry="2.294"/>
	</g>
	<g>
		
			<ellipse transform="matrix(-0.9826 0.1858 -0.1858 -0.9826 2339.5273 1354.3151)" fill="#161616" cx="1106.313" cy="786.766" rx="2.126" ry="2.295"/>
	</g>
	<g>
		
			<ellipse transform="matrix(-0.9826 0.1855 -0.1855 -0.9826 2305.1113 1342.9875)" fill="#161616" cx="1089.727" cy="779.334" rx="2.127" ry="2.294"/>
	</g>
	<g>
		
			<ellipse transform="matrix(-0.9826 0.1856 -0.1856 -0.9826 2319.0959 1375.3325)" fill="#161616" cx="1095.191" cy="796.186" rx="2.126" ry="2.296"/>
	</g>
	<path fill="#161616" d="M1062.555,717.036c0,0,15.983-26.249,42.49-19.347C1105.045,697.689,1100.798,722.786,1062.555,717.036z"/>
	<path fill="#FF3A1E" d="M1054.104,688.022c0,0-6.946,19.197,8.451,29.014C1062.555,717.036,1072.498,702.418,1054.104,688.022z"/>
</g>
<g>
	<path fill="#F4CD00" d="M1053.02,775.978c13.443,29.057,0.786,63.511-28.27,76.953c-29.057,13.443-63.51,0.785-76.953-28.271
		s2.479-56.451,31.536-69.894C1008.389,741.322,1039.576,746.921,1053.02,775.978z"/>
	<g>
		<path fill="#161616" d="M1000.446,860.803c-23.498,0-45.055-13.775-54.918-35.094c-6.719-14.521-6.77-29.373-0.147-42.948
			c6.111-12.527,17.796-23.275,32.902-30.264c10.133-4.688,20.718-7.166,30.612-7.166c20.781,0,37.69,10.787,46.393,29.597
			c6.782,14.659,7.45,31.082,1.881,46.244c-5.57,15.161-16.711,27.246-31.369,34.027
			C1017.764,858.917,1009.234,860.803,1000.446,860.803z M1008.896,750.331c-9.174,0-19.034,2.317-28.513,6.703
			c-14.065,6.508-24.9,16.423-30.509,27.919c-5.94,12.178-5.874,25.545,0.191,38.656c9.049,19.557,28.824,32.193,50.381,32.193
			c8.058,0,15.881-1.729,23.254-5.141c13.446-6.222,23.666-17.307,28.775-31.215s4.496-28.973-1.725-42.42
			C1042.786,759.812,1027.921,750.331,1008.896,750.331z"/>
	</g>
	<g>
		
			<ellipse transform="matrix(-0.6923 0.7216 -0.7216 -0.6923 2248.5093 570.4022)" fill="#161616" cx="1002.633" cy="764.629" rx="2.127" ry="2.295"/>
	</g>
	<g>
		
			<ellipse transform="matrix(-0.6924 0.7215 -0.7215 -0.6924 2269.7434 552.9521)" fill="#161616" cx="1016.998" cy="760.321" rx="2.127" ry="2.294"/>
	</g>
	<g>
		
			<ellipse transform="matrix(-0.6925 0.7214 -0.7214 -0.6925 2271.1782 580.6992)" fill="#161616" cx="1011.827" cy="774.398" rx="2.126" ry="2.294"/>
	</g>
	<g>
		
			<ellipse transform="matrix(-0.6926 0.7213 -0.7213 -0.6926 2297.926 562.9741)" fill="#161616" cx="1029.006" cy="771.124" rx="2.126" ry="2.295"/>
	</g>
	<g>
		
			<ellipse transform="matrix(-0.6926 0.7213 -0.7213 -0.6926 2285.564 609.6543)" fill="#161616" cx="1012.879" cy="791.825" rx="2.127" ry="2.294"/>
	</g>
	<g>
		<path fill="#161616" d="M1043.592,785.479c0.916,0.878,2.316,0.903,3.128,0.056c0.814-0.848,0.73-2.246-0.183-3.124
			c-0.914-0.876-2.315-0.899-3.129-0.055C1042.598,783.205,1042.678,784.604,1043.592,785.479z"/>
	</g>
	<g>
		
			<ellipse transform="matrix(-0.6926 0.7213 -0.7213 -0.6926 2306.7698 591.9943)" fill="#161616" cx="1027.244" cy="787.518" rx="2.126" ry="2.293"/>
	</g>
	<g>
		
			<ellipse transform="matrix(-0.6924 0.7215 -0.7215 -0.6924 2338.4009 599.1704)" fill="#161616" cx="1041.473" cy="798.07" rx="2.126" ry="2.296"/>
	</g>
	<path fill="#161616" d="M968.963,752.553c0,0-2.218-30.652,23.375-40.414C992.338,712.139,1003.443,735.042,968.963,752.553z"/>
	<path fill="#FF3A1E" d="M945.241,733.83c0,0,5.485,19.664,23.722,18.723C968.963,752.553,968.576,734.878,945.241,733.83z"/>
</g>
<g>
	<path fill="#161616" d="M241.107,746.466c0,0-5.811-30.178,18.454-42.885C259.562,703.581,273.286,725.019,241.107,746.466z"/>
	<path fill="#FF3A1E" d="M227.713,720.762c0,0-1.904,20.326,15.465,25.965C243.178,746.727,249.132,730.081,227.713,720.762z"/>
	<path fill="#FF3A1E" d="M247.5,756.5c0,0,31-18.5,50.5-7s14.5,87-25.25,98.5c0,0-11.25-2-16.25-6.5c0,0-12.41,9.5-20.705,8.5
		S174.287,794.238,201,757.5C201,757.5,217.5,741,247.5,756.5z"/>
	<g>
		<path fill="#161616" d="M237.068,852.574c-0.539,0-1.067-0.031-1.572-0.092c-6.594-0.795-28.082-22.011-38.439-45.771
			c-8.564-19.648-7.9-37.174,1.921-50.681c0.077-0.106,0.162-0.206,0.255-0.298c0.342-0.342,8.548-8.371,23.739-8.371
			c7.779,0,16.002,2.119,24.458,6.302c4.422-2.448,20.015-10.43,35.326-10.43c6.33,0,11.886,1.384,16.514,4.113
			c8.082,4.766,14.771,21.175,11.498,47.091c-2.861,22.663-14.169,49.266-37.323,55.964c-0.367,0.106-0.757,0.128-1.132,0.06
			c-0.444-0.078-10.024-1.819-15.868-5.838C252.919,847.07,244.199,852.574,237.068,852.574z M202.885,759.159
			c-8.448,11.77-9.089,26.574-1.9,44.006c10.27,24.904,31.629,43.792,35.116,44.354c0.301,0.036,0.628,0.056,0.968,0.056
			c6.041,0,14.979-5.818,17.913-8.061c0.954-0.729,2.296-0.677,3.191,0.128c3.45,3.105,11.109,5.128,14.443,5.789
			c20.448-6.303,30.553-30.725,33.19-51.619c2.507-19.849-1.311-37.578-9.076-42.158c-3.849-2.27-8.551-3.42-13.975-3.42
			c-16.336,0-33.8,10.31-33.975,10.413c-0.741,0.444-1.66,0.473-2.429,0.074c-8.168-4.22-16.034-6.359-23.381-6.359
			C210.891,752.361,203.891,758.253,202.885,759.159z"/>
	</g>
	<g>
		<g>
			<path fill="#FBFCFA" d="M327.086,776.417c0,0,33.533-13.372,50.973,1.063c17.438,14.435,0.578,88.197-40.489,93.276
				c0,0-10.793-3.752-15.02-8.985c0,0-13.755,7.421-21.788,5.124c-8.032-2.298-51.93-64.775-19.75-96.835
				C281.012,770.061,299.91,756.374,327.086,776.417z"/>
			<path fill="#161616" d="M337.569,873.257c-0.278,0-0.557-0.047-0.821-0.139c-0.426-0.148-9.611-3.38-14.746-8.271
				c-3.408,1.639-11.177,4.99-17.749,4.99c-1.525,0-2.932-0.181-4.179-0.538c-6.386-1.826-24.254-26.171-30.729-51.271
				c-5.353-20.753-1.929-37.952,9.901-49.739c0.093-0.092,0.192-0.177,0.299-0.253c0.283-0.206,7.084-5.037,18.317-5.037
				c9.751,0,19.704,3.567,29.602,10.605c3.905-1.41,15.89-5.327,28.458-5.327c9.912,0,17.896,2.448,23.729,7.277
				c7.227,5.981,11.24,23.24,3.917,48.313c-6.405,21.927-21.771,46.411-45.693,49.37
				C337.774,873.251,337.672,873.257,337.569,873.257z M322.549,859.271c0.735,0,1.457,0.324,1.946,0.93
				c2.908,3.601,10.158,6.813,13.35,7.997c21.187-2.994,35.02-25.515,40.925-45.731c5.609-19.202,4.64-37.312-2.305-43.061
				c-4.914-4.067-11.825-6.129-20.542-6.129c-14.05,0-27.774,5.407-27.911,5.462c-0.804,0.319-1.715,0.202-2.41-0.311
				c-9.383-6.92-18.716-10.43-27.738-10.43c-8.8,0-14.316,3.377-15.246,3.991c-10.207,10.287-13.179,24.806-8.833,43.158
				c6.207,26.214,24.316,48.239,27.672,49.346c0.793,0.227,1.736,0.343,2.797,0.343c7.267,0,17.013-5.213,17.109-5.266
				C321.738,859.369,322.146,859.271,322.549,859.271z"/>
		</g>
		<g>
			<line fill="#FBFCFA" x1="327.086" y1="776.417" x2="323.176" y2="861.028"/>
			<path fill="#161616" d="M323.178,863.528c-0.039,0-0.078-0.001-0.117-0.003c-1.38-0.063-2.446-1.233-2.382-2.612l3.91-84.611
				c0.063-1.379,1.262-2.438,2.612-2.382c1.38,0.063,2.446,1.233,2.382,2.612l-3.91,84.611
				C325.611,862.483,324.505,863.528,323.178,863.528z"/>
		</g>
		<path fill="#161616" d="M335.818,809.059l-0.968,16.972c0,0,14.351-5.912,1.107-19.407"/>
		<path fill="#161616" d="M315.405,807.436l-1.697,16.916c0,0-13.249-8.084,1.94-19.343"/>
	</g>
</g>
<g>
	<g>
		<g>
			<path fill="#161616" d="M406.602,673.719c0,0,0.99,23.388-2.693,30.715c-3.686,7.327,6.95,20.799,14.462,15.931
				c7.514-4.868,4.078-43.467,8.772-54.689c4.695-11.224,12.654-15.284,12.184-23.122c-0.471-7.837-5.1-17.461-0.532-21.291
				c4.566-3.83,18.222-11.785,12.233-25.349c-5.986-13.565-14.666-15.233-9.271-23.612c5.396-8.379-6.578-30.965-19.206-24.671
				c-12.627,6.295-15.571,12.244-22.806,10.398c-7.233-1.848-16.368,10.259-11.621,18.189c4.747,7.932,0.339,18.399-4.074,21.235
				c-4.415,2.834-5.022,9.997,0.073,15.379c5.097,5.383,11.399,14.213,10.318,17.981s-5.141,6.605-0.46,15.688
				C398.662,655.585,405.306,652.96,406.602,673.719z"/>
			<path fill="#161616" d="M412.661,657.332c-8.64-36.379,7.944-93.484,7.944-93.484s-1.45,55.648-3.229,90.454"/>
		</g>
		<line fill="#161616" x1="433.421" y1="566.956" x2="420.289" y2="577.7"/>
		<line fill="#161616" x1="403.258" y1="572.307" x2="414.189" y2="592.029"/>
		<line fill="#161616" x1="419.436" y1="609.037" x2="432.69" y2="600.073"/>
		<line fill="#161616" x1="397.59" y1="599.846" x2="411.011" y2="615.461"/>
		<line fill="#161616" x1="418.754" y1="629.429" x2="430.688" y2="621.421"/>
		<line fill="#161616" x1="401.586" y1="630.064" x2="410.277" y2="638.49"/>
	</g>
	<g>
		<g>
			<g>
				<path fill="#FBFCFA" d="M359.933,663.542c0,0,17.271,25.545,18.198,36.311c0.93,10.766,22.166,18.524,27.228,7.874
					c5.063-10.651-25.458-51.568-27.946-67.399c-2.488-15.833,3.635-25.887-2.308-34.352c-5.943-8.466-17.786-16.061-15.311-23.512
					c2.476-7.452,12.298-25.808-3.79-36.886c-16.09-11.078-26.975-6.951-26.713-20.076c0.263-13.125-28.772-30.186-38.588-14.4
					c-9.814,15.784-9.006,24.49-18.395,27.417c-9.388,2.927-11.272,22.815-0.466,28.431c10.805,5.615,13.093,20.403,10.1,26.633
					c-2.99,6.231,1.276,14.683,10.71,17.199c9.434,2.518,22.604,8.065,23.996,13.038c1.391,4.974-1.203,10.962,10.323,17.913
					C338.499,648.687,344.136,641.152,359.933,663.542z"/>
				<path fill="#161616" d="M396.139,715.312L396.139,715.312c-8.871-0.001-19.757-6.66-20.499-15.244
					c-0.715-8.296-13.075-28.168-17.778-35.125c-10.13-14.357-15.453-15.619-21.616-17.081c-3.054-0.724-6.514-1.545-10.564-3.988
					c-10.008-6.035-10.57-11.969-10.98-16.302c-0.106-1.118-0.206-2.173-0.459-3.079c-0.864-3.087-11.254-8.365-22.233-11.296
					c-5.622-1.499-10.074-5.027-12.215-9.679c-1.678-3.645-1.716-7.66-0.104-11.018c2.52-5.244,0.504-18.394-8.999-23.332
					c-5.959-3.097-9.342-10.367-8.618-18.521c0.641-7.219,4.367-12.916,9.493-14.515c4.669-1.455,6.137-4.376,9.297-11.43
					c1.789-3.994,4.016-8.965,7.719-14.921c3.061-4.922,7.948-7.523,14.133-7.523c7.662,0,16.642,4.11,22.877,10.472
					c4.081,4.163,6.283,8.717,6.2,12.822c-0.126,6.333,2.425,7.285,9.243,9.83c4.446,1.659,9.98,3.725,16.389,8.137
					c15.771,10.86,9.079,28.315,5.862,36.704c-0.449,1.173-0.837,2.186-1.118,3.029c-1.203,3.622,3.191,8.208,7.843,13.063
					c2.517,2.626,5.119,5.342,7.142,8.224c3.89,5.541,3.333,11.46,2.688,18.313c-0.464,4.93-0.989,10.518,0.043,17.087
					c1.001,6.366,7.301,17.907,13.395,29.067c11.062,20.261,17.546,33.049,14.34,39.793
					C405.621,712.999,401.545,715.312,396.139,715.312z M302.713,507.258c-4.43,0-7.756,1.737-9.887,5.164
					c-3.524,5.668-5.675,10.468-7.401,14.324c-3.114,6.952-5.364,11.975-12.372,14.159c-3.136,0.978-5.547,5.069-6.001,10.183
					c-0.413,4.654,0.896,11.021,5.943,13.643c11.876,6.172,14.934,22.164,11.2,29.935c-0.978,2.039-0.929,4.44,0.14,6.762
					c1.517,3.295,4.783,5.824,8.962,6.938c0.954,0.255,23.396,6.334,25.759,14.78c0.374,1.336,0.5,2.667,0.622,3.954
					c0.378,3.989,0.734,7.758,8.585,12.492c3.382,2.04,6.177,2.703,9.136,3.404c6.553,1.554,13.327,3.16,24.577,19.104
					c0.748,1.106,17.674,26.254,18.646,37.537c0.496,5.748,8.946,10.673,15.516,10.674h0.001c2.384,0,5.525-0.635,6.962-3.658
					c2.342-4.927-6.837-21.74-14.213-35.25c-6.588-12.066-12.81-23.463-13.945-30.688c-1.13-7.188-0.573-13.107-0.082-18.33
					c0.598-6.351,1.029-10.939-1.802-14.973c-1.805-2.57-4.272-5.146-6.66-7.638c-5.472-5.711-11.131-11.617-8.977-18.099
					c0.315-0.951,0.723-2.014,1.194-3.243c4.3-11.217,7.531-22.834-4.03-30.796c-5.899-4.062-11.112-6.008-15.302-7.571
					c-7.09-2.646-12.689-4.736-12.492-14.613c0.054-2.712-1.686-6.073-4.772-9.223C316.759,510.863,309,507.258,302.713,507.258z"/>
			</g>
			<g>
				<path fill="#FBFCFA" d="M355.406,640.977c-34.825-34.836-55.68-110.343-55.68-110.343s36.82,63.417,58.877,103.685"/>
				<path fill="#161616" d="M355.406,643.477c-0.64,0-1.28-0.244-1.768-0.732c-14.678-14.682-28.621-37.914-41.443-69.051
					c-9.515-23.104-14.826-42.204-14.879-42.394c-0.334-1.212,0.283-2.484,1.441-2.971c1.16-0.488,2.499-0.037,3.131,1.05
					c0.368,0.634,37.088,63.904,58.907,103.738c0.663,1.211,0.22,2.73-0.991,3.394c-1.209,0.664-2.73,0.22-3.394-0.991
					c-14.038-25.628-34.259-60.982-46.969-83.064c8.891,24.925,25.511,64.526,47.731,86.754c0.977,0.977,0.977,2.56,0,3.535
					C356.686,643.232,356.046,643.477,355.406,643.477z"/>
			</g>
		</g>
		<g>
			<line fill="#FBFCFA" x1="316.247" y1="525.268" x2="308.945" y2="546.389"/>
			<path fill="#161616" d="M308.945,548.89c-0.271,0-0.546-0.045-0.816-0.138c-1.306-0.451-1.997-1.875-1.546-3.18l7.302-21.121
				c0.45-1.306,1.872-1.996,3.179-1.547c1.306,0.451,1.997,1.875,1.546,3.18l-7.302,21.121
				C310.95,548.24,309.981,548.89,308.945,548.89z"/>
		</g>
		<g>
			<line fill="#FBFCFA" x1="286.742" y1="551.282" x2="312.887" y2="565.995"/>
			<path fill="#161616" d="M312.885,568.495c-0.416,0-0.837-0.104-1.224-0.321l-26.146-14.713c-1.203-0.677-1.629-2.201-0.952-3.405
				c0.678-1.205,2.205-1.628,3.404-0.952l26.146,14.713c1.203,0.677,1.629,2.201,0.952,3.405
				C314.606,568.037,313.758,568.495,312.885,568.495z"/>
		</g>
		<g>
			<line fill="#FBFCFA" x1="329.637" y1="582.128" x2="338.311" y2="562.914"/>
			<path fill="#161616" d="M329.636,584.629c-0.345,0-0.693-0.071-1.027-0.223c-1.259-0.567-1.818-2.049-1.25-3.307l8.674-19.214
				c0.567-1.259,2.046-1.821,3.307-1.25c1.259,0.567,1.818,2.049,1.25,3.307l-8.674,19.214
				C331.498,584.081,330.588,584.629,329.636,584.629z"/>
		</g>
		<g>
			<line fill="#FBFCFA" x1="298.783" y1="586.909" x2="324.626" y2="595.153"/>
			<path fill="#161616" d="M324.627,597.654c-0.252,0-0.508-0.039-0.761-0.119l-25.843-8.244c-1.315-0.42-2.042-1.826-1.622-3.142
				c0.419-1.315,1.826-2.041,3.142-1.622l25.843,8.244c1.315,0.42,2.042,1.826,1.622,3.142
				C326.669,596.976,325.686,597.654,324.627,597.654z"/>
		</g>
		<g>
			<line fill="#FBFCFA" x1="342.961" y1="605.471" x2="350.813" y2="588.243"/>
			<path fill="#161616" d="M342.959,607.972c-0.347,0-0.698-0.073-1.035-0.227c-1.256-0.572-1.811-2.055-1.237-3.312l7.853-17.228
				c0.572-1.256,2.052-1.811,3.312-1.237c1.256,0.572,1.811,2.055,1.237,3.312l-7.853,17.228
				C344.816,607.428,343.908,607.972,342.959,607.972z"/>
		</g>
		<g>
			<line fill="#FBFCFA" x1="324.146" y1="618.043" x2="339.715" y2="621.488"/>
			<path fill="#161616" d="M339.717,623.989c-0.179,0-0.36-0.02-0.542-0.06l-15.568-3.445c-1.349-0.299-2.199-1.634-1.901-2.981
				c0.299-1.348,1.634-2.196,2.981-1.901l15.568,3.445c1.349,0.299,2.199,1.634,1.901,2.981
				C341.897,623.194,340.864,623.989,339.717,623.989z"/>
		</g>
	</g>
	<g>
		<g>
			<g>
				<path fill="#FBFCFA" d="M386.115,664.72c0,0,10.018,29.164,8.113,39.798c-1.908,10.635,16.572,23.661,24.234,14.697
					c7.663-8.964-11.144-56.42-9.423-72.353c1.722-15.935,10.254-24.046,6.721-33.767c-3.532-9.722-12.987-20.141-8.654-26.688
					c4.331-6.549,18.596-21.715,5.949-36.602c-12.647-14.887-24.233-13.739-20.561-26.342c3.674-12.604-19.914-36.639-33.504-23.955
					c-13.587,12.682-15.075,21.298-24.902,21.676c-9.826,0.381-16.827,19.094-7.856,27.33c8.969,8.236,7.326,23.107,2.813,28.344
					c-4.512,5.235-2.593,14.507,5.858,19.396c8.455,4.887,19.723,13.677,19.77,18.84c0.049,5.164-4.017,10.269,5.302,19.983
					C369.293,644.794,376.698,638.989,386.115,664.72z"/>
				<path fill="#161616" d="M411.7,724.708L411.7,724.708c-5.42-0.001-11.646-3.26-15.865-8.303
					c-3.334-3.986-4.778-8.364-4.067-12.329c1.468-8.193-5.289-30.602-8.017-38.544c-6.039-16.5-10.85-19.105-16.419-22.122
					c-2.76-1.494-5.887-3.188-9.161-6.602c-8.089-8.434-7.087-14.308-6.355-18.598c0.189-1.106,0.367-2.152,0.358-3.093
					c-0.028-3.154-8.856-11.113-18.521-16.699c-5.039-2.914-8.418-7.482-9.272-12.532c-0.669-3.955,0.342-7.84,2.771-10.659
					c3.797-4.406,5.276-17.628-2.611-24.87c-4.946-4.542-6.318-12.442-3.495-20.128c2.499-6.804,7.58-11.334,12.946-11.542
					c4.888-0.188,7.066-2.625,11.955-8.613c2.768-3.389,6.212-7.607,11.338-12.392c3.03-2.828,6.628-4.263,10.692-4.263
					c7.334,0,15.886,5.083,21.786,12.948c4.723,6.296,6.593,12.782,5.132,17.796c-1.772,6.081,0.442,7.665,6.362,11.897
					c3.861,2.762,8.666,6.197,13.703,12.127c12.398,14.594,1.389,29.705-3.902,36.968c-0.738,1.014-1.377,1.89-1.867,2.631
					c-2.106,3.183,0.941,8.756,4.167,14.655c1.745,3.191,3.55,6.491,4.752,9.8c2.312,6.362,0.233,11.932-2.175,18.381
					c-1.732,4.639-3.695,9.896-4.41,16.508c-0.691,6.407,2.385,19.19,5.359,31.552c5.401,22.443,8.331,36.48,3.479,42.156
					C418.2,723.37,415.204,724.708,411.7,724.708z M367.978,498.42c-2.757,0-5.207,0.981-7.28,2.918
					c-4.879,4.554-8.205,8.626-10.877,11.899c-4.818,5.9-8.3,10.164-15.636,10.446c-3.281,0.127-6.676,3.451-8.445,8.27
					c-1.611,4.387-2.006,10.874,2.184,14.721c9.856,9.052,8.644,25.288,3.017,31.817c-1.476,1.713-2.055,4.043-1.628,6.562
					c0.604,3.577,3.1,6.872,6.845,9.038c0.854,0.494,20.938,12.202,21.018,20.981c0.013,1.387-0.212,2.705-0.43,3.979
					c-0.674,3.95-1.31,7.681,5.036,14.296c2.733,2.851,5.259,4.218,7.933,5.666c5.921,3.207,12.044,6.523,18.75,24.847
					c0.435,1.263,10.223,29.953,8.227,41.098c-0.439,2.447,0.647,5.449,2.98,8.238c3.206,3.834,8.153,6.511,12.029,6.512h0.001
					c2.025,0,3.661-0.713,4.862-2.117c3.545-4.147-0.938-22.772-4.539-37.738c-3.216-13.364-6.254-25.988-5.469-33.259
					c0.781-7.235,2.861-12.805,4.696-17.72c2.231-5.976,3.844-10.293,2.16-14.925c-1.072-2.951-2.784-6.081-4.439-9.108
					c-3.795-6.94-7.72-14.116-3.95-19.812c0.553-0.835,1.222-1.753,1.996-2.816c7.075-9.711,13.222-20.088,4.133-30.787
					c-4.638-5.458-9.164-8.695-12.801-11.296c-6.156-4.402-11.019-7.879-8.255-17.363c0.987-3.387-0.673-8.52-4.331-13.396
					C380.852,502.82,373.703,498.42,367.978,498.42z"/>
			</g>
			<g>
				<path fill="#FBFCFA" d="M387.625,641.756c-24.547-42.705-25.01-121.038-25.01-121.038s19.027,70.821,29.83,115.442"/>
				<path fill="#161616" d="M387.627,644.256c-0.865,0-1.707-0.45-2.169-1.254c-10.346-17.998-17.755-44.061-22.022-77.463
					c-3.167-24.785-3.319-44.609-3.32-44.807c-0.008-1.257,0.92-2.324,2.166-2.492c1.239-0.175,2.423,0.614,2.748,1.829
					c0.19,0.708,19.159,71.361,29.846,115.503c0.325,1.342-0.499,2.692-1.842,3.018c-1.344,0.324-2.692-0.5-3.018-1.842
					c-6.875-28.397-17.188-67.8-23.705-92.431c2.091,26.38,7.819,68.943,23.481,96.192c0.688,1.197,0.276,2.726-0.921,3.413
					C388.479,644.149,388.05,644.256,387.627,644.256z"/>
			</g>
		</g>
		<g>
			<line fill="#FBFCFA" x1="379.963" y1="519.84" x2="367.411" y2="538.33"/>
			<path fill="#161616" d="M367.409,540.83c-0.483,0-0.972-0.14-1.402-0.432c-1.143-0.775-1.439-2.33-0.664-3.473l12.552-18.49
				c0.775-1.143,2.33-1.438,3.473-0.664c1.143,0.775,1.439,2.33,0.664,3.473l-12.552,18.49
				C368.996,540.446,368.209,540.83,367.409,540.83z"/>
		</g>
		<g>
			<line fill="#FBFCFA" x1="344.047" y1="537.731" x2="365.245" y2="558.543"/>
			<path fill="#161616" d="M365.245,561.043c-0.632,0-1.265-0.238-1.751-0.716l-21.198-20.812c-0.985-0.968-1-2.551-0.033-3.535
				c0.968-0.985,2.552-0.999,3.535-0.033l21.198,20.812c0.985,0.968,1,2.551,0.033,3.535
				C366.54,560.793,365.893,561.043,365.245,561.043z"/>
		</g>
		<g>
			<line fill="#FBFCFA" x1="378.077" y1="578.227" x2="391.457" y2="561.934"/>
			<path fill="#161616" d="M378.076,580.727c-0.559,0-1.12-0.186-1.586-0.568c-1.066-0.876-1.222-2.451-0.345-3.519l13.38-16.293
				c0.876-1.067,2.45-1.223,3.519-0.345c1.066,0.876,1.222,2.451,0.345,3.519l-13.38,16.293
				C379.515,580.415,378.798,580.727,378.076,580.727z"/>
		</g>
		<g>
			<line fill="#FBFCFA" x1="347.044" y1="574.804" x2="369.847" y2="589.497"/>
			<path fill="#161616" d="M369.845,591.997c-0.464,0-0.934-0.129-1.353-0.398l-22.803-14.693c-1.16-0.748-1.495-2.295-0.747-3.456
				c0.748-1.159,2.295-1.493,3.456-0.747l22.803,14.693c1.16,0.748,1.495,2.295,0.747,3.456
				C371.471,591.593,370.666,591.997,369.845,591.997z"/>
		</g>
		<g>
			<line fill="#FBFCFA" x1="384.859" y1="604.233" x2="396.929" y2="589.646"/>
			<path fill="#161616" d="M384.858,606.733c-0.562,0-1.126-0.188-1.593-0.574c-1.063-0.88-1.213-2.456-0.332-3.52l12.069-14.587
				c0.881-1.064,2.456-1.212,3.52-0.332s1.213,2.456,0.332,3.52l-12.069,14.587C386.291,606.425,385.577,606.733,384.858,606.733z"
				/>
		</g>
		<g>
			<line fill="#FBFCFA" x1="363.419" y1="611.47" x2="377.553" y2="618.852"/>
			<path fill="#161616" d="M377.551,621.353c-0.39,0-0.786-0.092-1.155-0.285l-14.134-7.382c-1.224-0.639-1.698-2.149-1.059-3.373
				s2.15-1.698,3.373-1.059l14.134,7.382c1.224,0.639,1.698,2.149,1.059,3.373C379.322,620.863,378.452,621.353,377.551,621.353z"/>
		</g>
	</g>
</g>
<g>
	<g>
		<g>
			<path fill="#EAEFE8" d="M660.051,460.943c0,0,24.436-142.234-17.98-201.226c0,0,81.943,16.775,89.639,81.908
				C739.402,406.762,711.473,471.051,660.051,460.943z"/>
			<path fill="#161616" d="M670.555,464.498c-3.572,0-7.269-0.371-10.986-1.102c-1.332-0.262-2.211-1.539-1.981-2.876
				c0.061-0.354,6.093-35.92,6.881-78.182c0.724-38.769-2.927-91.259-24.427-121.162c-0.602-0.835-0.629-1.954-0.069-2.818
				c0.56-0.862,1.592-1.296,2.6-1.09c0.854,0.175,21.129,4.417,42.679,16.812c28.775,16.55,45.699,39.805,48.941,67.253
				c4.955,41.946-4.437,82.031-24.508,104.613C698.896,458.083,685.366,464.498,670.555,464.498z M662.911,458.905
				c16.676,2.527,31.253-3.025,43.035-16.28c18.861-21.221,27.999-60.75,23.28-100.706c-3.094-26.184-18.729-47.55-46.469-63.505
				c-13.892-7.989-27.46-12.525-35.034-14.676c15.437,25.362,22.748,65.261,21.742,118.761
				C668.785,418.732,664.284,450.092,662.911,458.905z"/>
		</g>
		<g>
			<path fill="#161616" d="M670.436,464.484c-0.477,0-0.957-0.136-1.383-0.419c-1.149-0.765-1.462-2.316-0.696-3.466
				c18.482-27.779,28.88-55.424,30.903-82.166c1.613-21.32-2.062-42.146-10.926-61.9c-15.122-33.701-40.348-52.777-40.601-52.966
				c-1.106-0.825-1.334-2.392-0.509-3.499c0.825-1.105,2.39-1.337,3.499-0.509c1.075,0.803,26.523,20.052,42.172,54.927
				c9.208,20.522,13.027,42.164,11.351,64.324c-2.09,27.607-12.764,56.058-31.728,84.559
				C672.037,464.093,671.244,464.484,670.436,464.484z"/>
		</g>
	</g>
	<path fill="#F4CD00" d="M666.672,437.348c0,0,50.424-201.414,101.206-188.324c30.515,7.867-36.862,174.175-36.862,174.175
		L666.672,437.348z"/>
	<g>
		<path fill="#EAEFE8" d="M660.051,460.943c0,0,41.84-110.146,84.307-120.709c42.47-10.566,62.146,36.039,62.146,36.039
			l2.996,24.881c0,0-49.312-29.627-78.484,22.044C731.016,423.198,716.525,473.793,660.051,460.943z"/>
		<path fill="#161616" d="M677.581,465.533c-5.723,0-11.808-0.724-18.085-2.152c-0.705-0.16-1.307-0.619-1.648-1.257
			s-0.391-1.392-0.134-2.068c1.728-4.548,42.801-111.492,86.04-122.247c4.355-1.084,8.686-1.633,12.87-1.633
			c14.647,0,28.332,6.796,39.574,19.653c8.388,9.592,12.44,19.073,12.608,19.472c0.091,0.216,0.151,0.442,0.18,0.674l2.996,24.881
			c0.113,0.948-0.322,1.878-1.123,2.397c-0.801,0.518-1.828,0.536-2.646,0.044c-0.134-0.079-13.729-8.097-30.34-8.097
			c-18.626,0-33.613,9.755-44.551,28.998C732.094,428.03,718.975,465.533,677.581,465.533z M663.457,459.106
			c4.899,0.947,9.639,1.427,14.124,1.427c39.676,0,50.922-37.644,51.031-38.023c0.054-0.188,0.13-0.37,0.227-0.541
			c14.824-26.257,34.847-31.769,49.034-31.769c12.354,0,22.941,3.963,28.582,6.577l-2.389-19.833
			c-1.588-3.493-17.102-35.769-47.442-35.769c-3.778,0-7.702,0.499-11.663,1.484c-16.667,4.146-36.201,25.962-56.488,63.089
			C675.808,428.928,666.499,451.473,663.457,459.106z"/>
	</g>
	<g>
		<path fill="#161616" d="M809.502,403.653c-0.77,0-1.529-0.354-2.02-1.022c-0.217-0.296-22.029-29.605-54.155-33.92
			c-17.974-2.413-35.909,3.373-53.312,17.201c-1.082,0.859-2.654,0.68-3.513-0.401c-0.859-1.081-0.68-2.654,0.401-3.513
			c18.522-14.719,37.74-20.855,57.128-18.237c34.255,4.621,56.555,34.643,57.487,35.918c0.814,1.114,0.571,2.678-0.543,3.492
			C810.531,403.497,810.015,403.653,809.502,403.653z"/>
	</g>
	<path fill="#161616" d="M660.051,460.943c0,0-19.736-86.082-50.756-104.837c0,0,52.554,1.491,57.756,18.774L660.051,460.943z"/>
	<g>
		<path fill="#161616" d="M666.675,439.848c-0.083,0-0.168-0.004-0.253-0.013c-1.373-0.138-2.375-1.363-2.237-2.737
			c4.384-43.682,46.123-133.156,47.897-136.943c0.585-1.251,2.074-1.791,3.324-1.203c1.25,0.586,1.789,2.074,1.203,3.324
			c-0.431,0.92-43.151,92.488-47.45,135.322C669.03,438.887,667.943,439.848,666.675,439.848z"/>
	</g>
	<circle fill="#161616" cx="760.453" cy="255.195" r="3.402"/>
	<circle fill="#161616" cx="752.493" cy="263.359" r="3.402"/>
	<circle fill="#161616" cx="744.422" cy="272.517" r="3.402"/>
	<circle fill="#161616" cx="736.24" cy="282.668" r="3.402"/>
	<circle fill="#161616" cx="727.835" cy="294.807" r="3.402"/>
	<circle fill="#161616" cx="721.418" cy="307.169" r="3.402"/>
	<circle fill="#161616" cx="716.876" cy="320.748" r="3.402"/>
	<circle fill="#161616" cx="710.236" cy="335.097" r="3.402"/>
	<circle fill="#161616" cx="705.806" cy="347.682" r="3.402"/>
	<circle fill="#161616" cx="701.375" cy="360.266" r="3.402"/>
	<circle fill="#161616" cx="696.834" cy="373.845" r="3.402"/>
	<circle fill="#161616" cx="729.135" cy="319.104" r="3.402"/>
	<circle fill="#161616" cx="733.677" cy="305.525" r="3.402"/>
	<circle fill="#161616" cx="742.082" cy="293.386" r="3.402"/>
	<circle fill="#161616" cx="723.489" cy="333.564" r="3.402"/>
	<circle fill="#161616" cx="718.947" cy="347.143" r="3.402"/>
	<circle fill="#161616" cx="750.487" cy="281.247" r="3.402"/>
	<circle fill="#161616" cx="743.838" cy="304.652" r="3.402"/>
	<circle fill="#161616" cx="734.978" cy="329.821" r="3.402"/>
	<circle fill="#161616" cx="745.036" cy="320.887" r="3.402"/>
</g>
<g>
	<g>
		<path fill="#FF3A1E" d="M470.1,550.184c0,0-2.291-10.562,8.121-14.266s14.026,2.339,15.928,6.307
			c1.9,3.969,18.296,44.565,45.936,35.711C540.084,577.936,496.215,605.74,470.1,550.184z"/>
		<path fill="#161616" d="M470.834,542.617c0,0,0.969-6.88,2.959-9.532c1.987-2.651-5.09-14.308-2.334-14.8
			c2.759-0.492,7.105,13.103,7.105,13.103s8.02,2.416,10.629,4.699l-10.973-0.169l3.387,7.912l-5.96-5.529L470.834,542.617z"/>
	</g>
	<g>
		<path fill="#FF3A1E" d="M504.506,537.873c0,0,1.139-10.748,12.187-10.998c11.048-0.252,12.585,6.62,13.146,10.982
			c0.561,4.365,3.393,48.056,32.416,48.317C562.254,586.175,511.878,598.816,504.506,537.873z"/>
		<path fill="#161616" d="M507.577,530.917c0,0,3.078-6.228,5.799-8.122s-0.345-15.182,2.429-14.783
			c2.771,0.396,2.635,14.668,2.635,14.668s6.857,4.81,8.618,7.795l-10.365-3.6l0.733,8.574l-3.924-7.12L507.577,530.917z"/>
	</g>
	<g>
		<path fill="#FF3A1E" d="M572.359,484.018c0,0-7.669-7.615-16.394-0.832c-8.725,6.782-5.577,13.081-3.257,16.818
			c2.322,3.737,27.718,39.402,5.38,57.934C558.089,557.938,605.131,535.926,572.359,484.018z"/>
		<path fill="#161616" d="M565.586,480.564c0,0-6.32-2.886-9.625-2.636c-3.307,0.249-9.32-11.989-11.219-9.93
			c-1.898,2.059,7.219,13.037,7.219,13.037s-2.278,8.06-1.759,11.487l5.764-9.338l4.847,7.111l-1.455-7.998L565.586,480.564z"/>
	</g>
</g>
<g>
	<path fill="#FF3A1E" d="M899.397,478.763c0,0-31.506,10.619-28.787,26.872c2.72,16.252,46.392,125.301,55.602,125.102
		c9.211-0.2,6.056-129.042,1.398-140.282C922.951,479.215,899.397,478.763,899.397,478.763z"/>
	<g>
		<g>
			<path fill="#161616" d="M877.57,530.233c-0.875,0-1.724-0.46-2.183-1.277c-0.675-1.204-0.246-2.728,0.958-3.403l14.783-8.29
				c1.204-0.675,2.728-0.246,3.403,0.958c0.675,1.204,0.246,2.728-0.958,3.403l-14.783,8.29
				C878.404,530.131,877.984,530.233,877.57,530.233z"/>
		</g>
		<g>
			<path fill="#161616" d="M880.781,538.93c-0.861,0-1.7-0.445-2.164-1.244c-0.693-1.194-0.287-2.725,0.906-3.418l9.54-5.541
				c1.192-0.694,2.724-0.289,3.418,0.906c0.693,1.194,0.287,2.725-0.906,3.418l-9.54,5.541
				C881.64,538.821,881.208,538.93,880.781,538.93z"/>
		</g>
	</g>
	<g>
		<g>
			<path fill="#161616" d="M928.83,568.79c-0.229,0-0.462-0.032-0.693-0.099l-16.288-4.693c-1.326-0.383-2.092-1.768-1.71-3.095
				c0.382-1.326,1.765-2.092,3.095-1.71l16.288,4.693c1.326,0.383,2.092,1.768,1.71,3.095
				C930.916,568.077,929.916,568.79,928.83,568.79z"/>
		</g>
		<g>
			<path fill="#161616" d="M927.688,577.989c-0.241,0-0.486-0.035-0.729-0.109l-10.554-3.215c-1.32-0.402-2.065-1.799-1.663-3.12
				c0.402-1.32,1.797-2.067,3.12-1.663l10.554,3.215c1.32,0.402,2.065,1.799,1.663,3.12
				C929.75,577.295,928.759,577.989,927.688,577.989z"/>
		</g>
	</g>
	<g>
		<path fill="#161616" d="M903.201,483.393c-1.296,0-2.392-1-2.49-2.313c-0.193-2.577-4.546-63.308,11.353-78.576
			c3.017-2.896,6.567-4.129,10.557-3.672c3.953,0.457,7.015,2.481,8.853,5.854c4.181,7.672,2.203,22.975-5.877,45.482
			c-5.879,16.376-12.991,30.864-13.062,31.009c-0.61,1.239-2.107,1.75-3.348,1.139c-1.238-0.61-1.748-2.109-1.139-3.348
			c7.687-15.607,26.088-58.947,19.034-71.89c-1.07-1.964-2.671-3.007-5.036-3.28c-2.472-0.284-4.603,0.471-6.519,2.312
			c-11.794,11.324-11.095,57.688-9.83,74.597c0.103,1.377-0.93,2.576-2.307,2.68C903.327,483.391,903.264,483.393,903.201,483.393z"
			/>
	</g>
	<g>
		<path fill="#161616" d="M890.927,484.813c-0.89,0-1.751-0.476-2.202-1.313c-0.094-0.173-9.414-17.508-17.238-36.234
			c-16.325-39.071-10.32-46.144-8.348-48.468c2.047-2.409,4.333-2.311,5.513-2.037c4.091,0.949,10.278,6.635,21.914,42.479
			c6.299,19.401,11.207,38.717,11.256,38.909c0.339,1.339-0.472,2.698-1.81,3.038c-1.338,0.338-2.699-0.473-3.038-1.81
			c-0.048-0.191-4.921-19.368-11.171-38.615c-11.659-35.912-17.274-38.896-18.281-39.13c-0.051-0.011-0.191-0.046-0.57,0.402
			c-1.803,2.123-4.52,10.592,9.148,43.304c7.73,18.501,16.934,35.618,17.025,35.789c0.655,1.216,0.201,2.731-1.014,3.387
			C891.734,484.718,891.327,484.813,890.927,484.813z"/>
	</g>
</g>
<g>
	<path fill="#FF3A1E" d="M826.732,506.324c0,0-26.941,19.48-19.529,34.197c7.416,14.716,81.451,105.917,90.188,102.998
		c8.736-2.922-32.468-125.039-40.247-134.393C849.361,499.772,826.732,506.324,826.732,506.324z"/>
	<g>
		<g>
			<path fill="#161616" d="M820.4,562.065c-0.618,0-1.236-0.228-1.72-0.686c-1.002-0.95-1.045-2.532-0.095-3.534l11.662-12.3
				c0.952-1.002,2.534-1.043,3.534-0.095c1.002,0.95,1.045,2.532,0.095,3.534l-11.662,12.3
				C821.723,561.804,821.062,562.065,820.4,562.065z"/>
		</g>
		<g>
			<path fill="#161616" d="M826.044,569.418c-0.604,0-1.211-0.218-1.691-0.66c-1.017-0.935-1.082-2.516-0.147-3.532l7.469-8.121
				c0.934-1.016,2.516-1.083,3.532-0.147c1.017,0.935,1.082,2.516,0.147,3.532l-7.469,8.121
				C827.393,569.146,826.719,569.418,826.044,569.418z"/>
		</g>
	</g>
	<g>
		<g>
			<path fill="#161616" d="M863.838,584c-1.357,0-2.471-1.066-2.498-2.43c-0.028-1.381,1.067-2.36,2.448-2.388L880.735,579
				c0.018,0,0.034,0,0.052,0c1.357,0,2.471,0.932,2.498,2.295c0.028,1.381-1.067,2.428-2.448,2.455L863.89,584
				C863.872,584,863.855,584,863.838,584z"/>
		</g>
		<g>
			<path fill="#161616" d="M871.389,593c-1.375,0-2.493-1.174-2.5-2.551c-0.007-1.379,1.106-2.445,2.487-2.452L882.409,588
				c0.004,0,0.009,0,0.013,0c1.375,0,2.493,1.019,2.5,2.396c0.007,1.38-1.106,2.522-2.487,2.53L871.401,593
				C871.397,593,871.393,593,871.389,593z"/>
		</g>
	</g>
	<g>
		<path fill="#161616" d="M831.001,509.73c-0.997,0-1.938-0.601-2.326-1.584c-0.949-2.404-23.108-59.114-12.451-78.41
			c2.023-3.662,5.05-5.896,8.995-6.637c3.908-0.735,7.435,0.291,10.19,2.968c6.267,6.088,8.914,21.288,7.868,45.181
			c-0.761,17.383-3.258,33.329-3.282,33.488c-0.216,1.364-1.504,2.295-2.859,2.079c-1.364-0.216-2.295-1.496-2.08-2.859
			c2.715-17.185,7.442-64.033-3.131-74.303c-1.604-1.56-3.443-2.08-5.782-1.64c-2.444,0.459-4.257,1.813-5.542,4.141
			c-7.909,14.319,6.504,58.387,12.725,74.158c0.507,1.284-0.123,2.736-1.408,3.242C831.616,509.674,831.306,509.73,831.001,509.73z"
			/>
	</g>
	<g>
		<path fill="#161616" d="M819.693,514.727c-0.632,0-1.264-0.237-1.75-0.715c-0.141-0.138-14.18-13.931-27.203-29.496
			c-27.173-32.476-23.536-41.009-22.341-43.813c1.24-2.909,3.453-3.491,4.662-3.58c4.201-0.312,11.786,3.292,33.521,34.073
			c11.766,16.662,22.179,33.654,22.282,33.824c0.721,1.178,0.35,2.717-0.828,3.438c-1.177,0.72-2.717,0.351-3.438-0.828
			c-0.103-0.169-10.44-17.038-22.114-33.567c-21.779-30.841-28.033-32.035-29.06-31.952c-0.049,0.003-0.197,0.014-0.427,0.554
			c-1.092,2.562-1.175,11.454,21.576,38.645c12.866,15.378,26.729,28.998,26.868,29.134c0.986,0.966,1.002,2.549,0.035,3.535
			C820.989,514.476,820.342,514.727,819.693,514.727z"/>
	</g>
</g>
<g>
	<g>
		<path fill="#F4CD00" d="M1047.28,570.51c0,0,2.511,46.823,26.116,46.157C1073.396,616.667,1104.18,589.328,1047.28,570.51z"/>
		<g>
			<path fill="#161616" d="M1073.396,619.167c-0.535,0-1.067-0.172-1.51-0.508c-1.289-0.977-12.599-9.799-12.858-18.72
				c-0.092-3.172,1.237-6.023,3.845-8.249c1.627-1.389,3.242-2.093,4.802-2.093c1.448,0,2.792,0.601,3.885,1.736
				c4.871,5.065,4.466,22.072,4.335,25.431c-0.036,0.931-0.587,1.764-1.43,2.162C1074.125,619.088,1073.76,619.167,1073.396,619.167
				z M1067.675,594.598c-0.188,0-0.727,0.188-1.556,0.896c-1.476,1.26-2.141,2.625-2.093,4.297c0.106,3.75,3.683,8.2,6.907,11.388
				c-0.15-6.775-1.021-14.343-2.978-16.378C1067.865,594.706,1067.738,594.598,1067.675,594.598z"/>
		</g>
	</g>
	<g>
		<path fill="#F4CD00" d="M1104.565,547.049c0,0-23.747,40.434-3.694,52.905C1100.871,599.954,1141.63,594.145,1104.565,547.049z"/>
		<g>
			<path fill="#161616" d="M1100.871,602.454c-0.118,0-0.237-0.009-0.356-0.025c-0.922-0.133-1.693-0.768-2.002-1.646
				c-0.536-1.525-5.099-15.125-0.391-22.708c1.673-2.694,4.355-4.34,7.758-4.757c0.497-0.061,0.977-0.092,1.426-0.092
				c3.444,0,4.901,1.839,5.464,2.936c3.202,6.248-6.744,20.908-9.869,25.253C1102.427,602.072,1101.669,602.454,1100.871,602.454z
				 M1107.306,578.226c-0.246,0-0.521,0.019-0.818,0.055c-1.926,0.236-3.234,1.009-4.118,2.432
				c-1.987,3.202-1.456,8.894-0.522,13.329c4.502-7.11,7.379-13.833,6.473-15.6C1108.265,578.334,1107.898,578.226,1107.306,578.226
				z"/>
		</g>
	</g>
	<g>
		<path fill="#F4CD00" d="M1003.28,582.51c0,0,2.511,46.823,26.116,46.157C1029.396,628.667,1060.18,601.328,1003.28,582.51z"/>
		<g>
			<path fill="#161616" d="M1029.396,631.167c-0.535,0-1.067-0.172-1.51-0.508c-1.289-0.977-12.599-9.799-12.858-18.72
				c-0.092-3.172,1.237-6.023,3.845-8.249c1.627-1.389,3.242-2.093,4.802-2.093c1.448,0,2.792,0.601,3.885,1.736
				c4.871,5.065,4.466,22.072,4.335,25.431c-0.036,0.931-0.587,1.764-1.43,2.162C1030.125,631.088,1029.76,631.167,1029.396,631.167
				z M1023.675,606.598c-0.188,0-0.727,0.188-1.556,0.896c-1.476,1.26-2.141,2.625-2.093,4.297c0.106,3.75,3.683,8.2,6.907,11.388
				c-0.15-6.775-1.021-14.343-2.978-16.378C1023.865,606.706,1023.738,606.598,1023.675,606.598z"/>
		</g>
	</g>
	<g>
		<path fill="#F4CD00" d="M1090.129,602.066c0,0-23.151,40.775-2.918,52.953C1087.211,655.02,1127.88,648.613,1090.129,602.066z"/>
		<g>
			<path fill="#161616" d="M1087.211,657.52c-0.105,0-0.213-0.007-0.319-0.021c-0.925-0.119-1.705-0.742-2.027-1.617
				c-0.558-1.518-5.319-15.049-0.724-22.699c1.634-2.72,4.292-4.403,7.688-4.87c0.55-0.076,1.078-0.114,1.569-0.114
				c3.369,0,4.817,1.812,5.381,2.892c3.243,6.216-6.464,20.981-9.517,25.359C1088.791,657.125,1088.021,657.52,1087.211,657.52z
				 M1093.397,633.198c-0.265,0-0.563,0.022-0.888,0.067c-1.923,0.265-3.221,1.057-4.083,2.492c-1.94,3.23-1.326,8.914-0.327,13.334
				c4.389-7.163,7.167-13.924,6.245-15.689C1094.282,633.282,1093.893,633.198,1093.397,633.198z"/>
		</g>
	</g>
	<g>
		<path fill="#F4CD00" d="M1035.28,610.51c0,0,2.511,46.823,26.116,46.157C1061.396,656.667,1092.18,629.328,1035.28,610.51z"/>
		<g>
			<path fill="#161616" d="M1061.396,659.167c-0.535,0-1.067-0.172-1.51-0.508c-1.289-0.977-12.599-9.799-12.858-18.72
				c-0.092-3.172,1.237-6.023,3.845-8.249c1.627-1.389,3.242-2.093,4.802-2.093c1.448,0,2.792,0.601,3.885,1.736
				c4.871,5.065,4.466,22.072,4.335,25.431c-0.036,0.931-0.587,1.764-1.43,2.162C1062.125,659.088,1061.76,659.167,1061.396,659.167
				z M1055.675,634.598c-0.188,0-0.727,0.188-1.556,0.896c-1.476,1.26-2.141,2.625-2.093,4.297c0.106,3.75,3.683,8.2,6.907,11.388
				c-0.15-6.775-1.021-14.343-2.978-16.378C1055.865,634.706,1055.738,634.598,1055.675,634.598z"/>
		</g>
	</g>
</g>
<g>
	<g>
		<path fill="#161616" d="M1067.371,113.299c-0.533,0-1.07-0.17-1.524-0.521c-1.094-0.843-1.297-2.413-0.453-3.506l34.477-44.704
			c0.843-1.094,2.414-1.296,3.506-0.453c1.094,0.843,1.297,2.413,0.453,3.506l-34.477,44.704
			C1068.86,112.964,1068.12,113.299,1067.371,113.299z"/>
	</g>
	<g>
		<path fill="#161616" d="M1120.613,161.773c-0.86,0-1.698-0.444-2.162-1.242c-0.695-1.192-0.291-2.724,0.902-3.418l26.831-15.627
			c1.191-0.694,2.724-0.292,3.418,0.902c0.695,1.192,0.291,2.724-0.902,3.418l-26.831,15.627
			C1121.474,161.664,1121.041,161.773,1120.613,161.773z"/>
	</g>
	<g>
		<path fill="#161616" d="M1135.609,229.614c-1.319,0-2.423-1.032-2.494-2.365c-0.074-1.379,0.982-2.557,2.361-2.631l64.92-3.504
			c1.401-0.093,2.558,0.982,2.631,2.361c0.074,1.379-0.982,2.557-2.361,2.631l-64.92,3.504
			C1135.7,229.613,1135.654,229.614,1135.609,229.614z"/>
	</g>
	<g>
		<path fill="#161616" d="M1162.917,318.007c-0.225,0-0.453-0.031-0.68-0.095l-27.305-7.707c-1.329-0.375-2.103-1.757-1.728-3.085
			c0.376-1.329,1.76-2.1,3.085-1.728l27.305,7.707c1.329,0.375,2.103,1.757,1.728,3.085
			C1165.011,317.287,1164.008,318.007,1162.917,318.007z"/>
	</g>
</g>
<g>
	<g>
		<path fill="#161616" d="M335.533,113.299c-0.749,0-1.489-0.335-1.981-0.974l-34.477-44.704c-0.844-1.093-0.641-2.663,0.453-3.506
			c1.092-0.843,2.663-0.641,3.506,0.453l34.477,44.704c0.844,1.093,0.641,2.663-0.453,3.506
			C336.604,113.129,336.066,113.299,335.533,113.299z"/>
	</g>
	<g>
		<path fill="#161616" d="M282.291,161.773c-0.428,0-0.86-0.109-1.256-0.34l-26.831-15.627c-1.193-0.694-1.598-2.226-0.902-3.418
			c0.694-1.194,2.227-1.597,3.418-0.902l26.831,15.627c1.193,0.694,1.598,2.226,0.902,3.418
			C283.989,161.329,283.151,161.773,282.291,161.773z"/>
	</g>
	<g>
		<path fill="#161616" d="M267.295,229.614c-0.045,0-0.091-0.001-0.137-0.004l-64.92-3.504c-1.379-0.074-2.436-1.252-2.361-2.631
			s1.238-2.454,2.631-2.361l64.92,3.504c1.379,0.074,2.436,1.252,2.361,2.631C269.718,228.582,268.614,229.614,267.295,229.614z"/>
	</g>
	<g>
		<path fill="#161616" d="M239.987,318.007c-1.092,0-2.094-0.72-2.405-1.822c-0.375-1.328,0.398-2.71,1.728-3.085l27.305-7.707
			c1.326-0.374,2.71,0.398,3.085,1.728c0.375,1.328-0.398,2.71-1.728,3.085l-27.305,7.707
			C240.44,317.976,240.212,318.007,239.987,318.007z"/>
	</g>
</g>
</svg>
