<svg width="500" height="500" viewBox="0 0 500 500" fill="none" xmlns="http://www.w3.org/2000/svg">
<path d="M75.1377 1.86632L71.1551 4.95232L58.5592 12.3522L51.9996 19.672L46.0052 25.8606C45.9456 25.9216 45.8801 25.9711 45.8028 26.0098L37.1772 30.3294L30.4626 32.8345L24.6884 35.8212L20.1884 40.5969L18.9857 42.8311V47.427L24.2062 56.5274L26.1827 59.5805L33.3733 66.2309L38.6417 70.517L43.9097 74.1865L53.8032 79.6977C53.8686 79.7363 53.9341 79.7835 53.9815 79.8414L58.6249 84.7802L66.6253 94.691L76.6079 108.293L81.251 114.457C81.2866 114.507 81.3165 114.56 81.3402 114.615L83.3286 119.551C83.3581 119.631 83.3761 119.714 83.3761 119.8V125.969L82.0428 134.099L80.7271 145.674L82.0309 151.114L84.65 157.178L88.5013 163.132L94.3705 167.371L102.097 170.946L106.621 171.549C106.723 171.56 106.818 171.593 106.907 171.643L110.223 173.496L114.663 176.441L118.336 175.871C118.509 175.835 118.675 175.868 118.818 175.943L138.73 185.818C138.825 185.865 138.903 185.926 138.968 186.001L141.623 189.087L150.338 205.252L153.624 210.136C153.659 210.191 153.689 210.252 153.707 210.316L155.034 214.635C155.052 214.698 155.064 214.762 155.064 214.828V221.614L156.386 230.776L157.011 233.076L160.285 238.549L166.178 245.232L174.149 254.494L180.221 266.356L182.881 271.926L188.155 280.501L194.787 290.984C194.846 291.075 194.882 291.175 194.888 291.28L195.548 297.953L198.108 303.315L200.704 306.329L202.609 308.693L208.442 311.704L218.318 315.368L233.646 322.804L239.741 327.193L247.67 333.948L251.557 335.756L263.475 340.679C263.534 340.704 263.588 340.734 263.641 340.773L266.963 343.239L277.446 348.098L283.321 349.909L293.435 355.525L303.965 359.803L310.638 362.906L314.704 365.42C314.769 365.461 314.828 365.511 314.876 365.566L320.186 371.736L324.883 378.588L332.669 386.414L334.949 387.473L337.086 386.975L340.151 383.552L341.395 380.084V375.46L339.514 372.54L335.502 365.088L332.8 356.327L325.567 344.766L321.668 340.554L316.436 336.307L309.12 330.124L305.108 326.399C305.036 326.33 304.977 326.244 304.941 326.153L301.626 318.131L300.929 315.581L300.905 308.621L302.239 294.983L304.888 287.527V271.597L307.56 260.337L313.579 247.251L318.269 239.771L324.293 232.299C324.347 232.228 324.418 232.17 324.496 232.122L329.805 229.036L333.651 225.433L341.58 216.833L352.158 202.697L362.819 190.923L366.099 186.648C366.153 186.578 366.218 186.518 366.295 186.471L370.284 184.001C370.355 183.957 370.439 183.924 370.522 183.904L373.177 183.288C373.26 183.266 373.367 183.263 373.456 183.271L378.767 183.888L383.314 183.882L390.029 184.505C390.1 184.513 390.166 184.527 390.231 184.551L396.743 186.968H400.261L401.94 185.406L403.881 181.805L406.619 178.595L407.78 176.402V174.298L405.893 171.38L401.333 166.544L391.469 159.227L388.082 156.089C388.029 156.033 387.981 155.972 387.939 155.903L387.279 154.67C387.213 154.548 387.189 154.413 387.207 154.277L387.868 148.724L389.202 142.492L389.19 127.205L390.511 122.211L389.856 114.922V111.778L391.856 101.164L391.844 93.3804L390.559 89.7881L388.606 86.1769L385.91 78.047C385.886 77.9805 385.874 77.9114 385.874 77.8395V71.7726L383.909 65.7026L382.594 62.0195L379.909 48.348L378.623 45.3973L377.921 42.1868L377.909 26.6239C377.909 26.4716 377.963 26.3224 378.064 26.2007L379.975 23.8227L381.933 18.3777L385.285 12.1145L387.219 4.24737L389.171 0H368.27L368.802 4.95504C368.808 5.01607 368.808 5.07948 368.796 5.14052L368.135 8.84298L366.79 13.2399C366.766 13.3118 366.736 13.3782 366.694 13.4389L364.039 17.1417L362.873 19.318L363.45 22.0086L365.337 24.3452C365.397 24.4144 365.438 24.4944 365.462 24.5775L366.79 28.8968L368.79 36.9548C368.813 37.0517 368.813 37.1511 368.796 37.2508L368.135 40.3368L364.129 52.1362L362.129 57.6999L360.855 63.6508L362.159 70.3067L365.45 78.835L368.784 91.2428C368.813 91.3561 368.813 91.4724 368.784 91.5856L368.123 94.0552L364.807 108.836L360.801 119.418L359.51 129.144L356.86 137.793V142.53L358.117 146.623L365.23 155.032L375.046 159.902L382.993 163.594C383.112 163.649 383.213 163.732 383.291 163.834L384.618 165.687C384.701 165.803 384.743 165.941 384.743 166.079V171.015C384.743 171.093 384.731 171.167 384.701 171.239L384.035 173.092C383.927 173.405 383.648 173.618 383.237 173.573L376.701 172.962L372.82 173.565C372.736 173.582 372.653 173.582 372.57 173.565L368.587 172.945L356.015 168.657L351.562 169.248L345.717 171.071L337.8 173.902L338.205 175.02L339.312 176.568L341.681 177.118L348.42 179.613C348.485 179.64 348.55 179.674 348.61 179.718L351.932 182.187C352.063 182.284 352.152 182.419 352.194 182.569L352.854 185.038C352.884 185.151 352.884 185.267 352.854 185.381L351.527 190.317C351.491 190.464 351.402 190.593 351.277 190.69L347.294 193.774L338.609 199.365L325.216 204.981L320.698 207.998L318.299 210.244L317.013 215.6C316.989 215.683 316.954 215.766 316.906 215.838L315.579 217.688L314.156 219.029L312.388 221.233V225.317C312.388 225.397 312.37 225.477 312.346 225.555L309.025 234.194L307.072 246.402L304.405 256.952L302.405 264.363L298.435 284.068L295.125 292.715L294.464 305.568V316.643L296.447 327.007L298.357 331.727L302.274 336.581L304.316 339.727L308.185 343.292C308.328 343.425 308.406 343.605 308.406 343.792V346.262L307.715 348.903C307.667 349.074 307.56 349.223 307.399 349.32L305.411 350.554C305.286 350.631 305.137 350.672 304.989 350.672C304.947 350.672 304.906 350.67 304.864 350.664L300.881 350.047L297.542 348.82H295.03C294.887 348.82 294.744 348.781 294.619 348.709L280.017 340.07L256.909 331.492L250.795 327.721L243.557 324.054L236.944 320.979L231.699 319.157L223.616 314.785C223.55 314.749 223.49 314.702 223.437 314.646L217.466 308.477L213.472 304.147L208.96 301.174C208.799 301.069 208.692 300.914 208.65 300.737L207.359 294.714L202.799 288.664L190.251 275.775C190.203 275.725 190.167 275.673 190.137 275.617L186.816 269.448L185.423 263.727L185.405 259.255L183.471 252.135L174.238 238.654C174.184 238.582 174.155 238.499 174.131 238.413L173.47 235.327L165.553 217.574L164.868 215.669L162.249 210.824L160.916 206.513L145.736 188.108L141.07 181.913L137.135 177.649L133.182 172.749L127.283 168.488L125.223 166.58L123.116 163.356L119.747 155.859L117.777 152.203L109.24 142.458L106.514 138.045C106.479 137.992 106.455 137.937 106.437 137.879L104.502 131.273L103.318 130.172L101.442 129.028C101.33 128.958 101.246 128.867 101.186 128.756L100.52 127.523C100.472 127.443 100.448 127.355 100.436 127.263L99.7935 120.04L94.5909 112.787L84.6381 99.2177L67.4706 83.276L62.7204 76.3655L54.8567 69.0847L50.3089 66.0733L45.0348 63.012C44.9456 62.9595 44.868 62.8876 44.8025 62.8048L40.8203 57.252C40.7369 57.136 40.6952 57.0004 40.6952 56.8593V53.7733L40.0465 50.1868C40.0106 49.9793 40.0703 49.7691 40.2191 49.6087L44.2013 45.2894C44.2549 45.2342 44.3146 45.1843 44.3858 45.1457L47.7017 43.2956C47.761 43.2597 47.8265 43.2349 47.8923 43.2183L59.6961 40.171L71.5244 31.6179L84.2272 24.7738L94.0613 16.8321L110.645 6.34596L114.562 2.09588L117.134 0H76.5167L75.2865 1.71441C75.2448 1.76968 75.1912 1.82224 75.1377 1.86632Z" fill="black"/>
<path d="M111.735 7.3388C111.693 7.38593 111.639 7.4273 111.586 7.46324L94.9897 17.9518L85.1084 25.9216L72.3755 32.7905L60.5177 41.3737C60.4404 41.429 60.3512 41.4707 60.2559 41.4954L48.3982 44.5594L45.2789 46.2989L41.606 50.2808L42.2072 53.657L42.219 56.6437L45.9812 61.892L51.1542 64.898L55.839 68.0091L63.9048 75.4863L68.6551 82.3968L85.8107 98.3192L95.8588 111.996L101.175 119.407C101.246 119.507 101.288 119.623 101.3 119.742L101.948 127.009L102.454 127.954L104.276 129.083L105.722 130.405C105.818 130.49 105.889 130.601 105.925 130.72L107.883 137.42L110.491 141.662L119.05 151.443L121.134 155.273L124.473 162.722L126.414 165.717L128.289 167.429L134.2 171.69C134.254 171.729 134.301 171.773 134.337 171.826L138.32 176.764L142.272 181.045L146.963 187.27L162.213 205.761C162.267 205.83 162.315 205.91 162.339 205.996L163.666 210.316L166.267 215.13L166.976 217.071L170.279 224.438L174.922 234.921L175.601 238.007L184.822 251.471C184.864 251.535 184.899 251.604 184.917 251.678L186.905 259.084L186.929 263.575L188.239 268.978L191.453 274.896L203.989 287.782L208.698 294.023C208.758 294.103 208.799 294.195 208.823 294.291L210.091 300.187L214.49 303.11L218.609 307.543L224.491 313.618L232.354 317.882L237.551 319.682L244.259 322.799L251.581 326.51L257.617 330.245L280.714 338.815L295.25 347.404H297.685C297.78 347.404 297.875 347.421 297.971 347.454L301.292 348.69L304.816 349.221L306.31 348.294L306.905 346.09L306.882 344.088L303.12 340.593L301.013 337.372L297.078 332.496C297.03 332.441 296.994 332.383 296.971 332.319L294.982 327.381L292.952 316.767L292.941 305.535L293.607 292.544C293.613 292.474 293.625 292.406 293.649 292.339L296.965 283.7L300.917 264.061L302.923 256.617L305.572 246.134L307.548 233.851L310.864 225.195V220.998C310.864 220.846 310.918 220.696 311.019 220.575L313.007 218.105L314.4 216.795L315.555 215.166L316.859 209.735C316.888 209.605 316.96 209.483 317.061 209.389L319.716 206.922L324.46 203.762L337.859 198.14L346.372 192.648L350.11 189.75L351.331 185.209L350.777 183.144L347.747 180.89L341.211 178.462L338.657 177.873C338.473 177.832 338.312 177.727 338.205 177.58L336.877 175.727C336.842 175.675 336.812 175.62 336.794 175.559L336.127 173.709C335.996 173.349 336.193 172.959 336.574 172.824L345.205 169.738L351.217 167.877L355.991 167.23C356.123 167.213 356.253 167.23 356.366 167.266L368.974 171.582L372.695 172.152L376.552 171.552C376.617 171.538 376.689 171.538 376.754 171.544L382.784 172.108L383.219 170.899V166.292L382.13 164.777L374.35 161.16L364.373 156.213C364.277 156.166 364.2 156.105 364.135 156.03L361.48 152.947L356.825 147.383C356.765 147.311 356.718 147.231 356.694 147.143L355.366 142.823C355.348 142.76 355.337 142.696 355.337 142.63V137.694C355.337 137.628 355.348 137.564 355.366 137.5L358.021 128.861L359.325 119.095L363.343 108.457L366.641 93.7398L367.26 91.4144L363.992 79.2443L360.688 70.6719L359.331 63.7726C359.313 63.6841 359.313 63.5929 359.331 63.5071L360.658 57.3378L362.682 51.6995L366.659 39.9855L367.266 37.1236L365.313 29.248L364.033 25.0919L362.129 22.7305C362.057 22.6447 362.01 22.5477 361.986 22.4426L361.325 19.3566C361.295 19.202 361.319 19.0416 361.391 18.9033L362.718 16.4337L365.355 12.7448L366.653 8.53339L367.278 5.00217L366.744 0H341.968L342.842 1.62591C342.872 1.68118 342.889 1.73916 342.902 1.80291L344.235 7.97221L344.908 12.9578L344.913 22.3046L346.241 41.3849L345.58 48.8953L346.241 62.9981C346.241 63.07 346.235 63.1422 346.217 63.2111L343.562 72.4667L342.878 74.3608L338.901 81.1632L337.598 87.8387L336.925 90.3524L336.282 98.2581L336.949 106.792L335.621 124.174L336.276 128.339L338.246 135.042L341.514 141.081L342.902 146.797L342.919 154.355C342.919 154.57 342.812 154.772 342.634 154.908L335.996 159.844L328.764 166.58C328.692 166.644 328.609 166.693 328.52 166.729L324.049 168.51L321.514 171.458L319.632 173.795L319.061 175.902L320.299 178.775L320.883 179.851L322.127 181.006L323.996 182.151C324.151 182.248 324.264 182.397 324.311 182.569L324.978 185.038L325.002 188.91L324.323 192.728L323.639 194.689C323.585 194.838 323.478 194.965 323.335 195.054L321.341 196.287L311.317 201.259L307.4 203.693L302.715 206.184L300.828 206.781L299.643 208.432L298.447 211.261V217.912L297.107 225.433L295.786 234.055L293.792 243.35L293.804 249.383L295.125 258.539C295.137 258.616 295.131 258.7 295.119 258.777L294.446 261.863L294.464 275.916L292.464 285.31L291.119 289.684C291.083 289.8 291.018 289.905 290.923 289.991L289.708 291.119L287.779 295.912L283.815 303.289L283.196 306.713L284.464 310.25L285.821 317.76C285.839 317.838 285.839 317.915 285.821 317.993L285.16 321.695L283.136 327.356C283.101 327.461 283.041 327.555 282.958 327.632L280.97 329.485C280.821 329.62 280.624 329.692 280.428 329.692C280.315 329.692 280.196 329.668 280.089 329.618L277.434 328.384L273.303 325.21L269.469 323.446L260.302 321.026L250.962 317.926L247.509 316.015L241.616 313.587L236.902 311.088C236.789 311.027 236.694 310.938 236.622 310.83L231.973 303.425L228.074 299.211L225.336 294.781L218.776 287.478L216.246 285.738L210.894 281.386C210.835 281.336 210.782 281.281 210.74 281.217L208.746 278.134L202.781 269.512L199.424 263.273L194.721 245.852L192.804 240.509L188.947 236.926C188.899 236.879 188.858 236.826 188.822 236.768L181.518 224.424L178.244 220.177L174.196 212.674L172.238 209.635L166.309 202.296L159.695 194.918L153.041 186.874L149.082 182.585L143.094 175.783L139.064 170.175L136.45 167.138L133.033 160.2L130.39 155.287L128.349 149.006L126.372 144.115L123.747 139.243L122.396 136.107L119.14 131.278L112.485 120.143L111.139 117.646L105.127 101.518L101.817 93.5187C101.782 93.4384 101.764 93.3499 101.764 93.2641V91.627L100.651 90.073L98.978 89.0361H95.8886C95.7696 89.0361 95.6563 89.0113 95.5492 88.9615L94.222 88.3447L80.2985 82.1811C80.1439 82.1147 80.0188 82.0011 79.9472 81.8573L76.6256 75.6853L75.2448 71.2443C75.2269 71.1806 75.215 71.1172 75.215 71.0507V61.7954C75.215 61.6431 75.2686 61.4939 75.3696 61.3695L81.3463 53.9642L85.3583 49.6087L91.3408 43.4286C91.3944 43.3733 91.4598 43.3234 91.5253 43.2875L96.1745 40.8179L102.216 38.3182L110.312 36.4268L118.169 33.374L125.396 29.7017L131.968 25.4239L134.599 23.5877L139.26 20.4932L157.184 8.76567L170.446 2.59366L172.351 0.820923L173.668 0H119.422L115.64 3.09143L111.735 7.3388Z" fill="black"/>
<path d="M33.3557 12.3274L16.0333 24.7158L0 33.665V59.0261L11.9439 64.8732C12.0093 64.9061 12.0687 64.9478 12.1284 64.9977L18.7656 71.167L26.0396 77.317L38.5701 85.278L47.285 92.7443L53.9222 98.2941L58.6785 104.582L64.012 112.64C64.0717 112.726 64.1073 112.823 64.1191 112.922L64.7858 117.859L64.1252 126.024L63.4582 132.21C63.4525 132.296 63.4226 132.382 63.3809 132.459L60.0593 138.628L58.095 142.909L56.839 147.602L57.4463 151.584L61.2203 155.674L65.1133 158.085L71.1731 163.082L75.8043 166.776L84.4594 174.198L88.2633 176.546L92.1444 177.749C92.216 177.771 92.2814 177.802 92.3408 177.84L98.978 182.159L106.937 187.087L111.699 191.495C111.765 191.556 111.818 191.628 111.854 191.708L114.509 197.261L117.842 205.316L121.646 210.587L128.777 214.206L134.135 217.312C134.265 217.389 134.373 217.505 134.432 217.641L137.748 225.046L139.76 235.527L146.296 244.035L152.897 251.396L159.553 259.44C159.6 259.493 159.63 259.548 159.66 259.609L160.928 262.56L164.142 265.544C164.214 265.61 164.267 265.693 164.309 265.781L166.964 271.951L168.315 276.339L171.619 284.933L172.309 288.119L172.327 291.344L174.297 299.208L175.577 303.373L178.768 307.517L182.56 310.46L186.405 311.652L189.007 312.254L193.144 314.16L197.751 315.993C197.817 316.018 197.882 316.054 197.936 316.096L205.233 321.648L210.519 325.332L222.383 331.451C222.461 331.49 222.526 331.54 222.58 331.598L228.55 337.767L235.098 342.623L240.241 346.204L244.688 346.796L247.902 346.787L251.069 346.184C251.159 346.173 251.248 346.171 251.325 346.179L255.974 346.796L264.773 349.92L267.493 351.181L278.874 358.642L284.881 362.981L289.494 366.05L299.983 370.295L314.037 378.994C314.174 379.077 314.275 379.199 314.329 379.343L316.983 386.131L318.358 394.911L319.632 399.637L321.442 401.885L328.424 406.017L340.128 405.408H350.128L361.456 406.028L367.135 405.43L370.004 403.832L370.611 399.847L370.605 395.727L368.016 387.309L364.123 382.478L359.456 376.287L354.777 368.832L347.521 359.637L336.907 346.691L332.96 341.185L320.43 331.376L317.126 328.921C317.079 328.882 317.031 328.841 316.995 328.794L313.007 323.858C312.918 323.747 312.864 323.614 312.852 323.476L312.191 313.601L313.525 300.532L314.84 294.988L314.18 283.357L312.864 277.291L312.852 268.511L313.537 265.289C313.561 265.151 313.638 265.027 313.739 264.927L315.727 263.074L320.424 259.335L330.383 253.769L334.847 249.024L336.794 243.607L338.77 237.457L340.842 234.207L346.908 227.93L354.842 218.705L366.879 208.745L375.439 199.553C375.487 199.506 375.534 199.465 375.594 199.429L377.582 198.195C377.635 198.159 377.701 198.132 377.76 198.112L383.737 196.26C383.802 196.24 383.862 196.229 383.927 196.226L393.22 195.61L399.25 195.607L405.589 194.415L409.447 192.023L413.774 187.975L414.417 180.829L415.739 171.643L414.429 164.343L412.447 156.995L409.774 140.888L409.768 130.288L409.119 127.343L409.107 124.736L409.792 122.095C409.863 121.816 410.113 121.605 410.423 121.567L419.06 120.416V103.756L418.399 85.2671L415.774 76.7999L413.756 58.1618L411.113 47.1368L410.435 37.7764V32.959L407.857 28.1725C407.822 28.1033 407.798 28.026 407.786 27.9456L407.119 23.0096C407.101 22.8824 407.125 22.7525 407.179 22.6335L409.833 17.078C409.881 16.984 409.947 16.9013 410.03 16.8321L415.34 12.5125L424.596 3.90727L427.744 0H390.826L388.666 4.68682L386.713 12.5902L383.338 18.9172L381.38 24.3785C381.356 24.4503 381.32 24.5168 381.267 24.5775L379.433 26.8589V42.0485L380.082 44.9965L381.368 47.958L384.064 61.6682L385.362 65.274L387.368 71.4627C387.386 71.5291 387.398 71.5983 387.398 71.6675V77.7344L390.017 85.654L391.963 89.249L393.327 93.0403C393.356 93.1122 393.368 93.1868 393.368 93.2641V101.286L391.368 111.899L391.38 114.864L392.041 122.208C392.047 122.286 392.041 122.363 392.017 122.438L390.69 127.377L390.713 142.63L389.374 148.94L388.743 154.225L389.249 155.17L392.487 158.174L402.381 165.526L407.119 170.551L409.197 173.737C409.268 173.847 409.304 173.974 409.304 174.101V176.568C409.304 176.679 409.274 176.787 409.226 176.883L407.899 179.353L405.155 182.566L403.244 186.144C403.208 186.21 403.161 186.271 403.107 186.327L401.119 188.177C400.976 188.309 400.78 188.384 400.577 188.384H396.595C396.5 188.384 396.404 188.367 396.309 188.334L389.767 185.904L383.237 185.295L378.671 185.298L373.409 184.692L371.022 185.248L367.26 187.577L364.021 191.791L353.366 203.56L342.782 217.699L334.77 226.396L330.752 230.137L325.424 233.251L319.537 240.551L314.942 247.887L309.007 260.771L306.393 271.752L306.411 287.641C306.411 287.718 306.4 287.793 306.37 287.865L303.715 295.27L302.423 308.685L302.429 315.41L303.072 317.705L306.304 325.503L310.174 329.101L317.448 335.251L322.746 339.559L326.805 343.95L334.193 355.78L336.919 364.579L340.848 371.86L342.812 374.902C342.884 375.009 342.919 375.137 342.919 375.264V380.2C342.919 380.277 342.907 380.352 342.878 380.424L341.55 384.127C341.521 384.21 341.479 384.287 341.413 384.356L338.097 388.059C337.996 388.175 337.854 388.255 337.699 388.291L335.044 388.908C334.984 388.922 334.919 388.93 334.859 388.93C334.74 388.93 334.627 388.905 334.52 388.855L331.865 387.622C331.782 387.583 331.704 387.531 331.645 387.47L323.68 379.448L318.948 372.557L313.757 366.537L309.876 364.128L303.322 361.086L292.738 356.784L282.69 351.189L276.868 349.403L266.148 344.426L262.766 341.937L250.909 337.037L246.896 335.17C246.831 335.14 246.772 335.104 246.718 335.06L238.753 328.274L232.824 323.99L217.681 316.654L207.787 312.982L201.727 309.857C201.632 309.807 201.549 309.741 201.489 309.661L199.501 307.194L196.858 304.127C196.816 304.081 196.781 304.028 196.757 303.972L194.102 298.42C194.066 298.348 194.048 298.273 194.043 298.196L193.388 291.565L186.84 281.212L181.524 272.565L178.833 266.948L172.863 255.24L159.029 239.34L155.63 233.682C155.6 233.629 155.576 233.571 155.558 233.511L154.892 231.041L153.546 221.709L153.54 214.928L152.273 210.799L149.011 205.943L140.343 189.844L137.879 186.999L118.33 177.306L114.604 177.884C114.407 177.92 114.193 177.876 114.038 177.763L109.389 174.677L106.252 172.929L101.758 172.332C101.675 172.323 101.597 172.299 101.526 172.265L93.5611 168.562L87.4535 164.169C87.3823 164.116 87.3169 164.05 87.2691 163.975L83.2869 157.806L80.5783 151.531L79.2152 145.871C79.1972 145.796 79.1914 145.721 79.2033 145.644L80.5308 133.914L81.858 125.861L81.8522 119.93L79.9472 115.196L75.352 109.098L65.387 95.5153L57.4463 85.6706L52.9161 80.8563L43.0586 75.3618L37.6831 71.6176L32.3317 67.2651L24.9861 60.4458L22.879 57.2245L17.5513 47.9357C17.4917 47.8336 17.4618 47.72 17.4618 47.604V42.6653C17.4618 42.5547 17.4917 42.4469 17.5452 42.3499L18.8727 39.8834C18.8965 39.8282 18.9321 39.7783 18.9799 39.7312L23.6291 34.7951C23.6827 34.7344 23.7539 34.6846 23.8312 34.6432L29.8079 31.5572L36.5285 29.049L44.9632 24.8237L50.8504 18.7456L57.47 11.3597C57.5175 11.3013 57.5829 11.2518 57.6484 11.2128L70.2562 3.81029L74.078 0.843302L74.6826 0H48.8902L44.517 2.5411L33.3557 12.3274Z" fill="black"/>
<path d="M22.0395 8.64665L5.37788 19.1881L0 21.9676V32.0157L15.1761 23.5487L32.3676 11.2518L43.5883 1.42653L46.03 0H32.6769L31.3792 1.20544L22.0395 8.64665Z" fill="black"/>
<path d="M197.328 16.0163L182.709 28.9853L159.457 48.135L144.153 59.2678L130.265 71.5624L126.474 76.2828L125.896 78.9734L129.765 86.163L132.45 93.0237L133.783 96.7428L137.135 112.878L140.439 124.556L142.415 130.065L144.397 134.978L149.629 142.237L161.594 160.154L164.844 163.773L176.786 176.726L186.751 187.839L194.096 197.767L203.353 208.205L213.293 218.68L216.55 222.311L223.753 226.573C223.824 226.617 223.889 226.669 223.943 226.733L231.241 235.372L234.58 239.716L239.271 247.174L242.652 257.195C242.676 257.261 242.688 257.333 242.688 257.405V259.255L244.003 266.545L245.956 273.176L248.563 277.418L250.504 281.026L255.034 284.635L258.897 286.316L263.998 282.171L267.231 278.549L269.118 276.79L269.654 274.804L263.183 265.187L258.522 257.762L255.284 254.156L252.552 249.734C252.51 249.668 252.48 249.596 252.462 249.522L251.802 246.436L251.129 242.077C251.117 241.997 251.123 241.917 251.135 241.84L251.795 238.754C251.819 238.668 251.855 238.585 251.903 238.513L256.552 231.727L259.79 226.293L261.76 218.368L262.409 212.898C262.415 212.815 262.445 212.732 262.486 212.658L265.141 207.724C265.189 207.636 265.255 207.559 265.338 207.495L269.32 204.409L279.404 199.393L283.232 197.014L287.149 192.767L289.53 190.004L289 188.517L283.702 176.214L281.095 169.555L277.892 166.58L273.844 161.569C273.761 161.47 273.713 161.354 273.696 161.232L273.035 156.296C273.017 156.157 273.041 156.017 273.106 155.892L275.761 150.953L278.464 147.173C278.523 147.096 278.595 147.029 278.678 146.977L282.66 144.51L288.536 141.471L291.756 137.282L292.941 135.061V128.779L289.911 126.522C289.81 126.445 289.726 126.345 289.679 126.232L288.345 123.149C288.286 123.01 288.273 122.858 288.315 122.714L288.982 120.245C289 120.165 289.036 120.09 289.083 120.024L291.738 116.321L293.655 113.951L294.25 111.186L292.303 104.558C292.292 104.497 292.28 104.436 292.28 104.372V95.7336L293.613 86.3841L294.947 80.168L296.262 77.0874V71.0507L294.947 63.7614L291 54.0222C290.97 53.9418 290.952 53.8591 290.952 53.7733V50.7867L289.655 46.5613L288.964 42.1482L288.958 35.2627L289.649 32.6216C289.666 32.5528 289.696 32.489 289.732 32.4283L293.714 26.2587L297.102 22.4677L299.798 19.9514L305.018 16.3011L306.233 13.4888L306.888 8.0329C306.894 7.94983 306.923 7.8698 306.965 7.79521L308.209 5.47791V2.10707L307.076 0H286.711L286.494 1.4211L285.155 7.02922L282.47 13.9035L281.136 17.0119L279.089 20.2003L275.064 23.9692L272.457 28.2084L270.511 32.4558L269.892 35.9955L269.904 45.0185L271.189 48.6131L272.475 50.9888L273.761 52.7639C273.844 52.8802 273.886 53.0185 273.886 53.1565V64.2646L271.928 71.637L273.184 75.1461C273.213 75.218 273.225 75.2953 273.225 75.3699V80.306C273.225 80.3809 273.213 80.4582 273.184 80.5301L271.856 84.2329C271.838 84.2909 271.809 84.3489 271.773 84.4014L269.118 88.1042L266.368 90.6813L259.784 98.6345L255.885 102.865L254.605 107.035L253.968 113.08C253.962 113.166 253.933 113.252 253.897 113.326L249.962 120.638L249.313 124.235C249.301 124.315 249.272 124.396 249.23 124.465L243.259 134.337L239.265 140.528L235.825 143.747L232.729 147.206V150.494L237.973 160.842C238.021 160.936 238.045 161.038 238.045 161.143V162.164L241.837 167.451L245.736 170.471L252.278 174.113L253.992 174.627H258.207L259.808 173.136L260.433 170.261C260.475 170.064 260.599 169.895 260.784 169.79L264.106 167.94C264.225 167.877 264.362 167.841 264.499 167.841H266.487L269.659 167.235C269.963 167.194 270.279 167.302 270.445 167.537L274.428 173.092L276.481 177.525C276.517 177.613 276.541 177.707 276.541 177.804V183.357L275.874 190.209C275.862 190.356 275.803 190.494 275.695 190.607L271.713 194.927L263.106 201.707L259.849 207.149C259.79 207.249 259.707 207.332 259.606 207.395L255.623 209.862L246.164 213.026C246.081 213.053 245.997 213.067 245.908 213.067C245.878 213.067 245.849 213.064 245.819 213.062L228.562 211.211C228.485 211.203 228.401 211.181 228.324 211.15L217.038 206.212C216.984 206.184 216.925 206.154 216.877 206.115L208.912 199.946L206.799 197.358L202.269 193.765L189.608 182.008L178.298 170.255L172.387 165.374C172.315 165.316 172.256 165.244 172.214 165.161L168.946 159.094L167.702 157.941C167.654 157.894 167.613 157.842 167.577 157.784L164.261 152.231L152.35 136.248C152.302 136.187 152.273 136.123 152.249 136.054L148.933 126.179L143.611 107.641L142.939 104.51L139.647 95.9713L138.29 89.072C138.278 89.0001 138.272 88.9282 138.284 88.8563L139.611 78.9842C139.623 78.8818 139.665 78.7852 139.718 78.6967L143.034 73.7606C143.141 73.606 143.308 73.4951 143.498 73.4511L145.933 72.8841L153.743 65.017L164.428 56.3256L180.988 41.5371L199.626 27.3095L203.549 23.6538L215.55 14.3545L229.538 5.06863L236.277 1.9243L239.652 0.663588L242.929 0H224.214L205.871 8.07427L197.328 16.0163Z" fill="black"/>
<path d="M171.44 3.67499C171.381 3.72755 171.315 3.77435 171.238 3.80758L157.963 9.97687L135.498 24.7298L132.861 26.5713L126.194 30.9045L118.824 34.6486L110.788 37.7652L102.71 39.6512L96.8648 42.079L92.3886 44.4597L86.5014 50.5436L82.5307 54.8516L76.7388 62.0304V70.9513L78.0365 75.1767L81.1913 81.0086L96.0673 87.6204H99.2103C99.3591 87.6204 99.508 87.6617 99.6328 87.7391L101.621 88.9754C101.704 89.0279 101.776 89.094 101.835 89.1717L103.163 91.0214C103.246 91.1377 103.288 91.2733 103.288 91.4144V93.1315L106.556 101.032L112.544 117.098L113.836 119.484L120.455 130.562L123.753 135.471L125.14 138.664L127.771 143.551L129.795 148.553L131.807 154.767L134.409 159.589L137.742 166.403L140.296 169.34L144.32 174.942L150.249 181.676L154.219 185.981L160.88 194.033L167.499 201.417L173.5 208.847L175.536 211.997L179.548 219.449L182.804 223.672L190.102 235.994L194.013 239.627C194.096 239.705 194.156 239.799 194.191 239.904L196.18 245.457L200.846 262.787L204.109 268.815L210.043 277.387L211.984 280.393L217.204 284.638L219.818 286.457L226.58 293.976L229.312 298.398L233.211 302.607L237.836 309.954L242.307 312.326L248.212 314.763L251.611 316.654L260.766 319.679L270.017 322.132L274.13 324.032L278.261 327.206L280.273 328.124L281.749 326.75L283.69 321.355L284.297 317.876L282.994 310.59L281.696 306.995C281.654 306.884 281.642 306.768 281.666 306.655L282.333 302.952C282.345 302.883 282.369 302.814 282.398 302.753L286.381 295.348L288.339 290.478C288.381 290.384 288.44 290.298 288.518 290.226L289.708 289.12L290.982 284.978L292.952 275.778L292.941 261.725L293.595 258.619L292.946 254.419L292.286 249.472L292.28 243.211L294.28 233.818L295.601 225.218L296.935 217.795L296.923 211.126C296.923 211.034 296.941 210.946 296.976 210.863L298.304 207.777L299.709 205.797C299.798 205.667 299.935 205.567 300.096 205.518L302.09 204.898L306.596 202.49L310.537 200.045L320.561 195.073L322.269 194.011L322.847 192.388L323.49 188.793L323.478 185.209L322.906 183.18L321.162 182.096L319.716 180.771C319.662 180.719 319.615 180.655 319.579 180.589L318.912 179.356L317.555 176.214C317.495 176.076 317.484 175.924 317.525 175.78L318.192 173.313C318.216 173.222 318.257 173.136 318.323 173.062L320.305 170.592L322.978 167.487C323.055 167.396 323.156 167.324 323.275 167.279L327.788 165.482L334.979 158.79L341.395 154.014V146.949L340.086 141.551L336.83 135.542L334.788 128.624L334.103 124.219L335.425 106.795L334.758 98.2527L335.425 90.1255L336.109 87.54L337.425 80.7983C337.443 80.7237 337.467 80.6519 337.508 80.5854L341.491 73.7966L342.104 72.0601L344.711 62.9513L344.056 48.8678L344.717 41.3737L343.39 22.3487V13.0463L342.735 8.19872L341.431 2.17319L340.263 0H323.042L323.019 0.10749L323.668 4.30806L323.008 17.3988V22.3046L323.674 29.6492C323.68 29.7153 323.674 29.7818 323.662 29.8455L321.668 39.1035L321.025 44.4987L322.335 51.8073L321.68 59.3842L322.341 64.8041C322.353 64.8953 322.347 64.9865 322.317 65.075L319.662 73.7139L319.013 76.7446L317.698 93.3167V97.5864L318.358 102.434L320.305 107.21C320.335 107.29 320.353 107.373 320.353 107.459V114.247C320.353 114.316 320.341 114.385 320.323 114.449L318.335 120.618L317.013 126.724L317.031 127.822L318.353 135.111L319.019 141.328C319.031 141.427 319.019 141.527 318.984 141.621L316.989 147.173C316.954 147.278 316.894 147.372 316.811 147.45L307.519 156.089L302.935 161.577L301.685 163.925L300.56 167.628L302.09 168.576C302.173 168.629 302.245 168.695 302.304 168.773L303.625 170.623L307.697 181.272C307.727 181.346 307.739 181.427 307.739 181.507V191.996C307.739 192.147 307.685 192.297 307.584 192.419L305.596 194.888L302.203 198.049C302.131 198.118 302.048 198.17 301.953 198.206L298.637 199.443L294.607 200.69L291.44 202.476L288.851 204.287L285.613 207.307C285.553 207.359 285.488 207.406 285.41 207.44L281.428 209.29L278.16 210.506L275.142 212.752L274.541 215.583L274.553 222.734L275.809 226.238L278.41 229.86C278.446 229.913 278.476 229.971 278.493 230.029L279.821 233.732L280.517 240.059L280.523 246.297C280.523 246.372 280.511 246.449 280.487 246.521L279.827 248.374C279.797 248.446 279.761 248.512 279.708 248.576L273.808 255.884L273.309 257.287L276.326 261.219L283.529 266.088C283.66 266.174 283.755 266.296 283.803 266.437L286.458 273.842C286.5 273.953 286.512 274.069 286.488 274.182L284.494 285.287L282.47 290.359C282.428 290.453 282.369 290.539 282.297 290.611L277.648 294.93L270.945 299.919L266.368 304.185L262.415 308.466C262.362 308.524 262.302 308.571 262.23 308.61L258.915 310.46L256.772 311.146C256.689 311.17 256.611 311.182 256.528 311.182C256.379 311.182 256.23 311.14 256.105 311.063L254.117 309.827C254.034 309.774 253.962 309.708 253.903 309.63L252.575 307.78L249.188 300.253L247.158 292.118L241.962 281.886L234.08 274.567C234.009 274.495 233.949 274.412 233.908 274.318L228.598 261.36L223.991 249.715L219.395 243.618L214.222 237.006L211.109 235.847L206.543 233.43H203.424C203.287 233.43 203.15 233.394 203.031 233.328L199.716 231.476C199.608 231.414 199.513 231.329 199.448 231.227L194.798 223.824L176.31 204.813L170.905 196.049L160.987 183.152L155.064 177.041L149.016 168.311L139.766 157.258L137.034 152.203C136.998 152.142 136.974 152.073 136.962 152.004L136.296 148.302L132.343 137.301L127.075 127.523L123.051 116.321L115.77 100.955L107.824 86.8045L101.847 75.6853L99.7935 67.5056C99.7698 67.3977 99.7698 67.2845 99.7996 67.1767L100.46 64.7098C100.502 64.5525 100.603 64.4114 100.74 64.3144L106.056 60.612C106.115 60.5703 106.181 60.537 106.252 60.5123L113.55 58.0427L121.491 56.1957L135.337 48.84L142.659 45.1291L150.528 39.6318L161.124 31.6264L177.077 20.5014L182.923 13.8343L191.566 4.55967L195.491 0H176.4L173.315 1.91074L171.44 3.67499Z" fill="black"/>
<path d="M490.748 499.38L476.879 498.767L461.58 497.531L454.86 496.286L440.234 493.197L417.149 489.52L411.953 490.122C411.881 490.122 411.804 490.125 411.744 490.12L398.47 488.27L387.297 488.278L381.409 488.889C381.243 488.914 381.052 488.87 380.903 488.776L378.909 487.542C378.767 487.454 378.659 487.327 378.606 487.177L377.945 485.325L374.808 477.72L366.153 476.573L363.022 477.737L355.063 480.817L343.026 483.934L337.086 485.773L331.806 487.617C331.722 487.645 331.627 487.661 331.538 487.661H323.049L309.245 492.55C309.156 492.581 309.066 492.597 308.971 492.597H307.644L303.536 491.972C303.382 491.947 303.233 491.879 303.12 491.773L301.125 489.921L297.929 485.192H296.077L294.387 487.285L293.762 489.028C293.744 489.086 293.714 489.144 293.679 489.196L291.024 492.899C290.964 492.976 290.893 493.043 290.809 493.095L286.821 495.564L279.448 500H362.17L366.379 498.045L370.986 495.595C371.07 495.551 371.165 495.52 371.26 495.509L380.552 494.276L393.273 494.268L422.548 496.737L429.269 497.984L438.876 500H495.75L490.748 499.38Z" fill="black"/>
<path d="M184.089 14.7471L178.125 21.5162L162.065 32.7433L151.469 40.7488L143.48 46.3182L136.081 50.0763L122.158 57.4734C122.092 57.5063 122.027 57.5314 121.961 57.5453L113.997 59.395L106.883 61.8093L101.871 65.2961L101.323 67.3537L103.27 75.2126L109.181 86.163L117.14 100.343L124.468 115.812L128.474 126.981L133.748 136.762L137.766 147.961L138.444 151.667L141.052 156.509L150.26 167.495L156.273 176.186L162.172 182.267L172.184 195.286L177.536 203.986L190.715 217.436L196.031 222.997L200.668 230.356L203.638 232.015H206.745C206.877 232.015 207.008 232.048 207.12 232.109L211.77 234.575L214.996 235.767C215.127 235.817 215.24 235.903 215.329 236.008L220.639 242.793L225.294 248.977C225.33 249.027 225.36 249.082 225.384 249.14L230.027 260.865L235.277 273.674L243.134 280.971C243.194 281.029 243.247 281.095 243.283 281.17L248.593 291.659L250.635 299.825L253.915 307.117L255.087 308.726L256.641 309.691L258.278 309.182L261.338 307.457L265.249 303.223L269.927 298.865L276.63 293.876L281.1 289.718L283.029 284.923L284.958 274.124L282.44 267.1L275.332 262.297C275.267 262.253 275.208 262.198 275.16 262.137L271.844 257.817C271.701 257.632 271.665 257.397 271.737 257.181L272.398 255.329C272.428 255.257 272.463 255.188 272.517 255.127L278.416 247.818L278.999 246.184V240.128L278.344 234.025L277.083 230.568L274.481 226.943C274.446 226.89 274.416 226.835 274.398 226.774L273.071 223.074C273.041 223.002 273.029 222.928 273.029 222.851V215.445L273.701 212.221C273.737 212.058 273.833 211.911 273.975 211.806L277.297 209.337C277.356 209.292 277.422 209.259 277.487 209.232L280.803 207.998L284.619 206.226L287.851 203.22L290.589 201.303L293.976 199.412L298.113 198.112L301.239 196.946L304.453 193.964L306.215 191.761V181.628L302.274 171.25L301.12 169.677L299.256 168.518C298.982 168.347 298.858 168.032 298.947 167.736L300.274 163.417L301.655 160.828L306.376 155.154L315.602 146.567L317.489 141.316L316.846 135.296L315.519 127.938L315.507 126.586L316.859 120.278L318.829 114.145V107.586L316.888 102.771L316.18 97.6749L316.174 93.2641L317.501 76.5537L318.186 73.3819L320.811 64.8207L320.162 59.4035L320.823 51.8653L319.508 44.634C319.495 44.5706 319.49 44.5041 319.501 44.4404L320.162 38.8879L322.145 29.6658L321.484 22.3626V17.3659L322.15 4.37453L321.489 0.187853C321.48 0.126817 321.489 0.0627306 321.499 0H308.775L309.65 1.62591C309.703 1.72255 309.733 1.83038 309.733 1.94092V5.64372C309.733 5.75426 309.703 5.86209 309.65 5.95907L308.388 8.31502L307.733 13.7404C307.727 13.8041 307.709 13.8675 307.685 13.9258L306.358 17.0119C306.304 17.1336 306.221 17.2384 306.108 17.316L300.798 21.0185L298.227 23.4216L294.952 27.0772L291.101 33.0668L290.458 35.434L290.482 42.0485L291.143 46.2684L292.447 50.4937C292.464 50.5575 292.476 50.6209 292.476 50.6873V53.6462L296.411 63.3965L297.774 70.9347L297.786 77.2227C297.786 77.3143 297.768 77.4024 297.733 77.4855L296.405 80.5688L295.119 86.6164L293.798 95.8276L293.804 104.278L295.768 110.976C295.798 111.081 295.798 111.191 295.78 111.299L295.119 114.385C295.095 114.49 295.048 114.587 294.976 114.673L292.982 117.14L290.428 120.707L289.851 122.836L291.018 125.532L294.179 127.885C294.357 128.021 294.464 128.223 294.464 128.438V135.227C294.464 135.338 294.435 135.446 294.381 135.542L293.054 138.009L289.673 142.425C289.607 142.511 289.524 142.58 289.423 142.633L283.452 145.719L279.648 148.077L277.083 151.661L274.576 156.332L275.184 160.87L279.041 165.653L282.297 168.665C282.374 168.737 282.434 168.825 282.47 168.925L285.125 175.711L290.428 188.03L291.107 189.922C291.191 190.148 291.143 190.4 290.982 190.588L288.321 193.671L284.321 198.01C284.279 198.057 284.226 198.101 284.166 198.137L280.184 200.607L270.166 205.579L266.439 208.488L263.909 213.18L263.261 218.606L261.254 226.711C261.237 226.774 261.213 226.835 261.177 226.893L257.861 232.449L253.266 239.16L252.659 241.997L253.302 246.198L253.933 249.132L256.528 253.352L259.766 256.952L264.492 264.454L271.118 274.307C271.225 274.47 271.261 274.666 271.207 274.854L270.546 277.324C270.517 277.448 270.445 277.561 270.344 277.653L268.35 279.503L265.082 283.158L259.683 287.558C259.546 287.671 259.367 287.732 259.183 287.732H258.522C258.403 287.732 258.284 287.707 258.183 287.657L254.201 285.805L249.396 282.008C249.319 281.947 249.254 281.873 249.206 281.787L247.218 278.084L244.587 273.801C244.551 273.748 244.527 273.693 244.515 273.635L242.521 266.846L241.176 259.371L241.164 257.516L237.884 247.741L233.3 240.485L230.02 236.221L222.824 227.701L215.627 223.448C215.562 223.409 215.502 223.359 215.454 223.304L212.139 219.601L202.192 209.124L192.882 198.618L185.542 188.694L175.625 177.641L160.362 160.98L148.344 143.003L143.046 135.62L140.98 130.537L138.98 124.96L135.647 113.191L132.313 97.0995L131.015 93.4882L128.366 86.7188L124.414 79.3881C124.343 79.2497 124.319 79.0894 124.348 78.9344L125.009 75.8484C125.033 75.7433 125.081 75.6466 125.152 75.5608L129.134 70.6248L143.159 58.1977L158.481 47.0456L181.679 27.9429L196.263 15.0041L204.876 6.99327C204.936 6.94072 205.001 6.89358 205.079 6.86035L207.734 5.6271L220.59 0H197.443L192.739 5.46672L184.089 14.7471Z" fill="black"/>
<path d="M422.328 498.136L393.202 495.681L380.659 495.683L371.617 496.889L367.099 499.292L365.575 500H431.957L428.953 499.37L422.328 498.136Z" fill="black"/>
<path d="M194.453 46.4203L187.971 51.2404L176.732 61.0765L170.744 66.0261L155.047 84.888L154.404 93.3139L154.993 97.0802L157.678 98.0784L159.862 97.5698L164.356 92.7968L168.922 88.5468L171.518 82.5128L176.196 73.8217C176.232 73.7525 176.28 73.6888 176.333 73.6362L194.257 56.9756L198.043 51.0715L198.626 46.1633L197.995 45.8703L194.453 46.4203Z" fill="black"/>
<path d="M499.666 484.553C499.57 484.575 499.463 484.584 499.374 484.567L480.79 482.098L467.539 480.87L464.152 480.242L456.27 479.637L444.96 478.4L438.264 477.156L430.972 475.926L423.019 474.695L417.084 474.078L403.744 471.603L391.082 468.509L379.249 467.292L370.647 466.679L364.266 466.681L359.801 469.054L355.682 470.348L341.092 475.278L331.835 478.965L321.871 482.676C321.775 482.709 321.68 482.725 321.585 482.725H315.608C315.525 482.725 315.448 482.714 315.364 482.689L307.399 480.22L298.715 475.273L288.327 472.856L279.821 473.465L276.892 474.015L273.743 478.11L272.475 480.48L270.511 484.763C270.481 484.827 270.439 484.885 270.392 484.938L267.07 488.64C267.022 488.698 266.957 488.748 266.891 488.787L261.582 491.873C261.522 491.906 261.463 491.934 261.397 491.95L254.76 493.8C254.689 493.82 254.611 493.831 254.54 493.831H243.254L236.467 492.584C236.348 492.562 236.235 492.512 236.14 492.442L226.271 485.103L223.056 483.909C222.961 483.873 222.877 483.82 222.8 483.751L220.806 481.899L212.895 475.773L209.061 474.009L206.888 473.52L201.192 477.051L200.287 477.911L201.507 482.463C201.555 482.626 201.531 482.8 201.454 482.949L200.793 484.183C200.71 484.329 200.578 484.448 200.418 484.514L194.441 486.984C194.269 487.056 194.078 487.067 193.888 487.009L191.9 486.389C191.709 486.328 191.554 486.201 191.459 486.033L188.804 481.097L182.238 470.73L178.631 467.375L176.678 467.826L175.518 469.449L173.547 472.505C173.41 472.721 173.16 472.851 172.893 472.851H170.898C170.815 472.851 170.738 472.839 170.66 472.815L164.69 470.965C164.577 470.929 164.475 470.871 164.386 470.793L159.737 466.474L152.493 460.965L145.314 457.34L139.194 452.307L134.432 446.016C134.373 445.936 134.331 445.845 134.307 445.748L132.313 436.493L127.7 424.873L121.056 406.34L115.818 398.465L109.246 391.145L90.1204 377.678L76.4411 372.253L65.2679 371.03L52.2552 371.644L44.4038 374.683L36.3854 377.169L27.6947 379.038L9.6283 379.675C9.55064 379.675 9.46757 379.672 9.38992 379.647L4.74108 378.414C4.66953 378.397 4.60409 378.369 4.54475 378.334L0 375.692V385.007L6.19948 384.431L16.8488 383.811L34.7368 381.967L43.3384 380.734L50.6243 380.725L58.4818 378.295L64.6071 377.648L71.9944 377.642C72.1432 377.642 72.2921 377.684 72.4172 377.761L82.3761 383.93L95.7516 395.73L99.0197 398.16L102.401 401.296C102.472 401.36 102.526 401.435 102.568 401.517L106.55 410.156L109.187 415.059C109.235 415.156 109.264 415.264 109.264 415.374V433.269C109.264 433.343 109.252 433.42 109.223 433.492L107.895 437.195C107.871 437.267 107.836 437.334 107.782 437.394L105.794 439.861C105.758 439.913 105.711 439.958 105.657 439.996L99.6806 444.316L92.4004 448.016L89.1741 451.616L83.257 460.183L78.6913 472.375L77.3878 479.664L77.3997 488.187L79.9608 500H276.586L276.684 499.939L289.839 491.995L292.351 488.491L292.982 486.73C293.006 486.658 293.042 486.589 293.095 486.528L295.089 484.058C295.232 483.881 295.459 483.776 295.697 483.776H298.351C298.613 483.776 298.858 483.903 299 484.108L302.316 489.044L304.025 490.612L307.769 491.19L308.828 491.181L322.644 486.29C322.728 486.262 322.823 486.246 322.912 486.246H331.401L336.58 484.437L342.586 482.579L354.569 479.482L365.772 475.187C365.903 475.143 366.034 475.129 366.164 475.146L375.457 476.379C375.725 476.415 375.957 476.581 376.058 476.816L377.385 479.902L379.975 486.5L381.517 487.454L387.213 486.868L398.583 486.862L411.869 488.707L417.072 488.101C417.149 488.095 417.221 488.093 417.292 488.104L425.263 489.337L440.531 491.809L455.175 494.901L461.794 496.131L476.98 497.354L490.885 497.97L500 499.097V484.476L499.666 484.553Z" fill="black"/>
<path d="M0 20.3478L4.58035 17.9823L21.1168 7.52394L30.3436 0.168525L30.5247 0H1.03183L0 0.863308V20.3478Z" fill="black"/>
<path d="M66.5894 488.264L66.5836 465.357L67.9348 460.246L70.5956 451.586L74.6314 444.061L78.6079 436.059L81.2273 428.125L82.5962 425.548L83.8464 422.641V415.374L82.5785 409.534L76.0722 402.889L60.357 391.336L53.3091 389.547H50.9457L45.148 392.544L42.4632 393.791L39.0879 395.052L34.2665 395.711L27.671 396.938L23.6586 397.561L10.3366 398.799L0.252618 398.183C0.151232 398.176 0.0857883 398.106 0 398.066V408.008L3.72891 408.503L9.68187 409.117L16.825 408.497L34.8199 407.878C34.9094 407.878 35.0047 407.894 35.0878 407.922L40.3978 409.772C40.5345 409.819 40.6535 409.902 40.7369 410.01L42.7311 412.479L44.1359 415.059L45.2966 416.674L47.6837 417.783L54.2199 419C54.2853 419.011 54.3508 419.033 54.4101 419.061L57.0652 420.294C57.1425 420.327 57.2079 420.374 57.2676 420.426L60.5893 423.512C60.6428 423.565 60.6903 423.629 60.7262 423.698L63.387 428.634C63.4226 428.706 63.4464 428.783 63.4582 428.861L64.1191 433.797C64.1371 433.921 64.1191 434.048 64.0655 434.164L62.0775 438.484L60.101 443.981L58.7914 448.867L57.4582 453.209L55.4579 458.792L54.8269 464.809L54.1721 476.498L53.5055 486.381L54.1602 493.587L56.6671 500H67.9942L66.5894 488.264Z" fill="black"/>
<path d="M52.6961 493.98C52.672 493.922 52.6544 493.861 52.6483 493.797L51.9816 486.395L52.6483 476.418L53.3091 464.701L53.9815 458.496L56.0055 452.791L57.3212 448.502L58.6426 443.586L60.6547 437.98L62.5834 433.783L61.9642 429.156L59.4225 424.433L56.2734 421.508L53.8208 420.368L47.285 419.152C47.2195 419.141 47.1541 419.119 47.0944 419.091L44.4394 417.857C44.3203 417.802 44.2193 417.719 44.1477 417.617L42.8145 415.767L41.4395 413.22L39.6535 411.027L34.6832 409.294H33.4924L16.9261 409.91L9.67 410.524L3.53868 409.905L0 409.435V430.198C0.1926 430.3 0.349596 430.459 0.389608 430.675L2.38376 441.166L3.6516 445.272L6.86035 448.859L11.5689 455.72L12.6404 456.696L15.0926 457.266L18.8907 457.243L24.1052 456.632C24.2004 456.619 24.3195 456.624 24.4086 456.654L29.0578 457.888L34.3438 459.116C34.4808 459.146 34.5998 459.209 34.7009 459.301L36.0284 460.537C36.1711 460.67 36.2488 460.849 36.2488 461.037V470.909C36.2488 470.973 36.2366 471.034 36.2189 471.095L34.2546 477.792V485.101L36.1854 500H55.0622L52.6961 493.98Z" fill="black"/>
<path d="M448.443 1.49299L445.091 9.59812L438.394 19.5947L436.382 21.4861L434.442 25.0892L433.864 26.7371V32.1764L434.472 34.3499L441.038 43.5086C441.085 43.575 441.121 43.6496 441.139 43.73L442.466 48.6657L443.776 52.3159C443.817 52.4211 443.829 52.5316 443.811 52.6394L443.151 56.959L441.811 62.5668L441.157 67.4364L441.162 72.9034L442.472 78.3013L443.145 82.0428L443.811 87.0063C443.823 87.1033 443.817 87.1972 443.788 87.2884L440.472 97.7882C440.442 97.8685 440.401 97.9458 440.347 98.0123L434.371 105.415C434.299 105.501 434.21 105.573 434.103 105.622L433.132 106.073L432.573 109.756L433.609 111.203L436.704 112.353C436.876 112.419 437.02 112.541 437.103 112.696L438.43 115.165C438.502 115.304 438.525 115.464 438.496 115.619L437.835 118.705L437.847 130.905L439.145 137.467L440.424 139.848L443.056 144.131C443.091 144.184 443.115 144.239 443.133 144.297L445.121 151.083L446.455 156.672L446.472 161.76C446.472 161.887 446.437 162.014 446.365 162.122L444.46 165.081L443.811 169.871L443.163 173.493L443.811 177.705L443.817 182.74C443.817 182.804 443.806 182.865 443.794 182.925L441.805 189.714C441.782 189.781 441.752 189.844 441.716 189.905L438.394 194.841L437.097 197.247L433.686 201.088L427.668 206.69L420.334 212.882C420.268 212.937 420.197 212.981 420.114 213.012L412.149 216.098L396.785 219.833L392.845 221.053L388.356 222.845L385.118 225.254L379.79 228.97L374.522 233.256L361.289 245.564L358.009 249.22C357.866 249.38 357.652 249.474 357.426 249.474H356.098C356.003 249.474 355.902 249.458 355.813 249.425L352.497 248.189L348.563 246.969C348.449 246.933 348.348 246.875 348.265 246.798L347.598 246.181C347.455 246.048 347.372 245.869 347.372 245.68V243.211C347.372 243.07 347.413 242.934 347.497 242.819L348.771 241.046L349.354 239.426L349.253 239.472L348.122 240.526L346.854 243.474L343.503 249.699L338.877 260.14L335.592 270.562L332.258 279.843L330.96 285.929L329.633 292.704L328.978 299.429L328.311 304.39L328.317 313.557L328.943 316.383L330.865 319.367L335.431 324.198C335.502 324.27 335.55 324.353 335.58 324.441L336.907 328.144L340.836 334.814L342.205 337.977L344.83 342.861L350.753 350.794L358.027 359.4L364.647 366.788L368.004 371.149L373.903 376.613L379.957 384.732L388.57 395.199L390.493 396.977L392.6 400.199C392.648 400.273 392.678 400.353 392.696 400.436L394.023 407.225L394.696 414.697C394.714 414.904 394.63 415.109 394.476 415.255L391.16 418.341C391.1 418.394 391.035 418.441 390.958 418.474L388.303 419.708C388.225 419.744 388.142 419.766 388.058 419.777L382.749 420.396L379.332 420.402C379.195 420.402 379.058 420.366 378.939 420.299L375.623 418.447L366.486 414.207L361.968 413.605L352.729 412.993L350.789 412.996L343.33 414.16L342.181 416.306C342.122 416.417 342.032 416.511 341.919 416.58L339.925 417.813C339.824 417.877 339.705 417.919 339.58 417.929L332.943 418.546C332.806 418.554 332.681 418.538 332.568 418.491L327.925 416.641L324.508 414.744L320.377 410.936L313.662 402.209L310.281 395.946L307.024 391.72C306.959 391.637 306.917 391.546 306.894 391.447L305.566 385.274L304.429 382.653L302.423 382.183L300.018 383.303C299.881 383.363 299.721 383.388 299.584 383.372L294.274 382.755C294.143 382.739 294.018 382.691 293.911 382.62L291.256 380.767L285.267 376.439L280.023 373.395L274.029 369.684L262.79 361.084L258.945 359.892L254.432 359.303L247.902 359.311L243.146 358.686L227.884 356.836L222.407 354.948L217.651 352.429C217.597 352.398 217.544 352.359 217.496 352.315L214.174 349.232L206.257 343.104L195.036 333.287L190.512 331.484L187.703 329.551L173.762 319.679L171.024 317.143L167.66 313.394C167.613 313.344 167.577 313.291 167.547 313.233L164.231 306.445L159.618 299.105L154.987 292.339L150.957 284.234L150.249 281.643L148.951 276.217L145.201 271.575L138.236 269.219H137.712C137.617 269.219 137.522 269.202 137.426 269.169L130.789 266.702C130.724 266.674 130.652 266.639 130.593 266.594L116.753 256.175L111.556 254.366C111.413 254.317 111.294 254.228 111.205 254.115L105.907 247.337C105.859 247.284 105.824 247.226 105.8 247.163L103.806 242.227C103.776 242.146 103.758 242.064 103.758 241.978V238.275C103.758 238.165 103.788 238.057 103.841 237.957L108.419 229.443L109.056 221.725L107.794 218.791L103.151 208.308L101.163 201.547L98.5731 197.941L92.0074 191.238L89.3765 188.793L74.959 179.057L71.0897 177.859C70.9768 177.824 70.8754 177.766 70.7862 177.688L66.9108 174.082L62.4939 172.321L57.9461 171.715C57.8213 171.698 57.6962 171.654 57.5948 171.582L49.6304 166.03L42.9097 159.791L40.8502 157.25L38.1415 152.856L36.7428 148.379C36.7069 148.254 36.7011 148.125 36.7428 148L38.737 141.211L40.743 136.212C40.7847 136.118 40.844 136.032 40.9156 135.96L44.7072 132.434L45.993 121.083L44.0647 113.893L41.5287 109.767L28.3552 99.3588L20.4203 93.831L12.4498 86.4312L6.5745 83.395L0 80.8502V103.809C0.0915528 103.859 0.199382 103.88 0.264486 103.966L4.91367 110.138C4.97911 110.226 5.02082 110.323 5.03879 110.428L5.66949 113.959L7.48528 116.208L10.0569 118L19.1881 121.617C19.3013 121.658 19.3966 121.724 19.4739 121.81L26.7778 129.832C26.8673 129.929 26.9209 130.045 26.9446 130.172L28.2722 137.578L30.2663 149.93L31.5935 159.197L33.5581 168.303L36.814 173.759L40.1713 181.236L41.487 185.489L48.017 192.775L52.0114 198.945L57.8986 203.809L63.7858 207.451L72.2148 211.057L76.7449 211.659L84.1441 213.526C84.2214 213.545 84.2987 213.579 84.3641 213.62L88.3467 216.089C88.4894 216.178 88.5905 216.305 88.6441 216.454L89.9716 220.157C90.0133 220.262 90.0252 220.373 90.0075 220.481L89.3466 224.8L85.9894 233.577L84.0251 237.841L83.3998 243.051L85.2631 245.932L90.4599 250.733L95.7635 257.502L99.6328 259.902C99.7043 259.947 99.7698 260.002 99.8172 260.065L103.8 265.001L107.83 271.232C107.901 271.342 107.937 271.469 107.937 271.597V274.683L109.252 281.344L109.907 286.2L110.514 287.326L113.8 292.201L118.396 297.698C118.443 297.754 118.479 297.817 118.509 297.883L120.426 302.626L122.902 304.351L128.093 306.755C128.17 306.787 128.236 306.835 128.295 306.887L130.95 309.354L133.7 313.164L135.67 317.403L139.462 319.757L142.534 320.885L149.07 321.49L161.19 325.226L180.56 335.154L184.602 337.651C184.673 337.695 184.738 337.75 184.786 337.814L188.769 342.75L195.471 354.572L198.156 363.238L200.65 366.719L217.675 376.461L222.074 377.628L232.539 376.412L236.973 375.225L240.206 373.425C240.349 373.348 240.473 373.314 240.676 373.326L253.296 374.562C253.373 374.567 253.444 374.587 253.51 374.614L259.522 377.1C259.599 377.134 259.665 377.18 259.718 377.233L261.6 378.975L270.094 382.011L273.517 383.914L276.987 387.105C277.041 387.16 277.088 387.221 277.13 387.29L277.684 388.333L290.101 395.014L293.327 396.203C293.405 396.233 293.482 396.278 293.548 396.333L299.518 401.269C299.62 401.349 299.691 401.454 299.732 401.573L300.346 403.268L302.875 405.616C302.941 405.679 302.994 405.754 303.036 405.837L305.025 410.156L306.287 411.896L310.84 416.107L318.186 424.173L319.472 425.362L322.394 426.975L326.103 426.399L331.966 424.574L343.985 422.086L353.39 421.455L362.789 422.072L368.796 422.691L390.136 427.647L396.095 428.874L402.214 431.388L408.042 432.577L413.018 433.152L415.655 431.684L415.114 429.181L413.828 426.795L410.476 417.448L407.179 407.04L401.928 399.723L399.863 394.643L397.19 385.946L394.583 381.135L391.297 376.257C391.249 376.177 391.214 376.088 391.196 375.997L390.529 372.294C390.493 372.103 390.547 371.907 390.672 371.752L392.666 369.285L395.785 363.459L395.226 361.382L393.327 359.029L389.297 352.799L386.612 347.811C386.546 347.683 386.523 347.537 386.541 347.395L387.184 343.242L386.576 341.55L385.237 337.2L384.552 330.281L382.594 324.889L381.278 321.842C381.243 321.759 381.225 321.67 381.225 321.579V319.212L379.927 314.986C379.909 314.923 379.897 314.859 379.897 314.793V313.043L376.04 301.053L374.266 299.955L371.576 298.08C371.498 298.024 371.433 297.955 371.379 297.878L369.385 294.795C369.349 294.734 369.319 294.67 369.302 294.601L367.974 289.662L367.95 285.277L365.986 279.207C365.968 279.14 365.956 279.071 365.956 279.002V276.533C365.956 276.392 365.998 276.256 366.087 276.14L367.409 274.29L369.343 272.476L370.623 267.122L372.016 264.496C372.04 264.44 372.076 264.39 372.123 264.343L376.647 259.535L377.266 257.234L378.6 252.892C378.618 252.832 378.641 252.776 378.677 252.721L384.582 243.582L385.886 236.309C385.91 236.163 385.987 236.03 386.094 235.925L389.41 232.839L398.827 227.198C398.886 227.162 398.946 227.134 399.005 227.115L406.97 224.645L414.197 221.587C414.256 221.562 414.322 221.542 414.387 221.531L418.37 220.915L422.709 219.17L429.906 212.475L431.829 210.086C431.888 210.008 431.965 209.942 432.055 209.895L436.704 207.426L447.877 198.856L453.872 194.523L456.997 191.019L463.586 174.472L464.223 172.077L464.199 167.313L463.539 157.485L464.199 149.977V143.866L462.217 130.388L461.58 125.059L459.776 123.386C459.675 123.29 459.604 123.171 459.574 123.038L458.306 117.74L455.878 116.047C455.687 115.912 455.574 115.704 455.574 115.481V109.925C455.574 109.737 455.651 109.557 455.794 109.425L457.122 108.191L459.044 105.802C459.092 105.736 459.158 105.68 459.229 105.636L461.098 104.477L462.271 102.837L463.539 98.72V92.6476L462.217 84.1085L462.211 81.5423L461.551 76.6947L461.544 55.6261L462.211 48.1625L461.544 36.5346L460.902 29.934L458.997 26.9887L455.794 24.0384L453.735 21.4942C453.633 21.3698 453.58 21.2206 453.58 21.0683V12.4298L454.264 9.20546L454.913 4.31925L454.907 1.94092C454.907 1.6727 455.068 1.42958 455.33 1.30785L456.657 0.688341C456.937 0.558471 457.3 0.602553 457.539 0.820923L460.86 3.90727L465.313 6.85493L467.08 7.40255H470.938L473.408 6.80779L479.891 3.77435L487.272 1.27462C487.355 1.24681 487.445 1.23325 487.534 1.23325H493.504L500 1.69644V0H448.843L448.443 1.49299Z" fill="black"/>
<path d="M2.30645 203.181L1.58624 201.514L0 198.196V201.197L2.04434 203.101L2.30645 203.181Z" fill="black"/>
<path d="M475.325 400.572L479.867 402.383L486.355 403.572L493.064 405.439L500 409.291V402.152L483.932 396.286C483.837 396.25 483.748 396.197 483.671 396.128L482.343 394.895C482.272 394.826 482.218 394.746 482.176 394.657L479.522 388.485C479.474 388.374 479.456 388.252 479.474 388.134L480.141 383.198C480.165 383.043 480.236 382.896 480.355 382.786L482.206 381.063L483.48 376.921L484.117 369.04L483.456 364.245L482.129 352.509L479.486 341.481L478.152 335.292L476.813 309.887C476.807 309.802 476.825 309.713 476.855 309.63L478.849 304.078L480.141 292.502L482.141 283.789L484.802 278.189L488.766 252.984L488.76 250C488.76 249.812 488.838 249.632 488.98 249.5L490.308 248.266C490.445 248.145 490.618 248.07 490.802 248.061L500 247.527V158.874L498.904 164.356L498.243 169.254L498.249 172.868L492.26 197.703L489.617 213.7L486.963 221.133L486.302 231.531L484.968 242.061L484.314 261.13C484.308 261.252 484.272 261.368 484.206 261.473L482.212 264.556C482.171 264.62 482.117 264.675 482.057 264.725L476.748 269.044L473.319 270.969L471.7 272.504V277.769L472.354 284.491L474.325 291.158C474.349 291.233 474.36 291.313 474.355 291.393L473.688 300.032L473.021 304.401C473.009 304.476 472.986 304.551 472.944 304.617L468.295 313.255L467.086 316.076L468.354 320.791L472.307 329.955L473.67 335.621L474.962 338.594L476.331 344.89L477.004 351.751L477.01 362.306L475.676 370.436L470.979 381.69C470.956 381.749 470.92 381.807 470.878 381.857L469.009 384.182L468.396 388.156L469.003 389.851L470.986 394.762C471.015 394.842 471.033 394.925 471.033 395.011V397.151L475.325 400.572Z" fill="black"/>
<path d="M483.617 381.627C483.581 381.743 483.516 381.848 483.427 381.934L481.623 383.615L481.01 388.128L483.534 393.996L484.641 395.022L500 400.63V248.943L491.183 249.455L490.284 250.293V253.086L486.296 278.488C486.284 278.551 486.266 278.615 486.236 278.673L483.581 284.226L481.641 292.726L480.325 304.376L478.343 309.951L479.664 335.121L480.98 341.188L483.629 352.282L484.968 364.081L485.635 369.006L484.974 377.169L483.617 381.627Z" fill="black"/>
<path d="M13.3904 256.714L16.3191 255.622L18.1288 251.703V242.791L16.2418 239.874L11.5807 231.824L6.30663 224.476L0 214.214V257.461L2.97919 257.922L13.3904 256.714Z" fill="black"/>
<path d="M32.7365 485.186L32.7304 477.698C32.7304 477.634 32.7426 477.574 32.7603 477.513L34.7246 470.815V461.33L33.7663 460.44L28.6648 459.254L24.1408 458.054L18.9857 458.654L14.9082 458.659L12.0687 458.02C11.932 457.99 11.8127 457.926 11.7116 457.835L10.3841 456.599L5.63388 449.691L2.37766 446.063C2.30645 445.986 2.25864 445.9 2.22914 445.803L0.901625 441.484L0 436.752V500H34.6497L32.7365 485.186Z" fill="black"/>
<path d="M5.39585 272.741L10.5211 269.763C10.6045 269.716 10.6998 269.683 10.7951 269.667L29.3732 266.581L34.5462 265.978L36.3915 264.838L37.8021 264.177C38.0164 264.078 38.2667 264.078 38.481 264.177L39.8085 264.794C40.0703 264.913 40.231 265.159 40.231 265.427V267.277C40.231 267.388 40.2011 267.496 40.1476 267.595L39.5643 268.679V270.845L40.8383 273.803L42.8263 278.106C42.8619 278.194 42.886 278.289 42.886 278.385V281.9L50.0827 293.456L57.3927 305.812L58.7616 308.975L59.4699 312.824L60.714 317.439L62.2677 318.404H65.7026L65.8752 318.244L65.2622 314.273L64.5952 302.488L65.2679 298.633C65.2798 298.564 65.3035 298.494 65.3395 298.431L66.0061 297.195C66.1313 296.957 66.3991 296.805 66.6846 296.805H68.673C68.8755 296.805 69.0718 296.88 69.2145 297.012L70.5421 298.248C70.6373 298.339 70.7089 298.453 70.7384 298.578L71.4054 301.044L73.3995 309.08L74.7209 314.002L78.0128 321.941L82.5307 329.114L87.0368 332.112L91.5432 333.887L114.086 341.898L122.199 346.906L128.956 353.167L132.98 357.525L137.022 363.147C137.069 363.213 137.105 363.29 137.123 363.368L139.081 370.665L142.343 375.505L144.891 377.85L160.797 391.405L164.868 396.435L173.542 409.446L180.571 416.561L193.584 418.375L197.936 418.366L201.757 416.591L203.853 415.936C203.984 415.891 204.132 415.889 204.275 415.922L206.93 416.538L210.853 417.141C211.049 417.172 211.222 417.271 211.335 417.415L213.329 419.885C213.442 420.026 213.496 420.2 213.478 420.374L212.811 427.16L212.817 428.78L214.061 431.1L216.544 433.96L219.752 435.749L223.58 436.916L227.765 437.461L230.83 435.182L232.753 433.385L235.491 431.468C235.545 431.432 235.604 431.402 235.664 431.377L238.985 430.141C239.063 430.113 239.14 430.097 239.217 430.094L259.129 428.86C259.213 428.85 259.308 428.86 259.397 428.886L270.683 431.972L278.773 435.721L288.631 438.766C288.726 438.796 288.815 438.843 288.893 438.904L298.852 446.926L303.566 451.931L306.191 454.365L313.513 461.792L317.21 464.649H322.246L334.538 463.44L339.669 459.267C339.717 459.229 339.77 459.196 339.83 459.168L342.485 457.935L348.563 456.046C348.64 456.021 348.717 456.01 348.801 456.01H355.438L362.73 457.23L365.908 456.641L377.963 456.01C378.046 456.013 378.106 456.013 378.177 456.029L386.809 457.879L398.708 459.718L402.053 460.343L410.107 462.832L423.292 465.279L435.757 465.266L443.192 466.51L459.771 468.976L475.706 471.443L484.325 472.676L492.112 472.054L500 471.077V459.118L497.165 460.435L491.219 463.507L481.766 466.037L466.991 466.681L455.622 466.064L449.532 464.812L446.377 464.828L426.947 460.49C426.876 460.473 426.811 460.448 426.751 460.415L422.239 458.023L416.423 457.42L411.012 456.168L381.159 450.004L378.671 450.02C378.582 450.02 378.486 450.004 378.403 449.976L373.225 448.168H364.165L356.967 449.996C356.89 450.018 356.807 450.023 356.736 450.02L340.235 449.407L331.038 451.237L326.353 451.254L322.484 452.451C322.406 452.476 322.329 452.487 322.246 452.487H319.591C319.454 452.487 319.317 452.451 319.198 452.387L315.876 450.537L307.102 442.408L297.857 435.038L292.5 430.066L283.892 420.222L272.04 412.877L269.594 411.746L263.088 411.141L253.212 411.143L246.653 411.76L239.938 411.763C239.819 411.763 239.706 411.738 239.599 411.688L226.437 405.571L220.8 404.991L213.014 408.005L204.876 409.285C204.811 409.294 204.739 409.299 204.68 409.291L197.382 408.674L191.31 407.427L183.274 404.938L178.482 402.411C178.428 402.38 178.375 402.342 178.321 402.297L174.339 398.595C174.286 398.542 174.238 398.479 174.202 398.409L172.875 395.943L170.893 391.034L169.035 388.737L162.499 384.483L153.124 376.4C153.058 376.342 152.999 376.273 152.963 376.196L151.635 373.729C151.558 373.591 151.534 373.431 151.564 373.276L152.225 370.19C152.243 370.129 152.261 370.068 152.296 370.01L154.29 366.307C154.338 366.211 154.416 366.125 154.511 366.058L156.963 364.349L158.19 360.354V358.34L155.838 356.701L153.302 355.534L149.927 353.659L139.915 346.832L134.718 344.426L117.473 337.031L110.246 333.365L106.389 332.77L101.103 332.156L97.091 331.531C96.9601 331.512 96.835 331.459 96.7339 331.382L89.4358 325.829L87.3881 323.932L82.6379 317.022C82.6023 316.966 82.5724 316.906 82.5487 316.842L79.227 306.351L78.5424 299.429L75.8935 289.037L72.6017 280.473L70.6075 270.029L67.393 265.839C67.3394 265.767 67.2977 265.685 67.274 265.599L66.6311 263.218L59.3808 250.96L57.4103 244.89L52.9697 241.936L46.2253 235.69L37.5342 225.129L24.2303 206.582C24.1943 206.53 24.1645 206.474 24.1469 206.414L22.2239 201.057L19.2834 198.876H18.3251V200.634L19.6286 205.399L20.3074 209.79C20.3369 209.992 20.2715 210.199 20.1287 210.354C19.9799 210.509 19.7717 210.597 19.5513 210.597H19.0155L15.1523 211.798C14.9855 211.847 14.8248 211.847 14.6701 211.798L12.676 211.181C12.4437 211.109 12.2654 210.943 12.1877 210.733L11.5272 208.88L10.2115 203.986L5.03879 195.568L0.401476 192.515V195.549L2.99106 200.963L4.33044 204.074C4.43759 204.331 4.37792 204.622 4.17548 204.823C3.97305 205.02 3.6577 205.089 3.37796 205.009L1.38957 204.392C1.28242 204.356 1.17527 204.298 1.09219 204.221L0 203.205V211.361L7.6043 223.732L12.8903 231.096L17.569 239.174L19.5455 242.23C19.6167 242.34 19.6526 242.467 19.6526 242.594V251.85C19.6526 251.947 19.6286 252.041 19.593 252.129L17.5988 256.449C17.5154 256.62 17.3665 256.756 17.1821 256.827L13.8665 258.063C13.8011 258.085 13.7414 258.099 13.6759 258.108L3.0565 259.341C3.02667 259.344 2.99106 259.347 2.96122 259.347C2.91951 259.347 2.87781 259.344 2.8361 259.338L0 258.899V272.741H5.39585Z" fill="black"/>
<path d="M75.8877 488.325L75.8755 479.548L77.221 472.027L81.8939 459.569L87.9476 450.781L91.3228 447.006C91.3825 446.937 91.4598 446.882 91.5432 446.838L98.8471 443.135L104.639 438.937L106.49 436.639L107.74 433.152V415.54L105.163 410.751L101.222 402.201L98.0079 399.214L94.7517 396.797L81.4294 385.034L71.7624 379.058H64.6905L58.8033 379.669L50.9874 382.106C50.9101 382.13 50.8328 382.141 50.7494 382.141H43.4513L34.9389 383.369L16.9796 385.222L6.3246 385.841L0 386.432V396.877C0.116645 396.824 0.229899 396.751 0.359768 396.772L10.3129 397.389L23.4561 396.156L27.397 395.544L34.0105 394.317L38.6953 393.695L41.8382 392.5L44.4394 391.292L50.3805 388.22C50.4934 388.161 50.6185 388.131 50.7494 388.131H53.4102C53.4756 388.131 53.5472 388.139 53.6126 388.156L60.9107 390.009C61.006 390.033 61.1009 390.078 61.1786 390.136L77.1077 401.858L83.8464 408.727C83.9355 408.821 84.001 408.937 84.0308 409.064L85.3583 415.236L85.3702 422.777C85.3702 422.868 85.3522 422.957 85.3166 423.04L83.9891 426.126L82.6379 428.648L80.0245 436.562L76.0006 444.672L72.0066 452.095L69.4051 460.612L68.0837 465.528L68.1074 488.187L69.5238 500H78.4047L75.8877 488.325Z" fill="black"/>
<path d="M496.921 41.4927V43.9013C496.921 44.0284 496.886 44.1556 496.814 44.2664L494.933 47.1809V49.2879L495.445 50.2394L499.303 53.2284C499.356 53.2729 499.41 53.3254 499.445 53.3807L500 54.1535V44.7707L498.273 43.1658L496.921 41.4927Z" fill="black"/>
<path d="M82.5785 237.379L84.5666 233.06L87.8703 224.463L88.4715 220.447L87.2809 217.132L83.6202 214.862L76.4353 213.042L71.8875 212.442C71.816 212.434 71.7444 212.414 71.6732 212.384L63.0415 208.681L56.9699 204.926L50.9101 199.929C50.8504 199.882 50.8029 199.827 50.7612 199.766L46.779 193.594L40.213 186.28C40.1418 186.202 40.094 186.117 40.0642 186.02L38.737 181.7L35.4451 174.372L32.1652 168.892C32.1292 168.828 32.0997 168.759 32.0818 168.687L30.0876 159.429L28.7543 150.129L26.7659 137.799L25.4801 130.598L18.4262 122.85L9.30074 119.216L6.48532 117.281C6.42565 117.239 6.37817 117.192 6.33647 117.14L4.34231 114.673C4.26466 114.582 4.21719 114.474 4.19922 114.363L3.56242 110.818L0 106.087V128.492C0.0762939 128.533 0.169542 128.537 0.228882 128.604L9.52114 139.096L15.5867 150.337L26.8551 168.814C26.885 168.867 26.9148 168.922 26.9328 168.98L28.9208 175.766L32.8318 182.4L36.8022 188.544L39.487 193.533L41.5287 200.449L45.4814 208.994L50.7375 216.924L53.339 219.939L54.696 222.43L57.2676 224.817C57.3212 224.869 57.3686 224.933 57.4046 224.999L59.357 228.621L69.2444 239.038C69.2861 239.085 69.3217 239.135 69.3576 239.193L70.6848 241.663C70.7208 241.729 70.7445 241.804 70.7564 241.878L72.0659 250.395L77.9768 260.776L80.6437 265.729L81.9651 269.99L82.489 270.48C82.5904 270.571 82.6616 270.684 82.6914 270.809L83.3523 273.278L83.3761 275.299L84.0369 281.4L84.0427 284.555L85.3583 290.589L86.0131 296.097L87.9656 300.32L89.3049 305.886L91.2337 308.876L93.2515 312.622L95.1148 315.504L99.5853 317.879L104.841 321.532L111.306 322.738L117.372 324.61L125.985 327.074C126.069 327.099 126.146 327.137 126.218 327.184L128.872 329.034L133.361 330.804L137.218 333.177L140.903 332.604C141.081 332.579 141.266 332.61 141.421 332.696L144.742 334.546C144.85 334.606 144.939 334.689 145.004 334.791L146.992 337.877L150.802 342.592L157.243 344.987L163.172 346.823L166.541 348.073C166.684 348.129 166.803 348.22 166.892 348.339L169.547 352.041L170.863 354.48L175.422 358.72C175.5 358.794 175.559 358.885 175.601 358.985L179.583 369.476L180.268 374.437L184.792 382.838L188.649 385.827L191.031 386.914L197.531 387.517L199.442 387.514C199.519 387.514 199.59 387.525 199.668 387.545L208.299 390.014L216.103 390.603L222.097 392.436L227.902 391.839L236.39 389.398C236.497 389.372 236.604 389.37 236.711 389.372L242.021 389.989L248.712 391.231L252.671 391.842L257.855 391.834L262.612 392.458C262.701 392.47 262.79 392.497 262.868 392.536L270.171 396.239L277.422 399.303L288.161 406.152C288.238 406.205 288.303 406.268 288.357 406.343L292.345 411.896L296.274 416.146L297.703 418.759L302.233 424.765L310.793 431.496L317.477 437.704L319.906 439.393L323.061 439.98L326.031 439.966L333.169 436.349L335.098 435.146C335.151 435.11 335.217 435.082 335.282 435.063L337.276 434.447L344.074 433.797C344.14 433.788 344.211 433.791 344.288 433.805L351.467 435.019L355.991 434.419L364.73 434.411L380.725 435.649L392.16 438.758L400.803 441.23L414.036 444.307L419.257 444.908L424.019 446.163L430.733 448.655L441.859 450.466L446.585 451.715L450.485 452.318L456.133 452.307L460.598 449.932L462.961 448.834L463.557 446.088L465.527 421.491L464.896 416.862L461.009 411.448L450.99 390.985C450.919 390.838 450.907 390.675 450.949 390.52L452.276 385.581C452.294 385.504 452.33 385.427 452.377 385.36L455.032 381.66L461.687 373.002L465.539 365.212L466.194 357.315V343.792L465.551 339.056L460.955 329.9L454.276 309.439C454.259 309.376 454.246 309.307 454.246 309.238V306.918L452.312 302.731C452.252 302.595 452.235 302.443 452.27 302.3L453.598 296.744L454.252 292.477L454.901 285.241L451.615 274.251L446.984 261.96L446.288 258.777L445.109 256.067L441.478 254.377L438.597 253.841L436.299 255.442L432.382 260.298C432.317 260.383 432.221 260.455 432.114 260.505L430.787 261.125C430.727 261.152 430.662 261.175 430.597 261.185L423.959 262.419C423.781 262.455 423.578 262.424 423.417 262.33L420.096 260.478L417.292 257.906C417.191 257.812 417.12 257.69 417.09 257.558L415.762 252.002C415.727 251.844 415.744 251.678 415.822 251.535L416.483 250.301C416.542 250.191 416.631 250.097 416.745 250.027L418.632 248.861L422.537 244.021L426.525 240.905L430.442 234.232C430.471 234.174 430.519 234.119 430.567 234.072L433.222 231.605L439.151 224.869L440.448 223.655L444.383 216.955L447.044 212.624L454.425 204.497L459.669 196.561L465.086 191.495L468.973 186.05L480.938 170.601L484.796 165.225L485.444 156.774V153.268L483.557 149.175L480.313 145.553C480.23 145.461 480.176 145.354 480.153 145.238L479.534 142.384L473.747 137.605C473.623 137.503 473.539 137.367 473.504 137.216L472.843 134.13L472.831 126.586C472.831 126.519 472.843 126.456 472.861 126.392L474.188 122.073L476.861 115.24L478.266 113.235L487.51 97.2711L488.123 94.9456L488.099 90.7976L487.457 88.4996L486.111 76.6809L484.802 71.8387L482.819 65.6999L482.123 58.1509V42.0485L480.825 34.2448L478.944 30.7441L476.373 28.3576L474.313 25.8135C474.259 25.7528 474.224 25.6836 474.2 25.6117L472.866 21.9089L472.218 18.3224L471.724 17.8664C471.432 17.5897 471.432 17.1417 471.724 16.8654L472.384 16.2486C472.468 16.1713 472.575 16.1129 472.688 16.077L474.581 15.4907L476.492 14.31C476.587 14.2521 476.694 14.2134 476.807 14.1995L481.45 13.5827L488.272 14.1941L492.736 13.5827L495.874 12.3881L497.148 11.7964C497.255 11.7466 497.368 11.7218 497.487 11.7218H500V3.1145L493.445 2.64622L487.671 2.64893L480.492 5.07406L473.932 8.12684L471.122 8.79619L466.956 8.81823C466.872 8.81823 466.795 8.80704 466.718 8.78229L464.723 8.16549C464.646 8.14345 464.58 8.11022 464.521 8.06885L459.878 4.98285L456.848 2.18439L456.431 2.378V4.40776L455.764 9.43231L455.086 12.5678L455.104 20.8306L456.943 23.112L460.193 26.1234L462.301 29.342C462.36 29.4335 462.396 29.5356 462.402 29.6434L463.063 36.4322L463.735 48.1818L463.068 55.6841V76.6063L463.729 81.4538L463.735 84.0088L465.057 92.548L465.062 98.8197C465.062 98.8861 465.051 98.9495 465.033 99.0133L463.705 103.333C463.681 103.404 463.652 103.471 463.61 103.532L462.283 105.382C462.223 105.459 462.152 105.525 462.068 105.578L460.181 106.748L458.271 109.115L457.098 110.215V115.127L459.449 116.764C459.592 116.866 459.693 117.012 459.735 117.178L461.015 122.532L462.848 124.235C462.967 124.349 463.045 124.498 463.063 124.658L463.729 130.211L464.39 134.508L465.717 143.772L465.723 150.035L465.062 157.499L465.723 167.269V172.249L465.039 174.889L458.378 191.625C458.348 191.7 458.306 191.771 458.247 191.832L454.925 195.535L448.836 199.96L437.567 208.587L432.954 211.051L431.055 213.399L423.685 220.265C423.614 220.328 423.531 220.378 423.441 220.414L418.792 222.264L414.739 222.914L407.53 225.961L399.589 228.428L397.678 229.609L390.362 233.937L387.35 236.763L386.059 243.947C386.047 244.035 386.011 244.118 385.963 244.196L380.034 253.371L378.082 260.043C378.052 260.151 377.999 260.254 377.915 260.339L373.332 265.209L372.046 267.593L370.784 272.985C370.754 273.115 370.683 273.236 370.581 273.331L368.587 275.183L367.48 276.746V278.897L369.444 284.967C369.462 285.033 369.474 285.102 369.474 285.172V289.491L370.748 294.153L372.611 297.029L375.147 298.799L377.1 300.01C377.242 300.098 377.344 300.226 377.397 300.375L378.064 302.228L381.391 312.741C381.409 312.805 381.421 312.874 381.421 312.94V314.694L382.719 318.919C382.737 318.982 382.749 319.046 382.749 319.113V321.444L384.023 324.403L386.029 329.994L386.725 336.943L388.684 342.952C388.725 343.057 388.737 343.167 388.719 343.275L388.082 347.376L390.636 352.119L394.589 358.238L396.535 360.647C396.601 360.724 396.642 360.81 396.666 360.901L397.333 363.368C397.381 363.531 397.356 363.705 397.273 363.855L393.952 370.027L392.083 372.358L392.672 375.626L395.91 380.441L398.601 385.435L401.309 394.201L403.28 399.081L408.512 406.343C408.554 406.404 408.584 406.467 408.607 406.537L411.929 417.025L415.233 426.256L416.524 428.634C416.554 428.689 416.572 428.747 416.59 428.811L417.251 431.897C417.316 432.19 417.173 432.489 416.899 432.644L413.578 434.493C413.459 434.56 413.322 434.593 413.185 434.593C413.155 434.593 413.119 434.59 413.09 434.588L407.78 433.971L401.738 432.726L395.618 430.213L389.785 429.024L368.528 424.079L362.653 423.479L353.39 422.865L344.205 423.482L332.371 425.938L326.466 427.768L322.371 428.413C322.204 428.457 322.008 428.41 321.853 428.321L318.537 426.469L317.061 425.13L309.715 417.064L305.108 412.789L303.685 410.828L301.691 406.52L299.137 404.15C299.054 404.073 298.994 403.979 298.959 403.874L298.351 402.201L292.637 397.472L289.434 396.286L276.725 389.453C276.594 389.381 276.493 389.279 276.422 389.154L275.821 388.023L272.582 385.02L269.416 383.275L266.201 382.092L260.909 380.247C260.808 380.211 260.713 380.156 260.641 380.084L258.73 378.314L257.516 377.747L253.016 375.956L240.771 374.758L237.676 376.486C237.616 376.519 237.557 376.545 237.491 376.561L232.842 377.794L222.109 379.052C222.008 379.052 221.895 379.058 221.806 379.03L217.157 377.794C217.091 377.778 217.026 377.75 216.966 377.717L199.709 367.845C199.614 367.792 199.537 367.721 199.471 367.635L196.816 363.932C196.775 363.871 196.745 363.805 196.721 363.733L194.066 355.094L187.488 343.505L183.649 338.762L179.768 336.362L160.576 326.518L148.755 322.868L142.278 322.284C142.206 322.276 142.141 322.262 142.069 322.237L138.754 321.004L134.635 318.465C134.51 318.388 134.414 318.28 134.355 318.156L132.361 313.836L129.771 310.247L127.301 307.971L122.104 305.552L119.33 303.635C119.217 303.555 119.128 303.444 119.074 303.317L117.122 298.481L112.55 293.011L109.181 288.017L108.485 286.723C108.449 286.651 108.425 286.573 108.413 286.496L107.746 281.56L106.425 274.81L106.413 271.793L102.538 265.793L98.6803 261.014L94.8052 258.611C94.7279 258.564 94.6625 258.506 94.6089 258.437L89.2988 251.648L84.0664 246.798L81.9594 243.576C81.8759 243.443 81.8403 243.286 81.858 243.134L82.525 237.581C82.5307 237.512 82.5487 237.443 82.5785 237.379Z" fill="black"/>
<path d="M416.381 13.5468L411.161 17.7945L408.655 23.0289L409.28 27.6496L411.881 32.4778C411.929 32.5748 411.958 32.6826 411.958 32.7932V37.7292L412.619 46.9374L415.256 57.9407L417.262 76.5344L419.893 85.0515L420.584 103.734V121.033C420.584 121.384 420.304 121.683 419.929 121.733L411.143 122.9L410.607 124.907L410.631 127.205L411.28 130.15L411.292 140.78L413.941 156.716L415.917 164.055L417.256 171.516C417.269 171.585 417.274 171.657 417.262 171.726L415.935 180.981L415.274 188.351C415.256 188.52 415.179 188.675 415.054 188.793L410.411 193.113L406.309 195.671C406.226 195.723 406.137 195.756 406.036 195.776L399.398 197.009L393.273 197.023L384.13 197.631L378.344 199.426L376.522 200.554L367.962 209.737L355.944 219.676L348.068 228.846L342.062 235.045L340.157 238.024L338.246 244.032L336.24 249.607C336.21 249.696 336.163 249.779 336.091 249.848L331.448 254.784C331.401 254.842 331.335 254.889 331.27 254.928L321.311 260.478L316.763 264.111L314.983 265.776L314.358 268.649L314.376 277.152L315.692 283.183L316.37 295.01C316.37 295.074 316.364 295.138 316.352 295.198L315.025 300.754L313.71 313.623L314.358 323.175L318.156 327.87L321.395 330.281L334.02 340.167C334.08 340.211 334.127 340.261 334.169 340.316L338.151 345.869L348.741 358.791L356.051 368.058L360.741 375.524L365.355 381.646L369.319 386.563C369.379 386.632 369.421 386.712 369.444 386.795L372.099 395.434C372.117 395.498 372.129 395.561 372.129 395.627V399.947L371.462 404.366C371.427 404.576 371.296 404.764 371.099 404.875L367.778 406.725C367.683 406.774 367.575 406.807 367.468 406.819L361.492 407.438L350.08 406.824H340.169L328.264 407.444C328.252 407.444 328.234 407.444 328.222 407.444C328.079 407.444 327.936 407.405 327.811 407.333L320.507 403.011C320.43 402.964 320.365 402.906 320.311 402.836L318.323 400.37C318.257 400.295 318.216 400.21 318.192 400.118L316.864 395.182L315.513 386.472L312.983 380.045L299.256 371.534L288.75 367.275L283.97 364.114L277.964 359.778L266.713 352.393L264.159 351.215L255.593 348.156L251.242 347.598L248.051 348.189L244.581 348.203L239.831 347.578C239.706 347.562 239.581 347.517 239.48 347.445L234.164 343.743L227.509 338.793L221.532 332.632L209.692 326.518L204.293 322.763L197.055 317.254L192.507 315.443L188.483 313.574L185.983 313.009L181.947 311.762C181.852 311.735 181.768 311.69 181.697 311.635L177.714 308.549C177.667 308.51 177.619 308.466 177.583 308.416L174.262 304.097C174.208 304.031 174.172 303.956 174.149 303.878L172.821 299.559L170.821 291.501L170.803 288.258L170.154 285.31L166.863 276.771L165.523 272.407L162.952 266.442L159.737 263.459C159.666 263.389 159.612 263.309 159.571 263.221L158.285 260.226L151.713 252.281L145.093 244.901L138.421 236.221C138.355 236.135 138.307 236.035 138.29 235.933L136.296 225.441L133.123 218.393L128.009 215.428L120.753 211.748C120.64 211.693 120.551 211.612 120.479 211.518L116.497 205.963L113.104 197.803L110.52 192.402L105.973 188.177L98.1208 183.329L91.5609 179.06L87.6858 177.859C87.6204 177.84 87.5549 177.812 87.5014 177.776L83.5188 175.307L74.7921 167.832L70.1731 164.147L64.1846 159.202L60.2854 156.796C60.2261 156.76 60.1725 156.716 60.1308 156.669L56.1486 152.35C56.0533 152.247 55.9936 152.12 55.9699 151.988L55.309 147.665C55.2972 147.574 55.3033 147.483 55.327 147.394L56.6545 142.458L58.6785 138.031L61.9581 131.942L62.6071 125.9L63.268 117.892L62.6309 113.252L57.4046 105.36L52.7852 99.2262L46.2552 93.7897L37.6238 86.3814L25.0994 78.4231L17.7121 72.19L11.1284 66.0733L0 60.6255V79.3193L7.23538 82.1228L13.2833 85.242C13.3487 85.2753 13.4023 85.3139 13.4559 85.3611L21.4206 92.7636L29.3077 98.2527L42.6181 108.769C42.6836 108.822 42.7429 108.885 42.7846 108.957L45.4397 113.276C45.4753 113.332 45.499 113.392 45.517 113.456L47.505 120.861C47.5291 120.942 47.5349 121.025 47.523 121.108L46.1955 132.833C46.1778 132.993 46.1002 133.142 45.9812 133.258L42.1119 136.853L40.1835 141.645L38.2667 148.18L39.5345 152.311L42.118 156.473L44.0586 158.865L50.6304 164.962L58.3571 170.341L62.8096 170.932C62.875 170.941 62.9405 170.957 63.0059 170.982L67.649 172.835C67.7324 172.871 67.8158 172.921 67.887 172.984L71.7387 176.568L75.5483 177.749C75.6256 177.771 75.6972 177.807 75.7565 177.848L90.3646 187.72L93.1146 190.262L99.7759 197.073L102.502 200.858C102.544 200.922 102.579 200.991 102.603 201.066L104.592 207.854L110.538 221.352C110.58 221.451 110.598 221.562 110.592 221.67L109.931 229.692C109.919 229.783 109.895 229.872 109.854 229.952L105.282 238.441V241.851L107.187 246.571L109.109 248.96L112.306 253.117L117.402 254.889C117.479 254.917 117.55 254.955 117.616 255.002L131.468 265.427L137.861 267.803H138.373C138.462 267.803 138.551 267.816 138.635 267.844L145.939 270.314C146.076 270.361 146.201 270.446 146.284 270.554L150.267 275.49C150.332 275.573 150.379 275.664 150.404 275.764L152.385 283.767L156.32 291.664L160.922 298.37L165.589 305.795L168.892 312.561L172.149 316.19L174.762 318.612L179.988 322.246L191.275 330.268L195.763 332.037C195.84 332.071 195.918 332.115 195.983 332.173L207.269 342.045L215.198 348.187L218.496 351.247L223.056 353.67L228.252 355.47L248.01 357.904L254.54 357.895L259.29 358.52L263.403 359.781C263.492 359.809 263.576 359.85 263.647 359.906L274.94 368.55L280.851 372.206L286.143 375.281L294.667 381.372L299.542 381.939L301.994 380.8C302.149 380.723 302.334 380.703 302.518 380.747L305.173 381.367C305.411 381.422 305.608 381.58 305.697 381.79L307.024 384.873L308.358 391.021L311.578 395.216L314.959 401.479L321.537 410.024L325.442 413.638L328.615 415.385L332.984 417.119L339.241 416.538L340.907 415.507L342.139 413.206C342.253 413.002 342.461 412.861 342.699 412.822L350.664 411.589L352.783 411.58L362.129 412.2L366.825 412.822C366.909 412.83 366.986 412.855 367.058 412.888L376.356 417.208L379.54 418.986H382.653L387.737 418.389L390.166 417.26L393.148 414.487L392.511 407.41L391.219 400.818L389.297 397.842L387.422 396.128L378.725 385.565L372.736 377.518L366.843 372.062L363.444 367.654L356.843 360.29L349.527 351.635L343.527 343.579L340.812 338.555L339.461 335.416L335.52 328.708L334.187 325.024L329.639 320.197L327.567 317.005C327.525 316.936 327.49 316.862 327.478 316.781L326.805 313.695L326.793 304.302L327.466 299.277L328.127 292.513L329.46 285.664L330.788 279.481L334.139 270.14L337.443 259.673L342.122 249.115L345.467 242.896L346.765 239.865C346.806 239.777 346.86 239.697 346.931 239.627L348.259 238.391C348.318 238.339 348.384 238.292 348.461 238.259L349.789 237.642C350.021 237.537 350.307 237.542 350.527 237.672C350.753 237.802 350.89 238.029 350.89 238.275V239.508C350.89 239.586 350.878 239.661 350.848 239.733L350.182 241.585C350.164 241.646 350.134 241.701 350.098 241.754L348.896 243.424V245.387L349.211 245.678L353.021 246.859L356.247 248.059H357.069L360.164 244.61L373.481 232.222L378.832 227.869L384.183 224.134L387.487 221.678C387.541 221.639 387.6 221.606 387.666 221.581L392.309 219.731L396.357 218.476L411.667 214.759L419.405 211.753L426.614 205.667L432.561 200.134L435.835 196.478L437.067 194.15L440.359 189.241L442.294 182.646V177.804L441.639 173.584C441.627 173.512 441.633 173.441 441.645 173.369L442.305 169.666L442.966 164.758C442.978 164.661 443.014 164.567 443.067 164.484L444.948 161.564V156.824L443.639 151.421L441.686 144.756L439.079 140.514L437.728 138.009C437.698 137.951 437.674 137.888 437.662 137.821L436.335 131.032L436.323 118.567L436.948 115.583L435.865 113.567L432.817 112.436C432.674 112.381 432.555 112.289 432.466 112.17L431.138 110.318C431.037 110.174 430.995 109.997 431.019 109.825L431.68 105.506C431.716 105.276 431.87 105.077 432.097 104.972L433.263 104.43L439.049 97.2629L442.282 87.0395L441.639 82.2472L440.978 78.5722L439.657 73.0557L439.639 67.3479L440.311 62.3237L441.651 56.7044L442.276 52.6062L441.008 49.0614L439.692 44.1915L433.126 35.0359C433.079 34.9667 433.043 34.8921 433.025 34.8145L432.365 32.348L432.34 26.6239C432.34 26.5493 432.352 26.4716 432.376 26.3997L433.037 24.547L435.079 20.7503C435.115 20.6841 435.162 20.6231 435.216 20.5678L437.204 18.7178L443.734 8.97047L446.996 1.0671L447.278 0H429.645L425.745 4.83365L416.381 13.5468Z" fill="black"/>
<path d="M236.902 3.21587L230.318 6.27713L216.478 15.4741L204.579 24.6992L200.65 28.3576L182 42.5961L165.458 57.371L154.802 66.0319L146.897 74.0014C146.796 74.1008 146.665 74.1726 146.522 74.2059L144.165 74.7535L141.105 79.3162L139.807 88.9255L141.117 95.6065L144.403 104.134L145.093 107.32L150.397 125.787L153.665 135.529L165.553 151.484L168.857 157.009L170.113 158.174C170.166 158.226 170.214 158.29 170.25 158.359L173.506 164.406L179.369 169.254L190.715 181.034L203.305 192.728L207.9 196.395L210.008 198.975L217.776 204.968L228.866 209.818L245.819 211.637L254.945 208.607L258.605 206.314L261.838 200.908C261.885 200.833 261.945 200.767 262.01 200.712L270.642 193.926L274.38 189.858L275.023 183.293L275.017 177.951L273.088 173.764L269.457 168.717L266.635 169.243L264.713 169.257L261.856 170.844L261.254 173.623C261.23 173.761 261.153 173.886 261.052 173.985L259.064 175.835C258.921 175.968 258.724 176.043 258.522 176.043H253.873C253.79 176.043 253.712 176.032 253.629 176.007L251.641 175.39L244.855 171.621L240.777 168.474C240.724 168.43 240.67 168.377 240.628 168.322L236.646 162.769C236.562 162.653 236.521 162.518 236.521 162.377V161.301L231.276 150.953C231.229 150.859 231.205 150.757 231.205 150.652V146.949C231.205 146.783 231.271 146.623 231.384 146.496L234.705 142.793L238.075 139.663L241.938 133.626L247.831 123.881L248.48 120.3C248.492 120.231 248.515 120.162 248.545 120.101L252.468 112.812L253.117 106.773L254.468 102.329C254.498 102.229 254.552 102.138 254.623 102.061L258.605 97.741L265.225 89.7495L267.939 87.2111L270.445 83.6965L271.701 80.1927V75.4835L270.416 71.8913C270.368 71.7641 270.362 71.6258 270.398 71.4959L272.386 64.0934L272.362 53.3695L271.16 51.6964L269.791 49.1526L268.421 45.3586C268.392 45.2867 268.38 45.2094 268.38 45.1345V35.8792L269.058 32.0604L271.094 27.5777L273.791 23.1866C273.82 23.1313 273.862 23.0815 273.91 23.0374L277.892 19.3346L279.773 16.3842L281.047 13.4003L283.696 6.63656L284.994 1.1695L285.172 0H250.066L240.098 2.0128L236.902 3.21587ZM199.537 51.3814C199.525 51.4838 199.489 51.5805 199.436 51.669L195.453 57.8383L177.5 74.5572L172.904 83.0909L170.279 89.2076C170.238 89.2961 170.184 89.3762 170.113 89.4453L165.47 93.7646L160.85 98.6705C160.749 98.7783 160.612 98.8556 160.463 98.8888L157.808 99.5053C157.749 99.5192 157.684 99.5277 157.624 99.5277C157.529 99.5277 157.433 99.511 157.344 99.4778L154.017 98.2446C153.767 98.1503 153.588 97.9374 153.546 97.6858L152.886 93.3638L153.54 84.5757C153.552 84.4347 153.606 84.3021 153.701 84.1912L169.636 65.0638L175.702 60.0338L186.971 50.1729L193.656 45.1982C193.757 45.1236 193.876 45.0738 194.007 45.0517L197.989 44.435C198.15 44.421 198.311 44.435 198.453 44.5014L199.781 45.1179C200.067 45.2508 200.233 45.5356 200.198 45.8286L199.537 51.3814Z" fill="black"/>
<path d="M464.378 449.451C464.336 449.667 464.188 449.849 463.973 449.946L461.318 451.179L456.717 453.629C456.598 453.69 456.467 453.723 456.336 453.723H450.359L446.252 453.093L441.519 451.843L430.317 450.009L423.525 447.501L418.953 446.29L413.756 445.696L400.393 442.593L391.72 440.115L380.445 437.035L364.664 435.824L356.098 435.826L351.562 436.435C351.473 436.446 351.396 436.443 351.319 436.432L344.122 435.215L337.592 435.824L335.859 436.374L333.955 437.56L326.591 441.296C326.484 441.351 326.353 441.382 326.228 441.382H322.912L319.442 440.751C319.329 440.732 319.222 440.688 319.132 440.624L316.477 438.771L309.757 432.536L301.173 425.786C301.125 425.747 301.078 425.703 301.042 425.653L296.399 419.481L295.018 416.923L291.137 412.75L287.172 407.242L276.672 400.53L269.493 397.505L262.26 393.841L257.748 393.241L252.545 393.249L248.438 392.625L241.777 391.386L236.682 390.797L228.211 393.219L222.097 393.86C221.985 393.872 221.883 393.863 221.776 393.83L215.8 391.98L208.007 391.397L199.329 388.93H197.453L190.739 388.311C190.649 388.302 190.56 388.277 190.477 388.239L187.822 387.005L183.691 383.831C183.607 383.767 183.542 383.69 183.5 383.601L178.851 374.963C178.81 374.893 178.786 374.816 178.774 374.736L178.107 369.8L174.22 359.607L169.696 355.401C169.642 355.346 169.595 355.285 169.559 355.216L168.232 352.749L165.755 349.307L162.648 348.153L156.719 346.317L150.034 343.834C149.909 343.784 149.796 343.704 149.713 343.602L145.731 338.666L143.796 335.671L140.879 334.045L137.17 334.62C136.986 334.645 136.784 334.609 136.623 334.51L132.641 332.043L128.117 330.251L125.408 328.392L116.907 325.959L110.919 324.104L104.371 322.89C104.258 322.867 104.151 322.826 104.062 322.763L98.7518 319.06L94.1861 316.64C94.067 316.579 93.9718 316.494 93.9063 316.389L91.9183 313.303L89.9004 309.556L87.9357 306.514C87.894 306.45 87.8645 306.378 87.8465 306.306L86.519 300.754L84.5666 296.559C84.5367 296.495 84.5191 296.426 84.513 296.357L83.8521 290.804L82.5307 284.693L82.5188 281.471L81.858 275.371L81.8522 273.449L81.2686 271.345L80.7509 270.864C80.6556 270.781 80.5901 270.673 80.5545 270.557L79.227 266.238L76.6198 261.423L70.6553 250.948C70.6136 250.876 70.5838 250.796 70.5719 250.716L69.2624 242.191L68.0359 239.909L58.1485 229.484C58.1011 229.44 58.0651 229.39 58.0414 229.338L56.1008 225.737L53.5292 223.351C53.4756 223.298 53.4281 223.235 53.3864 223.166L52.0589 220.696L49.4934 217.737L44.1301 209.644L40.094 200.913L38.07 194.033L35.4628 189.225L31.5104 183.105L27.516 176.289L25.4862 169.439L14.2415 150.998L8.25297 139.862L0 130.575V190.756L1.30649 191.362L6.05672 194.506C6.1459 194.564 6.22321 194.642 6.27679 194.73L11.5865 203.369C11.6224 203.424 11.6462 203.485 11.6642 203.549L12.9913 208.485L13.5152 209.95L14.9082 210.379L18.6466 209.218C18.6584 209.215 18.6703 209.212 18.6764 209.209L18.1346 205.67L16.825 200.806L16.8013 198.168C16.8013 197.778 17.1404 197.46 17.5632 197.46H19.5513C19.7238 197.46 19.8907 197.515 20.0277 197.615L23.349 200.081C23.4623 200.167 23.5514 200.28 23.5931 200.41L25.5575 205.877L38.7783 224.308L47.3741 234.761L53.952 240.861L58.4937 243.872C58.6249 243.958 58.726 244.082 58.7735 244.223L59.4404 246.073L60.7798 250.423L68.0122 262.618C68.0478 262.671 68.0718 262.729 68.0837 262.786L68.7147 265.126L71.9469 269.335C72.0123 269.42 72.0601 269.52 72.0778 269.622L74.0719 280.111L77.358 288.636L80.0425 299.202L80.7153 306.088L83.9834 316.347L88.5668 323.053L90.4538 324.781L97.5433 330.168L101.323 330.757L106.609 331.368L110.621 331.987C110.705 332.001 110.788 332.029 110.86 332.065L118.158 335.768L135.379 343.151L140.706 345.628L150.772 352.481L154.034 354.292L156.636 355.501L159.41 357.42C159.6 357.555 159.713 357.763 159.713 357.987V360.453C159.713 360.52 159.702 360.583 159.684 360.647L158.356 364.966C158.309 365.115 158.213 365.246 158.082 365.339L155.57 367.09L153.701 370.56L153.112 373.314L154.261 375.449L163.452 383.383L170.006 387.641C170.077 387.686 170.13 387.738 170.178 387.796L172.172 390.266C172.22 390.321 172.256 390.379 172.28 390.443L174.268 395.379L175.506 397.674L179.327 401.23L183.893 403.652L191.721 406.064L197.62 407.278L204.722 407.872L212.597 406.653L220.395 403.614C220.508 403.566 220.633 403.55 220.77 403.564L226.741 404.181C226.83 404.189 226.919 404.214 226.997 404.25L240.116 410.347H246.575L253.135 409.73L263.165 409.728L269.886 410.35C269.975 410.358 270.064 410.383 270.148 410.422L272.803 411.655L284.833 419.105C284.899 419.143 284.952 419.193 285 419.248L293.631 429.121L298.893 434.001L308.138 441.371L316.811 449.429L319.799 451.071H322.12L325.984 449.874C326.067 449.849 326.145 449.838 326.228 449.838H330.877L340.009 448.004C340.074 447.991 340.139 447.994 340.199 447.988L356.676 448.602L363.861 446.777C363.926 446.76 363.998 446.752 364.063 446.752H373.361C373.451 446.752 373.546 446.768 373.629 446.796L378.808 448.605H381.326L411.363 454.791L416.691 456.032L422.56 456.632C422.667 456.641 422.763 456.671 422.852 456.721L427.412 459.138L446.556 463.432L449.699 463.413L455.836 464.665L467.003 465.266L481.522 464.649L490.641 462.207L496.457 459.182L500 457.536V410.933L492.451 406.722L485.986 404.944L479.42 403.727L474.623 401.83C474.551 401.802 474.486 401.764 474.426 401.717L469.777 398.014C469.604 397.881 469.509 397.685 469.509 397.478V395.138L466.896 388.446C466.854 388.341 466.842 388.23 466.86 388.123L467.527 383.803C467.545 383.684 467.598 383.574 467.676 383.48L469.598 381.088L474.212 370.071L475.492 362.198L475.486 351.814L474.825 345.092L473.504 338.995L472.218 336.036L470.854 330.37L466.908 321.225L465.551 316.198C465.509 316.054 465.521 315.902 465.581 315.764L466.908 312.678L471.527 304.089L472.17 299.883L472.825 291.413L470.867 284.74L470.182 277.832L470.176 272.213C470.176 272.025 470.253 271.845 470.396 271.713L472.384 269.863L475.855 267.905L480.968 263.732L482.796 260.901L483.45 241.956L484.784 231.406L485.444 220.956C485.451 220.895 485.462 220.832 485.486 220.774L488.141 213.368L490.76 197.44L496.743 172.713L496.725 169.165L497.398 164.138L499.392 154.225L499.38 146.949L500 142.885V56.6979L498.243 54.2517L494.344 51.2319C494.261 51.1685 494.195 51.0908 494.147 51.0026L493.487 49.7691C493.439 49.6724 493.409 49.5646 493.409 49.454V46.9845C493.409 46.8573 493.445 46.7302 493.516 46.6196L495.398 43.7049V40.1984C495.398 39.8088 495.737 39.4907 496.16 39.4907H496.826C497.064 39.4907 497.29 39.5959 497.433 39.7756L499.422 42.2421L500 42.7778V13.1375H497.665L496.499 13.6796L493.129 14.9407L488.302 15.5985L481.48 14.9875L477.194 15.5765L475.343 16.7212C475.283 16.7572 475.224 16.785 475.158 16.8043L473.343 17.3658L473.468 17.4818C473.575 17.5869 473.652 17.7195 473.676 17.8663L474.343 21.5688L475.605 25.0532L477.521 27.4312L480.111 29.8231C480.165 29.8757 480.212 29.9394 480.254 30.0086L482.242 33.7114C482.272 33.7748 482.296 33.8467 482.313 33.9186L483.641 41.9406L483.647 58.0926L484.314 65.4398L486.272 71.4654L487.605 76.4346L488.951 88.2534L489.6 90.626L489.623 95.1168L488.933 97.7576L488.219 99.135L479.575 113.965L478.212 115.873L475.634 122.507L474.355 126.685V133.991L474.95 136.704L480.736 141.485C480.861 141.587 480.944 141.723 480.98 141.875L481.605 144.784L484.796 148.348C484.843 148.401 484.885 148.459 484.915 148.523L486.909 152.842C486.945 152.93 486.968 153.025 486.968 153.121V156.824L486.302 165.512C486.29 165.634 486.248 165.753 486.177 165.855L482.194 171.408L470.229 186.858L466.265 192.388L460.86 197.432L455.657 205.324L448.288 213.432L445.71 217.646L441.734 224.424C441.704 224.482 441.656 224.537 441.609 224.584L440.281 225.817L434.353 232.554L431.727 235.001L427.793 241.701C427.751 241.779 427.686 241.848 427.614 241.906L423.632 244.992L419.769 249.809C419.721 249.873 419.655 249.928 419.584 249.972L417.756 251.1L417.31 251.941L418.53 257.051L421.03 259.371L423.947 260.978L430.197 259.816L431.275 259.313L435.15 254.51C435.192 254.458 435.24 254.41 435.299 254.369L437.954 252.519C438.133 252.403 438.359 252.364 438.561 252.392L441.877 253.009C441.942 253.02 442.008 253.042 442.067 253.069L446.05 254.919C446.216 254.997 446.347 255.13 446.419 255.29L447.746 258.376L448.449 261.586L453.074 273.831L456.401 284.978C456.425 285.058 456.437 285.144 456.431 285.229L455.771 292.635L455.098 296.996L453.812 302.382L455.711 306.492C455.746 306.58 455.771 306.674 455.771 306.771V309.133L462.372 329.394L466.979 338.558C467.015 338.624 467.033 338.696 467.045 338.768L467.711 343.704L467.717 357.37L467.051 365.447C467.039 365.53 467.021 365.613 466.979 365.688L462.997 373.71L456.288 382.465L453.723 386.043L452.491 390.622L462.342 410.762L466.265 416.215C466.331 416.306 466.372 416.411 466.384 416.519L467.045 421.455L465.062 446.279L464.378 449.451Z" fill="black"/>
</svg>
