<?xml version="1.0" encoding="utf-8"?>
<!-- Generator: Adobe Illustrator 22.0.1, SVG Export Plug-In . SVG Version: 6.00 Build 0)  -->
<svg version="1.1" id="Layer_1" xmlns="http://www.w3.org/2000/svg" xmlns:xlink="http://www.w3.org/1999/xlink" x="0px" y="0px"
	 viewBox="0 0 147.7 111.8" style="enable-background:new 0 0 147.7 111.8;" xml:space="preserve">
<style type="text/css">
	.st0{fill:#BEC9D2;}
	.st1{fill:#E6E6E6;stroke:#0A0A0D;stroke-miterlimit:10;}
	.st2{fill:none;stroke:#BEC9D2;stroke-linecap:round;stroke-linejoin:round;stroke-miterlimit:10;}
	.st3{fill:#FFFFFF;stroke:#0A0A0D;stroke-linecap:round;stroke-linejoin:round;stroke-miterlimit:10;}
	.st4{fill:none;stroke:#E6E6E6;stroke-linecap:round;stroke-linejoin:round;stroke-miterlimit:10;}
	.st5{fill:#FFFFFF;stroke:#E6E6E6;stroke-miterlimit:10;}
	.st6{fill:#0A0A0D;}
	.st7{fill:none;stroke:#0A0A0D;stroke-linecap:round;stroke-linejoin:round;stroke-miterlimit:10;}
	.st8{fill:#FFFFFF;}
	.st9{fill:none;stroke:#0A0A0D;stroke-width:0.5;stroke-linecap:round;stroke-linejoin:round;stroke-miterlimit:10;}
	.st10{opacity:0.5;}
	.st11{fill:#FFFFFF;stroke:#0A0A0D;stroke-miterlimit:10;}
	.st12{fill:#E6E6E6;stroke:#0A0A0D;stroke-linecap:round;stroke-linejoin:round;stroke-miterlimit:10;}
</style>
<title>Advise</title>
<g>
	<path class="st0" d="M117.1,86.5c-0.1,0.9-1.9,2.3-2.2,2.6c-1.3,1.1-2.7,2.1-4.3,2.7c-3.5,1.4-7,2.8-10.4,4.2
		c-1.8,0.7-3.5,1.5-5.2,2.3c-1.2,0.6-2.9,1.1-4.1,0.1c-0.2-0.2-0.4-0.6-0.4-0.7l-0.5-0.1v4.3c0,0,1.4,1.7,6.7-0.9
		c0,0,8.3-3.9,10.1-4.2c0,0,8.8-2.6,10.1-5.5L117.1,86.5L117.1,86.5z"/>
</g>
<g>
	<g>
		<path class="st0" d="M59,65.3c1.4-1.3,3.5-1.7,4.7-3.5c0.1-0.1,0.2-0.3,0.2-0.5c-0.1-0.5-3-0.8-3.6-1.4c-0.2-0.2-0.8-0.9-1.1-0.8
			c-0.2,0-0.2,0.3-0.3,0.4c-0.1,0-0.1,0.1-0.3,0.1c-1-0.1-1.4-2-2.6-1.8c-2.7,0.4-5.2,0.7-7.9,0.7c-0.8,0-1.3,0-1.6,0
			c-0.5,0-0.5,0-0.5,0c-0.4,0-1.1,0-2.2,0c-1.4,0-2.7-0.1-4.1,0c-1.2,0.1-2.5,0.7-3.7,0.6c-1.1-0.1-2-0.8-3-1.3
			c-0.7-0.4-4.2-2.4-3-3.6c0.3-0.3,0.8-0.4,1.1-0.9c0.8-1.6-1.6-2.2-2.1-3.1l-0.5-0.3c-0.1,1.6-0.1,2.6-0.1,3.8c0,0,0,0.1,0,0.1
			c0.1,0.1,0.2,0.1,0.3,0.1c0.4,0,0.2,0.3,0.4,0.6c0.2,0.3,0.2,0.7,0.2,1.1c0,0.8,0.5,1.5,0.5,2.2c0,1.1,0,2.2,0,3.4
			c0,0,3.9,4.6,6.7,4.1c0,0,4.2-2.2,8.2-1.6c1.1,0.2,2.3,0,3.3,0.1c1.4,0,2.8,0.1,4.2,0.1c1.1,0,1.9-0.3,2.9-0.6
			c0.1,0,0.7,0.8,0.8,0.9c0.5,0.4,2.9,1.3,3.4,0.8L59,65.3z"/>
	</g>
</g>
<path class="st1" d="M138.6,59c-1.9,0.3-4,0.2-5.4-1.2c-1.4-1.4,0,0,0.7-0.7c1.5-1.5-4.5-4.9-3.6-5.8c0.7-0.7,2.9-2.3,2.6-3.2
	c-0.3-1.2-0.5-2.4-0.9-3.6c-0.3-1-0.8-1.9-1.1-2.9c-0.1-0.3-0.1-0.7,0.1-0.9c0.2-0.3,0.5-0.4,0.8-0.3c1.2,0.1,2.2,1.1,3.3,0.5
	c0.9-0.5,1.6-1.2,0.7-1.9c-1-0.7-2.2-1.4-3.4-1.3c-2.9,0.3-5.8,1.3-8.6,0.2c-2.3-0.9-3.8-2.3-6.4-2.3c-1.3,0-1.8,1.1-2.6,1.9
	c-1.2,1.3-2.9,0.7-4.2-0.1c-1.1-0.6-2.2-1.7-3.5-1.8c-1.2-0.1-2,0.6-2.9-0.3c-1-1-0.4-2.4,0.9-2.7c0.5-0.1,1-0.1,1.5-0.3
	c0.7-0.2,1-1.7,0.1-1.7c-1.7,0-3.2,0.5-4.9,0.7c-2.4,0.3-4.7-0.5-7.1-0.6c-1.8-0.1-3.6-0.2-5.5,0c-1.5,0.2-3.3,1.1-4.8,0.4
	c-1-0.5-1.1-1.9-2.2-2.1c-2-0.5-4.8,1.9-6.6,2.7c-2.3,1-4.7,1.9-7.2,2.7c-3.1,1-6.4,0.3-9.5,1.3c-2.9,0.8-5.8,2.1-8.7,3
	c-2.3,0.7-5,1.1-7.2,2.2c-1.2,0.6-2.2,1.5-3.1,2.5c-0.6,0.6-1.7,2.3-2.5,2.6c1,0,2.9-0.5,3.7,0.3c0.5,0.6,0.2,1.8,1.2,1.8
	c2.2,0,4.5,0,6.7,0c1.2,0,2.3,0,3.5,0c1.5,0,1.9,0.1,2.9-1c0.9-1,1.8-1.9,2.8-2.7c1.4-1.2,2.8-2.2,4.4-3.1c1.3-0.8,3.1-2,4.7-1.6
	c0.5,0.2,1,0.5,1.4,0.9c1.6,1.4,3.9,2.6,4.8,4.6c0.6,1.4,1.3,1.4,2.8,1.3c3-0.3,5.9-0.6,8.9-1.1c2.7-0.4,5.3-1.1,7.9-1.4
	c5.5-0.7,11.5,0.9,15.6,4.7c0.8,0.8,0.6,1.2-0.3,1.7c-1.2,0.7-2.2,1.5-3.6,1.9c-1.4,0.4-2.9,0.5-4.3,0.7c-1,0.1-2,0.8-2.7,1.6
	c-0.9,1-0.4,2.1-1,3.2c-0.2,0.3-0.4,0.6-0.5,0.9c-0.5,1.6,1.4,0.3,1.8,0c1.5-0.9,2.2-1.3,4-1.1c3.1,0.5,5.9,0.7,9.1,0.1
	c0.4-0.1,0.7-0.1,1.1-0.3c1.3-0.5,2.4-1.6,3.7-2.1c0.2-0.1,0.4-0.2,0.6-0.1c0.8,0.3-0.6,1.3-0.8,1.5c-0.3,0.2-1.7,1.7-1,2.1
	c0.1,0.1,0.3,0.1,0.4,0c3-0.3,5.8-1.7,8.2-3.4c1.3-0.9,2.4-2.7,4.1-2.9c1.9-0.2,2.2,2.2,3.8,2.7c0.8,0.2,1.5-0.1,0.8,0.8
	c-0.4,0.4-3.5,3.4-2.5,3.6c0.8,0.1,2.1,0.1,2.7,0.7c1.1,1-0.4,2.3-1.4,2.8c-2.3,1.1-5.3,1.2-7.7,1.4c-1.7,0.1-3.2,0.7-4.6,1.7
	c-1.9,1.4-3.2,2.6-4.3,4.6l0,0c2.2-0.4,4.3-0.9,6.4-1.4c4.4-1.2,8.8-2.7,13.2-4c4.7-1.3,8.8-2.4,12-6.4
	C143.6,57.9,140.7,58.7,138.6,59z"/>
<path class="st0" d="M34.6,100.3c1.3,0,2.6,0,3.9,0c1.8,0,3.6,0,5.5,0c5,0,10.3-1.6,15.1-2.9c7.9-2.2,2.2-1.4,5.8-2.9
	c1.3-0.5,2.5-1.1,3.7-1.7c1.5-0.8,3.3-0.4,4.9-0.4c2.2,0,0.7-0.7,2.2-2.2c1.2-1.2,2.8-2.4,4.3-2.9c5.1-1.7,10.6-1.8,15.5-4.1
	c1.5-0.7,4.7-1.7,4.7-3.8c0-1.6,1.7-2.7,2.9-3.3c1.9-1,3.8-2.3,5.6-3.5c0.8-0.5,1.4-1.2,2.2-1.6c0.8-0.4,1.7-0.4,2.6-0.6l0.2,0
	c2.2-0.4,4.3-0.9,6.4-1.4c4.4-1.2,8.8-2.7,13.2-4c4.7-1.3,8.8-2.4,12-6.4l0.9,0.2l-0.4,5.3c-2,2-4.7,3.5-7.2,4.8
	c-3.2,1.6-6.6,3-10.1,3.9c-4.6,1.2-9.3,1.7-14,2.6c-1.7,0.3-2.9,1.5-4.2,2.5c-0.8,0.6-1.7,1.3-2.5,1.9c-0.9,0.5-1.5,1.3-1.5,2.3
	c0,1.3-0.4,2.2-1.4,3.1c-1.4,1.4-3.3,2.7-5.2,3.2c-2.3,0.5-4.5,1.1-6.8,1.8c-4.4,1.3-8.7,2.9-12.8,4.8c-0.1,0.1-0.2,0.1-0.3,0.2
	c-0.1,0.1-0.2,0.3-0.2,0.4c-0.3,0.8-0.7,1.5-1.5,1.9c-1.2,0.6-3.1,0-4.4-0.2c-0.2,0-0.4-0.1-0.5,0c-0.1,0-0.3,0.1-0.4,0.1
	c-1.7,0.7-3.5,1.3-5.2,1.9c-0.2,0.1-0.4,0.1-0.6,0.3c-0.2,0.1-0.2,0.4-0.2,0.6c0.1,0.2,0.5,0.4,0.4,0.7c0,0.1-0.1,0.1-0.2,0.2
	c-0.8,0.4-1.5,0.7-2.3,1c-3.6,1.3-7.4,2-11.1,2.6c-4,0.6-8,1.2-12,1.4c-2.9,0.1-6.4,0.2-9.3,0.1v-6.5L34.6,100.3z"/>
<path class="st0" d="M133.9,56.9c-0.4-3.1-4.6-4.7-3.7-5.6c0.7-0.7,2.9-2.3,2.6-3.2c-0.3-1.2-0.5-2.4-0.9-3.6
	c-0.3-1-0.8-1.9-1.1-2.9c-0.1-0.3-0.1-0.7,0.1-0.9c0.2-0.3,0.5-0.4,0.8-0.3c1.2,0.1,2.2,1.1,3.3,0.5c0.9-0.5,0.6-1.9,1.2-1.9
	c0.2,0,0.4,0.8,0.4,0.8c0,0.7,0,1.4,0,2.2c0,0.4,0,0.8,0.1,1.2c0,0.2,0.1,0.5,0,0.7c-0.1,0.4-0.3,0.2-0.6,0.2c-0.4,0-0.7,0.2-1,0.5
	c-0.4,0.6-0.1,1.5,0.1,2.2c0.2,0.8,0.5,1.6,0.7,2.4c0.4,1.1,0.7,2.6-0.6,3.3c-1.8,1-2.1,1.6-1.3,3L133.9,56.9z"/>
<line class="st2" x1="33.8" y1="50.9" x2="38.2" y2="48.1"/>
<line class="st2" x1="58.1" y1="48.7" x2="65" y2="44.1"/>
<path class="st3" d="M114.2,70.4c2.2-0.4,4.3-0.9,6.4-1.4c4.4-1.2,8.8-2.7,13.2-4c4.7-1.3,8.8-2.4,12-6.4c-2.2-0.7-5.1,0.2-7.2,0.5
	c-1.9,0.3-4,0.2-5.4-1.2c-1.4-1.4,0,0,0.7-0.7c1.5-1.5-4.5-4.9-3.6-5.8c0.7-0.7,2.9-2.3,2.6-3.2c-0.3-1.2-0.5-2.4-0.9-3.6
	c-0.3-1-0.8-1.9-1.1-2.9c-0.1-0.3-0.1-0.7,0.1-0.9c0.2-0.3,0.5-0.4,0.8-0.3c1.2,0.1,2.2,1.1,3.3,0.5c0.9-0.5,1.6-1.2,0.7-1.9
	c-1-0.7-2.2-1.4-3.4-1.3c-2.9,0.3-5.8,1.3-8.6,0.2c-2.3-0.9-3.8-2.3-6.4-2.3c-1.3,0-1.8,1.1-2.6,1.9c-1.2,1.3-2.9,0.7-4.2-0.1
	c-1.1-0.6-2.2-1.7-3.5-1.8c-1.2-0.1-2,0.6-2.9-0.3c-1-1-0.4-2.4,0.9-2.7c0.5-0.1,1-0.1,1.5-0.3c0.7-0.2,1-1.7,0.1-1.7
	c-1.7,0-3.2,0.5-4.9,0.7c-2.4,0.3-4.7-0.5-7.1-0.6c-1.8-0.1-3.6-0.2-5.5,0c-1.5,0.2-3.3,1.1-4.8,0.4c-1-0.5-1.1-1.9-2.2-2.1
	c-2-0.5-4.8,1.9-6.6,2.7c-2.3,1-4.7,1.9-7.2,2.7c-3.1,1-6.4,0.3-9.5,1.3c-2.9,0.8-5.8,2.1-8.7,3c-2.3,0.7-5,1.1-7.2,2.2
	c-1.2,0.6-2.2,1.5-3.1,2.5c-0.6,0.6-1.7,2.3-2.5,2.6c-2.6,0.9-5.9,1.6-7.9,3.6c-1.6,1.6,2.8,2,1.8,4.2c-0.2,0.5-0.7,0.5-1.1,0.9
	c-1.2,1.2,2.2,3.1,3,3.6c1,0.6,1.8,1.2,3,1.3c1.2,0.1,2.5-0.5,3.7-0.6c1.4-0.1,2.7,0,4.1,0c1.1,0,1.8,0,2.2,0c0,0,0,0,0.5,0
	c0.3,0,0.8,0,1.6,0c2.7,0,5.2-0.3,7.9-0.7c1.1-0.2,1.6,1.7,2.6,1.8c0.2,0,0.2-0.1,0.3-0.1c0.1,0,0.1-0.3,0.3-0.4
	c0.4,0,0.9,0.6,1.1,0.8c0.5,0.5,3.5,0.9,3.6,1.4c0,0.2-0.1,0.3-0.2,0.5c-1.3,1.9-3.6,2.2-5.1,3.9c-1.3,1.5-0.1,4-0.4,5.7
	c-0.5,2.6-2.8,4.1-5,5.1c-2.8,1.3-5.7,2.1-8.3,3.6c-1.3,0.7-3.2,1.5-3.8,2.9c-0.3,0.7-0.3,1.5-0.3,2.3c0,0.8,0.4,1.5-0.1,2.2
	c-0.7,1.1-1.9,2.1-3,2.8c-0.9,0.6-1.8,1-2,2.3c-0.2,1.3,0.3,2.7,0.1,4c-0.3,1.8-1.7,1.1-2.6,2.2c-1.4,1.7,1,1.5,1.9,1.5
	c1.3,0,2.6,0,3.9,0c1.8,0,3.6,0,5.5,0c5,0,10.3-1.6,15.1-2.9c7.9-2.2,2.2-1.4,5.8-2.9c1.3-0.5,2.5-1.1,3.7-1.7
	c1.5-0.8,3.3-0.4,4.9-0.4c2.2,0,0.7-0.7,2.2-2.2c1.2-1.2,2.8-2.4,4.3-2.9c5.1-1.7,10.6-1.8,15.5-4.1c1.5-0.7,4.7-1.7,4.7-3.8
	c0-1.6,1.7-2.7,2.9-3.3c1.9-1,3.8-2.3,5.6-3.5c0.8-0.5,1.4-1.2,2.2-1.6c0.8-0.4,1.7-0.4,2.6-0.6L114.2,70.4z"/>
<line class="st2" x1="49.2" y1="54.7" x2="52.7" y2="52.3"/>
<line class="st2" x1="57.3" y1="54.7" x2="68.8" y2="47.2"/>
<line class="st2" x1="66.3" y1="59.7" x2="84.4" y2="48"/>
<line class="st2" x1="82.1" y1="67.5" x2="93" y2="60.4"/>
<line class="st2" x1="65.2" y1="78.5" x2="68.8" y2="76.1"/>
<line class="st2" x1="49.9" y1="88.3" x2="54.7" y2="85.3"/>
<line class="st2" x1="39.4" y1="95.2" x2="45.4" y2="91.3"/>
<line class="st2" x1="87.8" y1="57" x2="101.5" y2="48.2"/>
<line class="st2" x1="72.2" y1="67.1" x2="83" y2="60.1"/>
<line class="st2" x1="62" y1="73.8" x2="67.2" y2="70.4"/>
<line class="st2" x1="44.8" y1="85.1" x2="51.4" y2="80.7"/>
<line class="st4" x1="88.7" y1="50.3" x2="95.1" y2="46"/>
<line class="st2" x1="62.5" y1="68.1" x2="82.3" y2="54.7"/>
<line class="st2" x1="86.2" y1="70.4" x2="98.8" y2="61.9"/>
<line class="st2" x1="122.5" y1="59" x2="126.8" y2="56.1"/>
<line class="st2" x1="94.6" y1="77.5" x2="119" y2="61.4"/>
<line class="st2" x1="86.9" y1="82.6" x2="91.9" y2="79.3"/>
<line class="st2" x1="100.8" y1="66.5" x2="108.8" y2="61.1"/>
<line class="st2" x1="86.4" y1="76.3" x2="95.4" y2="70.2"/>
<line class="st2" x1="63.8" y1="91.6" x2="81" y2="79.9"/>
<path class="st4" d="M73.4,79.1"/>
<line class="st2" x1="48.8" y1="95.8" x2="69.2" y2="82"/>
<line class="st2" x1="70" y1="51.7" x2="74.4" y2="48.7"/>
<line class="st2" x1="62" y1="57.1" x2="65.6" y2="54.7"/>
<line class="st2" x1="33.8" y1="55.1" x2="42.5" y2="49.5"/>
<line class="st2" x1="39.7" y1="55.6" x2="48.4" y2="50"/>
<path class="st5" d="M90.7,97.6c0-0.2,0.2-0.3,0.3-0.5c0.5-0.6,1-1.1,1.5-1.6c1.2-1,2.6-1.7,4.1-2.2c0.5-0.2,1.9-0.3,2.3-0.7
	c0.4-0.4-0.1-1.1,0.5-1.6c0.5-0.4,1.3-0.5,1.9-0.7c1.9-0.4,3.8-0.8,5.7-0.7c3.1,0.1,5.8-2.5,8.6-3.5c0.2-0.1,0.4-0.1,0.5-0.1
	c1.5,0.2-0.8,2.7-1.2,3c-1.3,1.1-2.7,2.1-4.3,2.7c-3.5,1.4-7,2.8-10.4,4.2c-1.8,0.7-3.5,1.5-5.2,2.3c-1.2,0.6-2.9,1.1-4.1,0.1
	c-0.2-0.2-0.4-0.4-0.4-0.7C90.6,97.7,90.6,97.6,90.7,97.6z"/>
<path class="st6" d="M34.6,74.1h-2c-0.6,0-0.6,0.9,0,0.9h2C35.2,75.1,35.2,74.1,34.6,74.1z"/>
<path class="st6" d="M24.8,77.2h-2.9c-0.6,0-0.6,0.9,0,0.9h2.9C25.4,78.2,25.4,77.2,24.8,77.2z"/>
<path class="st6" d="M30.5,85.3c-0.7,0.1-1.4,0.1-2.1,0c-0.6,0-0.6,0.9,0,0.9c0.7,0,1.4,0,2.1,0C31.1,86.2,31.1,85.2,30.5,85.3z"/>
<path class="st6" d="M1.8,84.7H0.5c-0.6,0-0.6,0.9,0,0.9h1.3C2.4,85.6,2.4,84.7,1.8,84.7z"/>
<path class="st6" d="M5.3,70H3.7c-0.6,0-0.6,0.9,0,0.9h1.5C5.9,71,5.9,70,5.3,70z"/>
<path class="st6" d="M27.8,96.3c-0.6,0.1-1.3,0.1-1.9,0.1c-0.6,0-0.6,0.9,0,0.9c0.6,0,1.3,0,1.9-0.1C28.4,97.2,28.4,96.2,27.8,96.3z
	"/>
<path class="st6" d="M47.2,68.2H46c-0.6,0-0.6,0.9,0,0.9h1.2C47.8,69.2,47.8,68.2,47.2,68.2z"/>
<path class="st6" d="M74.2,108.4h-1.8c-0.6,0-0.6,0.9,0,0.9h1.8C74.8,109.4,74.8,108.4,74.2,108.4z"/>
<path class="st6" d="M82.5,104.7h-1.8c-0.6,0-0.6,0.9,0,0.9h1.8C83.1,105.6,83.1,104.7,82.5,104.7z"/>
<path class="st6" d="M50.3,109.8h-2.5c-0.6,0-0.6,0.9,0,0.9h2.5C50.9,110.7,50.9,109.8,50.3,109.8z"/>
<path class="st6" d="M104.1,104.7h-2.9c-0.6,0-0.6,0.9,0,0.9h2.9C104.7,105.6,104.7,104.7,104.1,104.7z"/>
<path class="st6" d="M90.4,110.7h-1.2c-0.6,0-0.6,0.9,0,0.9h1.2C91,111.7,91,110.7,90.4,110.7z"/>
<path class="st6" d="M134,78h-3.1c-0.6,0-0.6,0.9,0,0.9h3.1C134.7,78.9,134.7,78,134,78z"/>
<path class="st6" d="M140.2,83.8h-1.3c-0.6,0-0.6,0.9,0,0.9h1.3C140.8,84.7,140.8,83.8,140.2,83.8z"/>
<path class="st6" d="M129.3,86.7h-2.1c-0.6,0-0.6,0.9,0,0.9h2.1C129.9,87.6,129.9,86.7,129.3,86.7z"/>
<path class="st6" d="M117.3,80.5h-1.2c-0.6,0-0.6,0.9,0,0.9h1.2C117.9,81.5,117.9,80.5,117.3,80.5z"/>
<path class="st6" d="M147.3,70.6h-1.8c-0.6,0-0.6,0.9,0,0.9h1.8C147.9,71.6,147.9,70.6,147.3,70.6z"/>
<g>
	<polygon class="st7" points="6.1,96.1 5.2,100.7 15,95.2 15,91 	"/>
	<polygon class="st7" points="7.4,91.4 10.5,89.6 10.3,93.7 7.2,95.5 	"/>
	<polyline class="st7" points="10.5,89.6 7.2,89.6 5.3,90.9 5.2,94.5 3.3,95.8 1.6,102.8 6.4,102.7 14.7,98.1 15,95.2 	"/>
	<polygon class="st0" points="6.4,103.1 12,103 20.4,98.3 15.2,98.1 	"/>
	<line class="st7" x1="5.2" y1="100.7" x2="2.1" y2="100.6"/>
	<polyline class="st7" points="10.5,91.3 11.7,90.6 15,91 	"/>
	<polyline class="st7" points="14.4,90.9 14.4,88.4 14.4,84.7 11.3,87 14.4,88.4 	"/>
</g>
<g>
	<polygon class="st0" points="62.1,84.3 58.7,84.3 59.4,83.3 62.7,83.3 	"/>
	<g>
		<polygon class="st8" points="57.7,84.1 58.9,84.1 61.4,80.7 59.5,79.1 57.5,79.1 56.4,79.8 55.3,80.9 		"/>
		<g>
			<polygon class="st9" points="55.3,80.9 56.4,79.8 58.9,79.8 60,80.9 57.7,84.1 			"/>
			<line class="st9" x1="55.8" y1="81" x2="59.5" y2="81"/>
			<polyline class="st9" points="57,81 56.4,79.8 57.5,79.1 59.5,79.1 61.4,80.7 58.9,84.1 57.7,84.1 			"/>
			<line class="st9" x1="58.9" y1="79.8" x2="58.1" y2="81"/>
			<line class="st9" x1="60" y1="80.9" x2="61.4" y2="80.7"/>
			<line class="st9" x1="56.2" y1="78.3" x2="55.5" y2="77.4"/>
			<line class="st9" x1="58.3" y1="76" x2="58.3" y2="77.6"/>
			<line class="st9" x1="60.4" y1="78.3" x2="61.2" y2="77.3"/>
		</g>
	</g>
</g>
<g>
	<polygon class="st0" points="80.2,77.4 76.8,77.4 77.5,76.4 80.8,76.4 	"/>
	<g>
		<polygon class="st8" points="75.8,77.2 77,77.2 79.5,73.8 77.6,72.2 75.6,72.2 74.6,72.9 73.4,74 		"/>
		<g>
			<polygon class="st9" points="73.4,74 74.6,72.9 77,72.9 78.1,74 75.8,77.2 			"/>
			<line class="st9" x1="73.9" y1="74.1" x2="77.6" y2="74.1"/>
			<polyline class="st9" points="75.1,74.1 74.6,72.9 75.6,72.2 77.6,72.2 79.5,73.8 77,77.2 75.8,77.2 			"/>
			<line class="st9" x1="77" y1="72.9" x2="76.2" y2="74.1"/>
			<line class="st9" x1="78.1" y1="74" x2="79.5" y2="73.8"/>
			<line class="st9" x1="74.3" y1="71.4" x2="73.6" y2="70.5"/>
			<line class="st9" x1="76.4" y1="69.1" x2="76.4" y2="70.7"/>
			<line class="st9" x1="78.5" y1="71.4" x2="79.3" y2="70.4"/>
		</g>
	</g>
</g>
<g>
	<g>
		<g>
			<line class="st9" x1="134.1" y1="21.2" x2="133.4" y2="20.3"/>
			<line class="st9" x1="136.2" y1="18.9" x2="136.2" y2="20.5"/>
			<line class="st9" x1="138.3" y1="21.3" x2="139.2" y2="20.2"/>
		</g>
	</g>
	<g>
		<g>
			<line class="st9" x1="138.4" y1="28.8" x2="139.2" y2="29.7"/>
			<line class="st9" x1="136.4" y1="31" x2="136.4" y2="29.4"/>
			<line class="st9" x1="134.2" y1="28.7" x2="133.4" y2="29.7"/>
		</g>
	</g>
	<g>
		<g>
			<line class="st9" x1="132.5" y1="26.7" x2="131.6" y2="27.5"/>
			<line class="st9" x1="130.2" y1="24.7" x2="131.8" y2="24.7"/>
			<line class="st9" x1="132.6" y1="22.6" x2="131.5" y2="21.7"/>
		</g>
	</g>
	<g>
		<g>
			<line class="st9" x1="140.7" y1="22.6" x2="141.7" y2="21.7"/>
		</g>
	</g>
	<g>
		<g>
			<line class="st9" x1="140.9" y1="26.7" x2="141.8" y2="27.5"/>
			<line class="st9" x1="143.2" y1="24.7" x2="141.6" y2="24.7"/>
		</g>
	</g>
	<circle class="st9" cx="136.3" cy="24.8" r="2.7"/>
	<path class="st9" d="M136.3,27.5l0.9,0c1.5,0,2.8-1.2,2.8-2.7c0,0,0,0,0,0c0,0,0,0,0,0c0-1.4-1.3-2.6-2.7-2.6l-1,0"/>
	<line class="st9" x1="138.2" y1="23" x2="139.2" y2="23"/>
	<line class="st9" x1="139" y1="23.8" x2="139.8" y2="23.8"/>
	<line class="st9" x1="139" y1="24.8" x2="140" y2="24.8"/>
	<line class="st9" x1="138.8" y1="25.6" x2="139.8" y2="25.6"/>
	<line class="st9" x1="138.4" y1="26.4" x2="139.2" y2="26.4"/>
</g>
<g>
	<path class="st3" d="M68.9,14.8c-0.7,1.3-1.3,2.6-1.9,3.9"/>
	<path class="st3" d="M72.6,9.7c-0.9,0.9-1.6,1.9-2.4,3"/>
	<path class="st3" d="M86,1.5c-3,0.9-5.9,2.2-8.4,3.9"/>
	<path class="st3" d="M96.5,0.5c-0.9-0.1-1.9-0.1-2.8-0.1c-2,0-3.9,0.2-5.8,0.6"/>
	<path class="st3" d="M100.9,1.3c-0.5-0.1-1-0.2-1.5-0.3"/>
	<path class="st3" d="M115.1,10.1c-2.4-2.7-5.2-5-8.5-6.6"/>
	<path class="st3" d="M121.3,21.6c-0.9-3.3-2.4-6.4-4.3-9.1"/>
</g>
<g class="st10">
	<path class="st0" d="M114.1,69.4c1.1-1.5,2.5-2.7,4-3.7c0.8-0.5,1.6-0.9,2.5-1.1c0.9-0.2,1.8-0.3,2.7-0.4c1.8-0.2,3.6-0.3,5.3-0.9
		c0.9-0.3,1.7-0.7,2.3-1.3c0.3-0.3,0.5-0.7,0.5-1c0-0.3-0.3-0.6-0.7-0.8c-0.4-0.2-0.8-0.2-1.3-0.3l-0.7-0.1c-0.1,0-0.2,0-0.4-0.1
		c-0.1,0-0.2-0.1-0.3-0.2c-0.1-0.1,0-0.2,0-0.3c0.2-0.6,0.5-0.9,0.8-1.3c0.3-0.4,0.6-0.7,0.9-1l0.9-1c0.1-0.1,0.3-0.3,0.3-0.5
		c0,0,0,0,0,0.1c0,0.1,0,0.1,0.1,0.1c0,0,0,0,0,0c-0.1,0-0.2,0-0.3,0c-0.5,0-1-0.2-1.4-0.5c-0.4-0.3-0.7-0.7-1-1
		c-0.6-0.7-1.2-1.3-1.9-1.2c-0.8,0.1-1.5,0.6-2.2,1.2c-0.6,0.6-1.3,1.3-2.1,1.8c-0.8,0.5-1.5,1-2.4,1.5c-1.6,0.9-3.4,1.5-5.3,1.8
		c-0.3,0-0.4,0.1-0.8,0.1c-0.2,0-0.5-0.2-0.6-0.4c-0.1-0.3-0.1-0.5,0-0.6c0.2-0.6,0.5-0.9,0.8-1.3c0.2-0.2,0.3-0.3,0.5-0.5
		c0.2-0.2,0.4-0.3,0.5-0.4c0.1-0.1,0.3-0.3,0.4-0.4c0-0.1,0-0.1,0,0c0.1,0.1,0.1,0.1,0,0.1c0,0-0.1,0-0.3,0.1
		c-0.2,0.1-0.4,0.2-0.6,0.3c-0.4,0.2-0.7,0.5-1.1,0.7c-0.7,0.5-1.6,1.1-2.6,1.3c-1.9,0.4-3.7,0.5-5.6,0.5c-0.9,0-1.8-0.1-2.8-0.2
		c-0.9-0.1-1.8-0.3-2.6-0.3c-0.8,0-1.5,0.5-2.3,0.9c-0.4,0.2-0.8,0.5-1.2,0.7c-0.2,0.1-0.5,0.2-0.8,0.3c-0.1,0-0.2,0-0.4,0
		c-0.2-0.1-0.3-0.2-0.4-0.3c-0.2-0.3-0.1-0.5-0.1-0.6c0-0.2,0.1-0.3,0.1-0.4c0-0.1,0.1-0.3,0.2-0.4l0.4-0.6c0.2-0.3,0.3-0.7,0.3-1.1
		c0.1-0.4,0.1-0.9,0.3-1.5c0.2-0.5,0.6-0.9,0.9-1.3c0.7-0.6,1.7-1.2,2.7-1.3c0.9-0.1,1.8-0.2,2.7-0.4c0.9-0.1,1.7-0.3,2.5-0.7
		c0.8-0.4,1.5-0.9,2.3-1.4c0.2-0.1,0.4-0.2,0.5-0.3c0.1-0.1,0.1-0.2,0.1-0.2c0-0.1-0.4-0.5-0.7-0.8c-0.6-0.6-1.4-1.1-2.1-1.6
		c-3-1.9-6.6-2.8-10.1-2.9c-3.6-0.1-7.1,1.1-10.7,1.6l-5.4,0.6l-2.7,0.3c-0.5,0.1-0.9,0.1-1.4,0.1c-0.5,0-1.1,0-1.5-0.4
		c-0.5-0.4-0.7-0.9-0.8-1.3c-0.2-0.4-0.4-0.7-0.7-1.1c-0.5-0.7-1.2-1.2-1.9-1.8c-0.7-0.5-1.5-1.1-2.2-1.7c-0.3-0.3-0.7-0.5-1-0.7
		c-0.4-0.1-0.8-0.2-1.2-0.1c-0.8,0.1-1.6,0.5-2.4,1c-0.8,0.5-1.6,0.9-2.3,1.4c-1.5,1-2.9,2.1-4.3,3.3c-0.7,0.6-1.3,1.3-1.9,1.9
		c-0.3,0.3-0.8,0.6-1.3,0.7c-0.5,0.1-0.9,0-1.4,0L46,48.2l-2.7,0l-1.4,0l-0.7,0c-0.2,0-0.5-0.1-0.6-0.3c-0.3-0.4-0.2-0.9-0.4-1.3
		c-0.2-0.4-0.6-0.6-1.1-0.7c-0.9-0.1-1.8,0.1-2.7,0.1c0.9,0,1.8-0.3,2.7-0.1c0.4,0.1,0.9,0.3,1.1,0.7c0.2,0.4,0.2,0.9,0.4,1.3
		c0.2,0.4,0.8,0.2,1.2,0.2l1.4,0l2.7,0l5.5-0.1c0.5,0,0.9,0,1.3-0.1c0.4-0.1,0.7-0.3,1.1-0.6c0.6-0.6,1.2-1.3,1.9-2
		c1.3-1.3,2.8-2.4,4.3-3.4c0.8-0.5,1.5-1,2.3-1.5c0.8-0.5,1.6-0.9,2.6-1.1c0.5-0.1,1-0.1,1.5,0.1c0.5,0.2,0.9,0.5,1.3,0.8
		c0.7,0.6,1.4,1.1,2.2,1.6c0.7,0.6,1.5,1.1,2.1,1.9c0.3,0.4,0.6,0.8,0.8,1.2c0.2,0.4,0.4,0.8,0.6,1c0.5,0.4,1.5,0.2,2.4,0.1l2.7-0.3
		l5.4-0.7c3.6-0.5,7.1-1.7,10.8-1.6c3.7,0,7.4,1,10.6,3c0.8,0.5,1.6,1,2.2,1.7c0.2,0.2,0.3,0.3,0.5,0.5c0.2,0.2,0.4,0.4,0.5,0.8
		c0.1,0.5-0.2,0.9-0.4,1c-0.2,0.2-0.4,0.3-0.6,0.4c-0.8,0.4-1.5,1-2.4,1.4c-0.9,0.5-1.8,0.7-2.8,0.8c-0.9,0.1-1.8,0.2-2.7,0.3
		c-0.8,0.1-1.5,0.5-2.2,1c-0.3,0.3-0.6,0.6-0.7,0.9c-0.1,0.3-0.2,0.7-0.2,1.2c-0.1,0.5-0.2,1-0.4,1.5c-0.3,0.5-0.5,0.7-0.5,1.1
		c0,0.1,0,0.1,0,0c0,0-0.1-0.1-0.1-0.1c0,0,0,0,0,0c0.1,0,0.3-0.1,0.5-0.2c0.4-0.2,0.7-0.4,1.1-0.7c0.8-0.5,1.7-1,2.7-1.1
		c0.5,0,1,0,1.5,0.1l1.3,0.2c0.9,0.1,1.8,0.2,2.7,0.2c1.8,0.1,3.6,0,5.3-0.4c0.9-0.1,1.5-0.6,2.3-1.1c0.4-0.3,0.8-0.5,1.2-0.8
		c0.2-0.1,0.4-0.2,0.6-0.3c0.2-0.1,0.5-0.3,1-0.1c0.2,0.1,0.4,0.2,0.5,0.5c0.1,0.3-0.1,0.5-0.1,0.6c-0.2,0.3-0.3,0.4-0.5,0.6
		c-0.2,0.2-0.4,0.3-0.5,0.5c-0.1,0.1-0.3,0.3-0.4,0.5c-0.3,0.3-0.6,0.7-0.6,1c0,0.1,0,0.1,0,0c0,0-0.1-0.1-0.1,0
		c0.1,0,0.4,0,0.6-0.1c1.7-0.3,3.4-0.8,5-1.7c0.8-0.4,1.6-0.9,2.3-1.4c0.7-0.5,1.3-1.1,2-1.7c0.7-0.6,1.5-1.3,2.6-1.4
		c0.5-0.1,1.1,0.1,1.5,0.4c0.4,0.3,0.7,0.7,1,1c0.6,0.7,1.1,1.3,2,1.3c0.1,0,0.2,0,0.4,0c0,0,0.1,0,0.2,0.1c0.1,0,0.2,0.1,0.2,0.2
		c0.1,0.2,0,0.3,0,0.4c-0.1,0.3-0.3,0.4-0.5,0.6l-1,1c-0.3,0.3-0.6,0.7-0.9,1c-0.3,0.3-0.6,0.7-0.7,1c0,0.1,0,0,0,0c0,0,0.2,0,0.3,0
		l0.7,0.1c0.5,0.1,0.9,0.1,1.4,0.4c0.4,0.2,0.9,0.6,1,1.2c0,0.6-0.3,1-0.6,1.4c-0.7,0.7-1.6,1.1-2.5,1.3c-1.8,0.5-3.6,0.7-5.4,0.8
		c-0.9,0.1-1.8,0.1-2.7,0.3c-0.9,0.2-1.7,0.6-2.5,1C116.6,66.8,115.2,68,114.1,69.4z"/>
</g>
<g>
	<polygon class="st0" points="41.4,53.8 43.4,53.8 43.5,51.1 55.1,51.1 55.1,46.2 52.4,44.4 52,48.5 41,48.5 	"/>
	<polygon class="st0" points="41.4,39.5 43.6,40.7 43.6,44.8 40.9,44.8 	"/>
	<polygon class="st11" points="51.9,44.9 40.9,44.9 40.9,40.7 34.9,46.7 40.9,52.7 40.9,48.5 51.9,48.5 	"/>
</g>
<g>
	<polygon class="st0" points="48,39.8 48,42.5 56.9,42.5 56.9,45.3 58.9,45.3 58.9,39.8 	"/>
	<polygon class="st0" points="57.9,45.3 61.4,45.3 66.1,41.3 66.1,38 	"/>
	<polygon class="st11" points="48.4,36.2 59.4,36.2 59.4,32 65.4,38 59.4,44.1 59.4,39.8 48.4,39.8 	"/>
</g>
<circle class="st3" cx="93.7" cy="29.9" r="21.5"/>
<g>
	<polygon class="st12" points="83.1,39.3 86.4,41.8 99.6,41.8 101.3,39.3 	"/>
	<g>
		<polygon class="st3" points="99,39.3 83.1,39.3 83.1,24.2 99,24.2 99,29.8 99,36.7 		"/>
		<rect x="95" y="14.9" class="st3" width="4" height="17.1"/>
		<rect x="91.1" y="21.8" class="st3" width="4" height="10.2"/>
		<rect x="87" y="22.6" class="st3" width="4" height="9.4"/>
		<rect x="83.1" y="23.7" class="st3" width="4" height="8.3"/>
		<polygon class="st12" points="99,39.3 101.3,39.3 101.3,36.8 105.1,33.1 101.3,29 101.3,17.1 99,14.9 		"/>
		<rect x="95" y="26.7" transform="matrix(0.7071 -0.7071 0.7071 0.7071 6.2756 77.7944)" class="st3" width="4" height="9.2"/>
	</g>
</g>
</svg>
