<?xml version="1.0" encoding="utf-8"?>
<!-- Generator: Adobe Illustrator 22.0.1, SVG Export Plug-In . SVG Version: 6.00 Build 0)  -->
<svg version="1.1" id="Layer_1" xmlns="http://www.w3.org/2000/svg" xmlns:xlink="http://www.w3.org/1999/xlink" x="0px" y="0px"
	 viewBox="0 0 154.7 121.9" style="enable-background:new 0 0 154.7 121.9;" xml:space="preserve">
<style type="text/css">
	.st0{fill:#E6E6E6;}
	.st1{fill:#BEC9D2;}
	.st2{fill:none;stroke:#BEC9D2;stroke-linecap:round;stroke-linejoin:round;stroke-miterlimit:10;}
	.st3{fill:#FFFFFF;stroke:#0A0A0D;stroke-linecap:round;stroke-linejoin:round;stroke-miterlimit:10;}
	.st4{fill:#E6E6E6;stroke:#0A0A0D;stroke-linecap:round;stroke-linejoin:round;stroke-miterlimit:10;}
	.st5{fill:none;stroke:#0A0A0D;stroke-linecap:round;stroke-linejoin:round;stroke-miterlimit:10;}
	.st6{fill:#0A0A0D;}
	.st7{font-family:'FrutigerLTStd-Roman';}
	.st8{font-size:17.0227px;}
	.st9{fill:none;stroke:#E6E6E6;stroke-linecap:round;stroke-linejoin:round;}
	.st10{fill:none;stroke:#E6E6E6;stroke-linecap:round;stroke-linejoin:round;stroke-miterlimit:10;}
	.st11{font-size:12.882px;}
	.st12{fill:#FFFFFF;stroke:#BEC9D2;stroke-width:0.5;stroke-linecap:round;stroke-linejoin:round;stroke-miterlimit:10;}
	.st13{fill:none;stroke:#BEC9D2;stroke-width:0.5;stroke-linecap:round;stroke-linejoin:round;stroke-miterlimit:10;}
</style>
<g id="Layer_4">
	<g>
		<path class="st0" d="M25.8,61l-5,3.4h-8.2l10-6.8h2.6C25.1,57.6,24.9,60.1,25.8,61z"/>
		<polygon class="st0" points="43.8,60.5 35.7,60.5 29.8,64.4 38,64.4 		"/>
		<polygon class="st0" points="17.9,58.1 12.7,58.1 8.9,60.6 14.2,60.6 		"/>
		<polygon class="st1" points="92,40.3 83,40.3 67.5,50.3 77.6,50.3 		"/>
		<polygon class="st0" points="138.2,55.1 125.2,55.1 86,85.7 100.1,85.7 		"/>
		<polyline class="st2" points="28.7,40.3 30.9,40.3 17.7,63.9 14,63.9 		"/>
		<g>
			<rect x="46.6" y="45" class="st3" width="22.4" height="4.9"/>
			<polyline class="st3" points="76.4,44.6 69.1,49.9 69.1,45.2 83.9,35.6 83.9,40 81.9,41.5 			"/>
			<path class="st3" d="M76.4,40.5v4.2c0.2,0,0.4,0,0.6,0c2.7,0,4.9-0.7,4.9-1.6v-4.2"/>
			<path class="st4" d="M79.9,37.5l4-1.9h-22L46.6,45h22.7l6.5-4.6c0.4,0,0.7,0,1.1,0c2.7,0,4.9-0.7,4.9-1.6
				C81.9,38.3,81.1,37.8,79.9,37.5z"/>
		</g>
		<polygon class="st3" points="85.2,85.7 26.7,84.7 26.7,77.8 85.2,78.8 		"/>
		<polygon class="st3" points="85.2,85.7 85,78.8 125.2,48.4 125.1,54.9 		"/>
		<path class="st3" d="M92.2,50.7c1.3,0.3,2.2,0.8,2.2,1.4c0,0.9-1.2,1.6-3.9,1.6c-0.5,0-1,0-1.4-0.1h-0.2L85,56.4H60.6L60,56.8
			l-33.3,21l58.3,1l40.1-30.4H95.3l0,0L92.2,50.7L92.2,50.7z"/>
		<path class="st5" d="M66.6,68.9h-8.3c0.4-2.1-2-2.6-3.5-2.6c-1.1,0-2.1,0.2-3.1,0.7c-0.9,0.4-1.9,1-2.5,1.9H41"/>
		<line class="st5" x1="92.2" y1="50.7" x2="92.2" y2="53.5"/>
		<polyline class="st5" points="85,56.4 53.8,78.1 53.8,85.1 		"/>
		<g>
			<circle class="st3" cx="85.2" cy="81.7" r="9.9"/>
			<g>
				<text transform="matrix(1 0 0 1 81.9786 87.745)" class="st6 st7 st8">!</text>
			</g>
		</g>
		<g>
			<path class="st4" d="M114.3,56.6L85,56.4l-11.3,7.9H84c0.6-0.8,1.6-1.4,2.5-1.9c1-0.4,2-0.7,3.1-0.7c1.4,0,3.9,0.4,3.5,2.6h11
				L114.3,56.6z"/>
		</g>
		<path class="st5" d="M100.5,80.6c0-0.5-0.1-1-0.2-1.5"/>
		<path class="st5" d="M99.6,87.2c0.5-1.4,0.9-2.9,1-4.4"/>
		<path class="st5" d="M93.4,94.7c2.3-1.5,4.2-3.5,5.4-6"/>
		<path class="st5" d="M83,97c0.7,0.1,1.5,0.2,2.2,0.2c1.7,0,3.4-0.3,5-0.8"/>
		<path class="st5" d="M78.6,95.7c0.7,0.3,1.5,0.6,2.3,0.9"/>
		<path class="st5" d="M72,89.8c1.2,2,2.9,3.7,4.8,4.9"/>
		<polygon class="st2" points="26.5,40.3 29.1,40.3 15.3,63.9 12.7,63.9 		"/>
		<path class="st2" d="M30.1,52.3c-3.4,0-5.3,2.2-5.3,5.9s1.9,5.9,5.3,5.9s5.3-2.2,5.3-5.9S33.5,52.3,30.1,52.3z M30.1,61.5
			c-1.7,0-2-1.9-2-3.3s0.4-3.3,2-3.3s2,1.9,2,3.3S31.8,61.5,30.1,61.5z"/>
		<path class="st2" d="M30.1,61.5c-1.9-3.2,0-6.6,0-6.6"/>
		<path class="st2" d="M30.6,64c3.2,0,6.3-0.8,6.3-6c0-2-0.7-3.7-2.4-4.7c-0.8-0.4-2.6-0.9-3.5-1"/>
		<g>
			<path class="st2" d="M12.6,39.2c-3.4,0-5.3,2.2-5.3,5.9S9.2,51,12.6,51s5.3-2.2,5.3-5.9S16,39.2,12.6,39.2z M12.6,48.4
				c-1.7,0-2-1.9-2-3.3s0.4-3.3,2-3.3s2,1.9,2,3.3S14.3,48.4,12.6,48.4z"/>
			<path class="st2" d="M12.6,41.8c0,0-1.9,3.4,0,6.6"/>
			<path class="st2" d="M13.4,39.3c0.9,0.1,2.7,0.5,3.5,1c1.8,1,2.4,2.8,2.4,4.7c0,5.2-2.7,6-6,6"/>
		</g>
		<g>
			<g>
				<g>
					<line class="st9" x1="37.2" y1="37.4" x2="40.4" y2="41.2"/>
					<g>
						<polygon class="st0" points="39.3,41.7 41.6,42.6 41.2,40.1 						"/>
					</g>
				</g>
			</g>
			<polyline class="st10" points="27.8,30.8 30.7,29.9 35.2,35.1 			"/>
			<polyline class="st10" points="16.2,30.3 18.9,28.9 23.3,32.3 25.8,31.5 			"/>
			<line class="st10" x1="9.9" y1="33.7" x2="13.5" y2="31.8"/>
		</g>
		<g>
			<polygon class="st1" points="107.7,40.9 122.1,40.9 132.1,35.1 118.2,35.1 			"/>
			<g>
				<g>
					<path class="st3" d="M98.6,34.5v3.3c0,1.5,4.6,2.7,10.2,2.7s10.2-1.2,10.2-2.7v-3.3"/>
					<ellipse class="st3" cx="108.8" cy="34.5" rx="10.2" ry="2.7"/>
				</g>
				<g>
					<path class="st4" d="M98.6,31.2v3.3c0,1.5,4.6,2.7,10.2,2.7S119,36,119,34.5v-3.3"/>
					<ellipse class="st4" cx="108.8" cy="31.2" rx="10.2" ry="2.7"/>
				</g>
				<g>
					<path class="st3" d="M98.6,28v3.3c0,1.5,4.6,2.7,10.2,2.7s10.2-1.2,10.2-2.7V28"/>
					<ellipse class="st3" cx="108.8" cy="28" rx="10.2" ry="2.7"/>
				</g>
			</g>
		</g>
		<polygon class="st1" points="109.7,28.8 105.9,28.8 108.1,27.3 111.8,27.3 		"/>
		<text transform="matrix(1 0 0 1 105.0442 27.3495)" class="st6 st7 st11">$</text>
		<line class="st5" x1="104.1" y1="64.4" x2="104.1" y2="70.8"/>
		<line class="st5" x1="114" y1="56.7" x2="114" y2="63.1"/>
		<polygon class="st0" points="64.1,58.7 60.9,58.7 51.9,65.1 55.1,65.1 		"/>
		<polygon class="st0" points="74.5,59.7 71.2,59.7 63.6,65.1 66.9,65.1 		"/>
		<polygon class="st0" points="66.9,61.2 63.6,61.2 58,65.1 61.3,65.1 		"/>
		<g>
			<polygon class="st0" points="119.9,103.3 114.8,103.3 113.2,104.2 118.6,104.2 			"/>
			<polygon class="st0" points="128.9,96 123.7,96 122.2,97 127.6,97 			"/>
			<polygon class="st0" points="138.3,88.7 133.1,88.7 131.6,89.6 137,89.6 			"/>
			<polygon class="st0" points="147.6,81.4 142.4,81.4 140.9,82.4 146.3,82.4 			"/>
			<g>
				<g>
					<path class="st12" d="M113.2,98.2v0.7h1.7c0.6,0,1-0.4,1-1v-1.7H112"/>
					<path class="st12" d="M113.2,92.4v0.8h1.7c0.6,0,1-0.4,1-1v-1.7h-3.3"/>
					<path class="st12" d="M113.2,90.3h-0.7c-1.1,0-2-0.9-2-2v-0.7h0.7c1.1,0,2,0.9,2,2V90.3z"/>
					<path class="st12" d="M113.2,90.3h0.7c1.1,0,2-0.9,2-2v-0.7h-0.7c-1.1,0-2,0.9-2,2V90.3z"/>
					<path class="st12" d="M113.2,93.2h-0.7c-1.1,0-2-0.9-2-2v-0.7h0.7c1.1,0,2,0.9,2,2V93.2z"/>
					<path class="st12" d="M113.2,95.2v0.9h-1.7c-0.6,0-1-0.4-1-1v-1.7h3.5"/>
					<path class="st12" d="M113.2,96h0.7c1.1,0,2-0.9,2-2v-0.7h-0.7c-1.1,0-2,0.9-2,2V96z"/>
					<path class="st12" d="M113.2,98.9h-0.7c-1.1,0-2-0.9-2-2v-0.7h0.7c1.1,0,2,0.9,2,2V98.9z"/>
					<line class="st13" x1="113.2" y1="98.9" x2="113.2" y2="104"/>
				</g>
				<g>
					<path class="st12" d="M122.2,91v0.7h1.7c0.6,0,1-0.4,1-1V89H121"/>
					<path class="st12" d="M122.2,85.2V86h1.7c0.6,0,1-0.4,1-1v-1.7h-3.3"/>
					<path class="st12" d="M122.2,83.1h-0.7c-1.1,0-2-0.9-2-2v-0.7h0.7c1.1,0,2,0.9,2,2V83.1z"/>
					<path class="st12" d="M122.2,83.1h0.7c1.1,0,2-0.9,2-2v-0.7h-0.7c-1.1,0-2,0.9-2,2V83.1z"/>
					<path class="st12" d="M122.2,86h-0.7c-1.1,0-2-0.9-2-2v-0.7h0.7c1.1,0,2,0.9,2,2V86z"/>
					<path class="st12" d="M122.2,88v0.9h-1.7c-0.6,0-1-0.4-1-1v-1.7h3.5"/>
					<path class="st12" d="M122.2,88.8h0.7c1.1,0,2-0.9,2-2v-0.7h-0.7c-1.1,0-2,0.9-2,2V88.8z"/>
					<path class="st12" d="M122.2,91.7h-0.7c-1.1,0-2-0.9-2-2V89h0.7c1.1,0,2,0.9,2,2V91.7z"/>
					<line class="st13" x1="122.2" y1="91.7" x2="122.2" y2="96.8"/>
				</g>
				<g>
					<path class="st12" d="M131.6,83.6v0.7h1.7c0.6,0,1-0.4,1-1v-1.7h-3.9"/>
					<path class="st12" d="M131.6,77.8v0.8h1.7c0.6,0,1-0.4,1-1v-1.7H131"/>
					<path class="st12" d="M131.6,75.7h-0.7c-1.1,0-2-0.9-2-2V73h0.7c1.1,0,2,0.9,2,2V75.7z"/>
					<path class="st12" d="M131.6,75.7h0.7c1.1,0,2-0.9,2-2V73h-0.7c-1.1,0-2,0.9-2,2V75.7z"/>
					<path class="st12" d="M131.6,78.6h-0.7c-1.1,0-2-0.9-2-2v-0.7h0.7c1.1,0,2,0.9,2,2V78.6z"/>
					<path class="st12" d="M131.6,80.6v0.9h-1.7c-0.6,0-1-0.4-1-1v-1.7h3.5"/>
					<path class="st12" d="M131.6,81.4h0.7c1.1,0,2-0.9,2-2v-0.7h-0.7c-1.1,0-2,0.9-2,2V81.4z"/>
					<path class="st12" d="M131.6,84.3h-0.7c-1.1,0-2-0.9-2-2v-0.7h0.7c1.1,0,2,0.9,2,2V84.3z"/>
					<line class="st13" x1="131.6" y1="84.3" x2="131.6" y2="89.4"/>
				</g>
				<g>
					<path class="st12" d="M140.9,76.4v0.7h1.7c0.6,0,1-0.4,1-1v-1.7h-3.9"/>
					<path class="st12" d="M140.9,70.5v0.8h1.7c0.6,0,1-0.4,1-1v-1.7h-3.3"/>
					<path class="st12" d="M140.9,68.5h-0.7c-1.1,0-2-0.9-2-2v-0.7h0.7c1.1,0,2,0.9,2,2V68.5z"/>
					<path class="st12" d="M140.9,68.5h0.7c1.1,0,2-0.9,2-2v-0.7h-0.7c-1.1,0-2,0.9-2,2V68.5z"/>
					<path class="st12" d="M140.9,71.3h-0.7c-1.1,0-2-0.9-2-2v-0.7h0.7c1.1,0,2,0.9,2,2V71.3z"/>
					<path class="st12" d="M140.9,73.3v0.9h-1.7c-0.6,0-1-0.4-1-1v-1.7h3.5"/>
					<path class="st12" d="M140.9,74.2h0.7c1.1,0,2-0.9,2-2v-0.7h-0.7c-1.1,0-2,0.9-2,2V74.2z"/>
					<path class="st12" d="M140.9,77h-0.7c-1.1,0-2-0.9-2-2v-0.7h0.7c1.1,0,2,0.9,2,2V77z"/>
					<line class="st13" x1="140.9" y1="77" x2="140.9" y2="82.1"/>
				</g>
			</g>
		</g>
		<path class="st1" d="M49.5,95.1H46c-0.6,0-0.6,1,0,1h3.5C50.2,96.1,50.2,95.1,49.5,95.1z"/>
		<path class="st1" d="M57.1,98.4h-2.4c-0.6,0-0.6,1,0,1h2.4C57.7,99.4,57.7,98.4,57.1,98.4z"/>
		<path class="st1" d="M25.7,93.9h-3.1c-0.6,0-0.6,1,0,1h3.1C26.3,94.9,26.3,93.9,25.7,93.9z"/>
		<path class="st1" d="M39.3,101.2h-2.6c-0.6,0-0.6,1,0,1h2.6C40,102.2,40,101.2,39.3,101.2z"/>
		<path class="st1" d="M88.4,104.3h-1.9c-0.6,0-0.6,1,0,1h1.9C89,105.3,89,104.3,88.4,104.3z"/>
		<path class="st1" d="M149.9,58.4h-3.8c-0.6,0-0.6,1,0,1h3.8C150.5,59.4,150.5,58.4,149.9,58.4z"/>
		<path class="st1" d="M153.4,64.1h-1.7c-0.6,0-0.6,1,0,1h1.7C154.1,65.1,154.1,64.1,153.4,64.1z"/>
		<path class="st1" d="M148.5,92.9h-2.6c-0.6,0-0.6,1,0,1h2.6C149.1,93.9,149.1,92.9,148.5,92.9z"/>
		<path class="st1" d="M20.9,75.9h-2.4c-0.6,0-0.6,1,0,1h2.4C21.6,76.9,21.6,75.9,20.9,75.9z"/>
		<path class="st1" d="M13.6,79.9h-0.5c-0.6,0-0.6,1,0,1h0.5C14.2,80.9,14.2,79.9,13.6,79.9z"/>
		<path class="st1" d="M17.8,91h-0.9c-0.6,0-0.6,1,0,1h0.9C18.5,92,18.5,91,17.8,91z"/>
	</g>
</g>
</svg>
