<?xml version="1.0" encoding="utf-8"?>
<!-- Generator: Adobe Illustrator 22.0.1, SVG Export Plug-In . SVG Version: 6.00 Build 0)  -->
<svg version="1.1" id="Layer_1" xmlns="http://www.w3.org/2000/svg" xmlns:xlink="http://www.w3.org/1999/xlink" x="0px" y="0px"
	 viewBox="0 0 154.7 121.9" style="enable-background:new 0 0 154.7 121.9;" xml:space="preserve">
<style type="text/css">
	.st0{fill:#E6E6E6;}
	.st1{fill:none;stroke:#E6E6E6;stroke-linecap:round;stroke-linejoin:round;stroke-miterlimit:10;}
	.st2{fill:#BEC9D2;}
	.st3{fill:#E6E6E6;stroke:#E6E6E6;stroke-linecap:round;stroke-linejoin:round;stroke-miterlimit:10;}
	.st4{fill:#E6E6E6;stroke:#0A0A0D;stroke-linecap:round;stroke-linejoin:round;stroke-miterlimit:10;}
	.st5{fill:#FFFFFF;stroke:#0A0A0D;stroke-linecap:round;stroke-linejoin:round;stroke-miterlimit:10;}
	.st6{fill:#FFFFFF;}
	.st7{fill:none;stroke:#0A0A0D;stroke-linecap:round;stroke-linejoin:round;stroke-miterlimit:10;}
	.st8{fill:#FFFFFF;stroke:#E6E6E6;stroke-linecap:round;stroke-linejoin:round;stroke-miterlimit:10;}
	.st9{fill:none;stroke:#E6E6E6;stroke-linecap:round;stroke-linejoin:round;}
	.st10{fill:none;stroke:#E6E6E6;stroke-linecap:round;stroke-linejoin:round;stroke-dasharray:3.932,3.932;}
	.st11{fill:none;stroke:#E6E6E6;stroke-linecap:round;stroke-linejoin:round;stroke-dasharray:3.6597,3.6597;}
	.st12{fill:none;stroke:#E6E6E6;stroke-linecap:round;stroke-linejoin:round;stroke-miterlimit:10;stroke-dasharray:4,4;}
	.st13{fill:#FFFFFF;stroke:#BEC9D2;stroke-linecap:round;stroke-linejoin:round;stroke-miterlimit:10;}
	.st14{fill:#0A0A0D;}
</style>
<g id="Layer_6">
	<g>
		<rect x="82.1" y="57.9" class="st0" width="23.5" height="2.5"/>
		<rect x="82.1" y="61.9" class="st0" width="23.5" height="2.5"/>
		<rect x="82.1" y="66.1" class="st0" width="23.5" height="2.5"/>
		<polygon class="st1" points="108.7,54.4 79.2,54.4 83.5,50.9 113,50.9 		"/>
		<polygon class="st2" points="124,69.1 113.4,69.1 108.6,72.9 119.6,72.9 		"/>
		<rect x="78.9" y="54.4" class="st1" width="29.8" height="18"/>
		<polygon class="st1" points="113,68.9 108.7,72.4 108.7,54.4 113,50.9 		"/>
		<polygon class="st2" points="94.7,75.3 73.5,75.3 66.3,80.9 88.3,80.9 		"/>
		<polygon class="st1" points="67.1,45.9 61.2,31 51.3,45.9 		"/>
		<rect x="53.5" y="45.9" class="st1" width="13.6" height="34.5"/>
		<polygon class="st3" points="84.3,92.1 55.5,92.1 46.2,99.4 76.2,99.4 		"/>
		<polygon class="st4" points="55.1,92 46.2,99 46.2,28.8 55.1,21.8 		"/>
		<rect x="22.4" y="28.8" class="st5" width="23.9" height="70.2"/>
		<polygon class="st5" points="46.2,28.8 22.4,28.8 31.2,21.8 55.1,21.8 		"/>
		<g>
			<rect x="26" y="36" class="st2" width="2.3" height="7"/>
			<rect x="40.1" y="36" class="st2" width="2.3" height="7"/>
			<rect x="36.6" y="36" class="st2" width="2.3" height="7"/>
			<rect x="29.5" y="36" class="st2" width="2.3" height="7"/>
			<rect x="33" y="36" class="st2" width="2.3" height="7"/>
		</g>
		<g>
			<rect x="26" y="65.6" class="st2" width="2.3" height="7"/>
			<rect x="40.1" y="65.6" class="st2" width="2.3" height="7"/>
			<rect x="36.6" y="65.6" class="st2" width="2.3" height="7"/>
			<rect x="29.5" y="65.6" class="st2" width="2.3" height="7"/>
			<rect x="33" y="65.6" class="st2" width="2.3" height="7"/>
		</g>
		<g>
			<rect x="26" y="45.9" class="st2" width="2.3" height="7"/>
			<rect x="40.1" y="45.9" class="st2" width="2.3" height="7"/>
			<rect x="36.6" y="45.9" class="st2" width="2.3" height="7"/>
			<rect x="29.5" y="45.9" class="st2" width="2.3" height="7"/>
			<rect x="33" y="45.9" class="st2" width="2.3" height="7"/>
		</g>
		<g>
			<rect x="26" y="55.7" class="st2" width="2.3" height="7"/>
			<rect x="40.1" y="55.7" class="st2" width="2.3" height="7"/>
			<rect x="36.6" y="55.7" class="st2" width="2.3" height="7"/>
			<rect x="29.5" y="55.7" class="st2" width="2.3" height="7"/>
			<rect x="33" y="55.7" class="st2" width="2.3" height="7"/>
		</g>
		<g>
			<rect x="26" y="85.4" class="st2" width="2.3" height="7"/>
			<rect x="40.1" y="85.4" class="st2" width="2.3" height="7"/>
			<rect x="36.6" y="85.4" class="st2" width="2.3" height="7"/>
			<rect x="29.5" y="85.4" class="st2" width="2.3" height="7"/>
			<rect x="33" y="85.4" class="st2" width="2.3" height="7"/>
		</g>
		<g>
			<rect x="26" y="75.5" class="st2" width="2.3" height="7"/>
			<rect x="40.1" y="75.5" class="st2" width="2.3" height="7"/>
			<rect x="36.6" y="75.5" class="st2" width="2.3" height="7"/>
			<rect x="29.5" y="75.5" class="st2" width="2.3" height="7"/>
			<rect x="33" y="75.5" class="st2" width="2.3" height="7"/>
		</g>
		<polygon class="st5" points="55.1,93.4 50.2,97.4 50.2,94.8 55.1,90.8 		"/>
		<rect x="47.9" y="94.9" class="st5" width="2.3" height="2.5"/>
		<polygon class="st5" points="47.9,94.9 53,90.8 55.1,90.8 50.2,94.9 		"/>
		<polygon class="st5" points="48.2,94.6 48.2,83.4 53.1,80 53,90.8 		"/>
		<polygon class="st0" points="43,27 29.5,27 34,23.6 47.5,23.6 		"/>
		<g>
			<polygon class="st6" points="50.4,35 48.2,37 48.2,34.1 50.4,32.1 			"/>
			<polygon class="st6" points="53.5,32.5 51.3,34.5 51.3,31.6 53.5,29.6 			"/>
			<polygon class="st6" points="50.4,39.7 48.2,41.7 48.2,38.7 50.4,36.7 			"/>
			<polygon class="st6" points="53.5,37.2 51.3,39.2 51.3,36.2 53.5,34.2 			"/>
			<polygon class="st6" points="50.4,44.7 48.2,46.7 48.2,43.7 50.4,41.7 			"/>
			<polygon class="st6" points="53.5,42.2 51.3,44.2 51.3,41.2 53.5,39.2 			"/>
			<polygon class="st6" points="50.4,49.7 48.2,51.7 48.2,48.7 50.4,46.7 			"/>
			<polygon class="st6" points="53.5,47.2 51.3,49.2 51.3,46.2 53.5,44.2 			"/>
			<polygon class="st6" points="50.4,54.6 48.2,56.6 48.2,53.7 50.4,51.7 			"/>
			<polygon class="st6" points="53.5,52.1 51.3,54.1 51.3,51.2 53.5,49.2 			"/>
			<polygon class="st6" points="50.4,60.3 48.2,62.3 48.2,59.3 50.4,57.3 			"/>
			<polygon class="st6" points="53.5,57.8 51.3,59.8 51.3,56.8 53.5,54.8 			"/>
			<polygon class="st6" points="50.4,65.6 48.2,67.6 48.2,64.6 50.4,62.6 			"/>
			<polygon class="st6" points="53.5,63.1 51.3,65.1 51.3,62.1 53.5,60.1 			"/>
			<polygon class="st6" points="50.4,71.3 48.2,73.3 48.2,70.4 50.4,68.4 			"/>
			<polygon class="st6" points="53.5,68.8 51.3,70.8 51.3,67.9 53.5,65.9 			"/>
			<polygon class="st6" points="50.4,77.2 48.2,79.2 48.2,76.3 50.4,74.3 			"/>
			<polygon class="st6" points="53.5,74.7 51.3,76.7 51.3,73.8 53.5,71.8 			"/>
		</g>
		<polygon class="st3" points="73.8,75 67.1,80.4 67.1,45.9 73.8,40.5 		"/>
		<polygon class="st1" points="61.2,31 73.8,40.5 67.1,45.9 		"/>
		<polygon class="st3" points="107.3,108.8 93.1,108.8 93.1,107.5 108.8,107.5 		"/>
		<polygon class="st3" points="130.9,100.4 110.1,100.4 100.9,107.7 122.8,107.7 		"/>
		<rect x="75.1" y="89.7" class="st5" width="26.2" height="17.5"/>
		<polygon class="st4" points="109.9,100.4 101.3,107.2 101.3,89.7 109.9,82.1 		"/>
		<polygon class="st4" points="75.1,89.7 84,82.1 109.9,82.1 101.3,89.7 		"/>
		<rect x="83.3" y="59.5" class="st5" width="13.9" height="27"/>
		<polygon class="st4" points="102.1,82.2 97.2,86.5 97.2,59.7 102.1,55.4 		"/>
		<polygon class="st5" points="83.3,59.5 88.4,55.2 102.1,55.2 97.2,59.5 		"/>
		<rect x="80.3" y="106.2" class="st5" width="12.7" height="2"/>
		<polygon class="st5" points="94.4,107.4 93.1,108.3 93.1,106.2 94.4,105.4 		"/>
		<polygon class="st5" points="94.4,105.4 81.6,105.4 80.3,106.2 93.3,106.2 		"/>
		<rect x="81.5" y="98.4" class="st5" width="13" height="7"/>
		<line class="st7" x1="87.8" y1="98.4" x2="87.8" y2="105.4"/>
		<rect x="86.4" y="63.8" class="st1" width="8" height="17.8"/>
		<path class="st1" d="M86.4,67.2c0.3,0,8,0,8,0"/>
		<path class="st1" d="M86.4,70.8c0.3,0,8,0,8,0"/>
		<path class="st1" d="M86.4,74.4c0.3,0,8,0,8,0"/>
		<path class="st1" d="M86.4,78c0.3,0,8,0,8,0"/>
		<line class="st7" x1="94.9" y1="92.7" x2="97.8" y2="92.7"/>
		<line class="st7" x1="84.5" y1="92.7" x2="92" y2="92.7"/>
		<line class="st7" x1="77.3" y1="92.7" x2="81.5" y2="92.7"/>
		<rect x="83.4" y="94.7" class="st0" width="8.6" height="1.9"/>
		<g>
			<path class="st5" d="M92.7,47.4h1.7c2.6,0,4.8,2.1,4.8,4.8S97.1,57,94.4,57h-1.8"/>
			<circle class="st5" cx="92.5" cy="52.1" r="4.8"/>
		</g>
		<line class="st1" x1="90.7" y1="63.8" x2="90.7" y2="81.6"/>
		<polygon class="st0" points="51.6,111.1 45.4,111.1 43.5,112.3 50.1,112.3 		"/>
		<g>
			<ellipse class="st8" cx="44.1" cy="105" rx="2.4" ry="2.8"/>
			<rect x="43.5" y="107.8" class="st0" width="1.1" height="4.5"/>
		</g>
		<polygon class="st0" points="64.4,111.1 58.2,111.1 56.3,112.3 62.9,112.3 		"/>
		<g>
			<ellipse class="st8" cx="56.9" cy="105" rx="2.4" ry="2.8"/>
			<rect x="56.3" y="107.8" class="st0" width="1.1" height="4.5"/>
		</g>
		<polygon class="st0" points="38.9,111.1 32.7,111.1 30.8,112.3 37.4,112.3 		"/>
		<g>
			<ellipse class="st8" cx="31.4" cy="105" rx="2.4" ry="2.8"/>
			<rect x="30.8" y="107.8" class="st0" width="1.1" height="4.5"/>
		</g>
		<polygon class="st0" points="130.8,94.6 125.7,94.6 124.1,95.6 129.5,95.6 		"/>
		<g>
			<ellipse class="st8" cx="124.5" cy="89.6" rx="2" ry="2.3"/>
			<rect x="124.1" y="91.8" class="st0" width="0.9" height="3.7"/>
		</g>
		<g>
			<g>
				<line class="st9" x1="41.3" y1="18.1" x2="41.3" y2="16.1"/>
				<polyline class="st9" points="41.3,13.3 41.3,11.3 43.3,11.3 				"/>
				<line class="st10" x1="47.2" y1="11.3" x2="100.3" y2="11.3"/>
				<polyline class="st9" points="102.2,11.3 104.2,11.3 104.2,13.3 				"/>
				<line class="st11" x1="104.2" y1="17" x2="104.2" y2="44.4"/>
				<line class="st9" x1="104.2" y1="46.2" x2="104.2" y2="48.2"/>
			</g>
		</g>
		<polyline class="st12" points="77.3,41.7 91.9,41.7 91.9,44.2 		"/>
		<polyline class="st12" points="57.9,25.3 68.5,25.3 68.5,32.1 		"/>
		<polyline class="st12" points="50.7,18.5 119.9,18.5 119.9,61.9 115.3,61.9 		"/>
		<g>
			<polygon class="st7" points="37,24.9 39.8,24.9 45.5,17.1 41.2,13.4 36.6,13.4 34.1,15.1 31.5,17.6 			"/>
			<g>
				<polyline class="st5" points="34.1,15.1 36.6,13.4 41.2,13.4 45.5,17.1 39.8,24.9 37,24.9 				"/>
				<polygon class="st5" points="31.5,17.6 34.1,15.1 39.8,15.1 42.4,17.6 37,24.9 				"/>
				<line class="st7" x1="32" y1="17.8" x2="42.2" y2="17.8"/>
				<line class="st7" x1="39.8" y1="15.1" x2="38" y2="17.8"/>
				<line class="st7" x1="42.4" y1="17.6" x2="45.5" y2="17.1"/>
				<line class="st7" x1="33.6" y1="11.5" x2="31.8" y2="9.5"/>
				<line class="st7" x1="38.3" y1="6.2" x2="38.3" y2="9.9"/>
				<line class="st7" x1="43.2" y1="11.7" x2="45.2" y2="9.3"/>
				<line class="st7" x1="35.5" y1="17.8" x2="34.1" y2="15.1"/>
			</g>
		</g>
		<polyline class="st12" points="105.6,76.7 129.2,76.7 129.2,56.6 115.7,56.6 		"/>
		<polygon class="st0" points="128.2,80.6 123.1,80.6 121.5,81.6 127,81.6 		"/>
		<g>
			<ellipse class="st8" cx="122" cy="75.6" rx="2" ry="2.3"/>
			<rect x="121.5" y="77.8" class="st0" width="0.9" height="3.7"/>
		</g>
		<g>
			<polygon class="st0" points="122,86.6 116.9,86.6 115.3,87.6 120.7,87.6 			"/>
			<g>
				<ellipse class="st8" cx="115.8" cy="81.6" rx="2" ry="2.3"/>
				<rect x="115.3" y="83.8" class="st0" width="0.9" height="3.7"/>
			</g>
		</g>
		<circle class="st13" cx="64.4" cy="10.5" r="3.1"/>
		<circle class="st13" cx="104.2" cy="39.5" r="3.1"/>
		<circle class="st13" cx="68.5" cy="25.7" r="3.1"/>
		<circle class="st13" cx="93.1" cy="18.5" r="3.1"/>
		<circle class="st13" cx="129.2" cy="62.3" r="3.1"/>
		<g>
			<path class="st2" d="M64.6,8.9v1.4H66v0.4h-1.4v1.5h-0.4v-1.5h-1.4v-0.4h1.4V8.9C64.2,8.9,64.6,8.9,64.6,8.9z"/>
		</g>
		<g>
			<path class="st2" d="M104.4,37.8v1.4h1.4v0.4h-1.4v1.5H104v-1.5h-1.4v-0.4h1.4v-1.4H104.4z"/>
		</g>
		<g>
			<path class="st2" d="M94.1,18.2v0.5h-1.9v-0.5H94.1z"/>
		</g>
		<g>
			<path class="st2" d="M130.2,62v0.5h-1.9V62H130.2z"/>
		</g>
		<g>
			<path class="st2" d="M69.4,25.5V26h-1.9v-0.5H69.4z"/>
		</g>
		<g>
			<path class="st14" d="M92.3,54.5L92.3,54.5c-0.5,0-0.8-0.1-1.1-0.2l0.1-0.6c0.2,0.2,0.5,0.2,0.9,0.2h0.1v-1.6l-0.2-0.1
				c-0.5-0.3-0.9-0.6-0.9-1.2c0-0.7,0.5-1.1,1.1-1.2v-0.7h0.4v0.6c0.3,0,0.6,0.1,0.9,0.2l-0.1,0.6c-0.2-0.1-0.5-0.2-0.8-0.2h-0.1
				v1.4l0.4,0.2c0.5,0.3,0.8,0.6,0.8,1.2c0,0.7-0.5,1.2-1.1,1.3v0.7h-0.4C92.3,55.1,92.3,54.5,92.3,54.5z M92.3,50.4
				c-0.3,0.1-0.4,0.3-0.4,0.6c0,0.3,0.2,0.4,0.4,0.6V50.4z M92.7,53.9c0.3-0.1,0.5-0.4,0.5-0.7c0-0.4-0.2-0.5-0.5-0.7V53.9z"/>
		</g>
	</g>
</g>
</svg>
